<?xml version="1.0" encoding="UTF-8" standalone="no"?>
<!DOCTYPE svg PUBLIC "-//W3C//DTD SVG 1.1//EN"
 "http://www.w3.org/Graphics/SVG/1.1/DTD/svg11.dtd">
<!-- Generated by graphviz version 2.38.0 (20140413.2041)
 -->
<!-- Title: %3 Pages: 1 -->
<svg width="833pt" height="845pt"
 viewBox="0.00 0.00 832.50 845.00" xmlns="http://www.w3.org/2000/svg" xmlns:xlink="http://www.w3.org/1999/xlink">
<g id="graph0" class="graph" transform="scale(1 1) rotate(0) translate(4 841)">
<title>%3</title>
<polygon fill="white" stroke="none" points="-4,4 -4,-841 828.5,-841 828.5,4 -4,4"/>
<!-- 1 -->
<g id="node1" class="node"><title>1</title>
<polygon fill="#ff0100" stroke="#ff0100" points="437.5,-837 387.5,-837 387.5,-796 437.5,-796 437.5,-837"/>
<text text-anchor="middle" x="412.5" y="-825" font-family="Arial" font-size="10.00" fill="#ffffff">main</text>
<text text-anchor="middle" x="412.5" y="-814" font-family="Arial" font-size="10.00" fill="#ffffff">99.93%</text>
<text text-anchor="middle" x="412.5" y="-803" font-family="Arial" font-size="10.00" fill="#ffffff">(0.00%)</text>
</g>
<!-- 3 -->
<g id="node2" class="node"><title>3</title>
<polygon fill="#ff0300" stroke="#ff0300" points="460.5,-756 364.5,-756 364.5,-704 460.5,-704 460.5,-756"/>
<text text-anchor="middle" x="412.5" y="-744" font-family="Arial" font-size="10.00" fill="#ffffff">rt_sdl_render_loop</text>
<text text-anchor="middle" x="412.5" y="-733" font-family="Arial" font-size="10.00" fill="#ffffff">99.68%</text>
<text text-anchor="middle" x="412.5" y="-722" font-family="Arial" font-size="10.00" fill="#ffffff">(0.00%)</text>
<text text-anchor="middle" x="412.5" y="-711" font-family="Arial" font-size="10.00" fill="#ffffff">1×</text>
</g>
<!-- 1&#45;&gt;3 -->
<g id="edge1" class="edge"><title>1&#45;&gt;3</title>
<path fill="none" stroke="#ff0300" stroke-width="3.99" d="M412.5,-795.902C412.5,-787.145 412.5,-776.545 412.5,-766.473"/>
<polygon fill="#ff0300" stroke="#ff0300" stroke-width="3.99" points="416,-766.267 412.5,-756.267 409,-766.267 416,-766.267"/>
<text text-anchor="middle" x="429.5" y="-779" font-family="Arial" font-size="10.00" fill="#ff0300">99.68%</text>
<text text-anchor="middle" x="429.5" y="-768" font-family="Arial" font-size="10.00" fill="#ff0300">1×</text>
</g>
<!-- 2 -->
<g id="node3" class="node"><title>2</title>
<polygon fill="#ff0300" stroke="#ff0300" points="446.5,-664 378.5,-664 378.5,-612 446.5,-612 446.5,-664"/>
<text text-anchor="middle" x="412.5" y="-652" font-family="Arial" font-size="10.00" fill="#ffffff">rt_rendering</text>
<text text-anchor="middle" x="412.5" y="-641" font-family="Arial" font-size="10.00" fill="#ffffff">99.68%</text>
<text text-anchor="middle" x="412.5" y="-630" font-family="Arial" font-size="10.00" fill="#ffffff">(0.86%)</text>
<text text-anchor="middle" x="412.5" y="-619" font-family="Arial" font-size="10.00" fill="#ffffff">75×</text>
</g>
<!-- 3&#45;&gt;2 -->
<g id="edge3" class="edge"><title>3&#45;&gt;2</title>
<path fill="none" stroke="#ff0300" stroke-width="3.99" d="M412.5,-703.93C412.5,-694.743 412.5,-684.166 412.5,-674.253"/>
<polygon fill="#ff0300" stroke="#ff0300" stroke-width="3.99" points="416,-674.248 412.5,-664.248 409,-674.248 416,-674.248"/>
<text text-anchor="middle" x="429.5" y="-687" font-family="Arial" font-size="10.00" fill="#ff0300">99.68%</text>
<text text-anchor="middle" x="429.5" y="-676" font-family="Arial" font-size="10.00" fill="#ff0300">75×</text>
</g>
<!-- 4 -->
<g id="node4" class="node"><title>4</title>
<polygon fill="#fc1100" stroke="#fc1100" points="448,-572 377,-572 377,-520 448,-520 448,-572"/>
<text text-anchor="middle" x="412.5" y="-560" font-family="Arial" font-size="10.00" fill="#ffffff">rt_raytracing</text>
<text text-anchor="middle" x="412.5" y="-549" font-family="Arial" font-size="10.00" fill="#ffffff">98.35%</text>
<text text-anchor="middle" x="412.5" y="-538" font-family="Arial" font-size="10.00" fill="#ffffff">(3.10%)</text>
<text text-anchor="middle" x="412.5" y="-527" font-family="Arial" font-size="10.00" fill="#ffffff">24000000×</text>
</g>
<!-- 2&#45;&gt;4 -->
<g id="edge2" class="edge"><title>2&#45;&gt;4</title>
<path fill="none" stroke="#fc1100" stroke-width="3.93" d="M412.5,-611.93C412.5,-602.743 412.5,-592.166 412.5,-582.253"/>
<polygon fill="#fc1100" stroke="#fc1100" stroke-width="3.93" points="415.965,-582.148 412.5,-572.248 409.035,-582.148 415.965,-582.148"/>
<text text-anchor="middle" x="437" y="-595" font-family="Arial" font-size="10.00" fill="#fc1100">98.35%</text>
<text text-anchor="middle" x="437" y="-584" font-family="Arial" font-size="10.00" fill="#fc1100">24000000×</text>
</g>
<!-- 5 -->
<g id="node5" class="node"><title>5</title>
<polygon fill="#65c708" stroke="#65c708" points="83,-358 0,-358 0,-306 83,-306 83,-358"/>
<text text-anchor="middle" x="41.5" y="-346" font-family="Arial" font-size="10.00" fill="#ffffff">rt_closest_inter</text>
<text text-anchor="middle" x="41.5" y="-335" font-family="Arial" font-size="10.00" fill="#ffffff">62.14%</text>
<text text-anchor="middle" x="41.5" y="-324" font-family="Arial" font-size="10.00" fill="#ffffff">(11.21%)</text>
<text text-anchor="middle" x="41.5" y="-313" font-family="Arial" font-size="10.00" fill="#ffffff">41747784×</text>
</g>
<!-- 4&#45;&gt;5 -->
<g id="edge4" class="edge"><title>4&#45;&gt;5</title>
<path fill="none" stroke="#0ba261" stroke-width="1.43" d="M376.925,-539.201C327.29,-530.356 235.075,-511.156 161.5,-480 113.56,-459.699 91.9934,-461.196 61.5,-419 50.0649,-403.177 45.0576,-381.812 42.9127,-364.336"/>
<polygon fill="#0ba261" stroke="#0ba261" stroke-width="1.43" points="44.9711,-363.834 42.2454,-358.091 40.7949,-364.28 44.9711,-363.834"/>
<text text-anchor="middle" x="186" y="-457" font-family="Arial" font-size="10.00" fill="#0ba261">35.72%</text>
<text text-anchor="middle" x="186" y="-446" font-family="Arial" font-size="10.00" fill="#0ba261">24000000×</text>
</g>
<!-- 6 -->
<g id="node6" class="node"><title>6</title>
<polygon fill="#0ab21a" stroke="#0ab21a" points="284,-480 215,-480 215,-428 284,-428 284,-480"/>
<text text-anchor="middle" x="249.5" y="-468" font-family="Arial" font-size="10.00" fill="#ffffff">rt_calc_light</text>
<text text-anchor="middle" x="249.5" y="-457" font-family="Arial" font-size="10.00" fill="#ffffff">47.65%</text>
<text text-anchor="middle" x="249.5" y="-446" font-family="Arial" font-size="10.00" fill="#ffffff">(2.04%)</text>
<text text-anchor="middle" x="249.5" y="-435" font-family="Arial" font-size="10.00" fill="#ffffff">9424120×</text>
</g>
<!-- 4&#45;&gt;6 -->
<g id="edge5" class="edge"><title>4&#45;&gt;6</title>
<path fill="none" stroke="#0ab21a" stroke-width="1.91" d="M376.944,-531.019C363.411,-525.307 348.006,-518.322 334.5,-511 319.547,-502.893 303.823,-492.966 290.021,-483.734"/>
<polygon fill="#0ab21a" stroke="#0ab21a" stroke-width="1.91" points="291.301,-481.685 284.231,-479.827 288.6,-485.688 291.301,-481.685"/>
<text text-anchor="middle" x="356" y="-503" font-family="Arial" font-size="10.00" fill="#0ab21a">47.65%</text>
<text text-anchor="middle" x="356" y="-492" font-family="Arial" font-size="10.00" fill="#0ab21a">9424120×</text>
</g>
<!-- 12 -->
<g id="node7" class="node"><title>12</title>
<polygon fill="#0d307d" stroke="#0d307d" points="387,-266 322,-266 322,-214 387,-214 387,-266"/>
<text text-anchor="middle" x="354.5" y="-254" font-family="Arial" font-size="10.00" fill="#ffffff">v_norm</text>
<text text-anchor="middle" x="354.5" y="-243" font-family="Arial" font-size="10.00" fill="#ffffff">7.95%</text>
<text text-anchor="middle" x="354.5" y="-232" font-family="Arial" font-size="10.00" fill="#ffffff">(2.50%)</text>
<text text-anchor="middle" x="354.5" y="-221" font-family="Arial" font-size="10.00" fill="#ffffff">78041179×</text>
</g>
<!-- 4&#45;&gt;12 -->
<g id="edge6" class="edge"><title>4&#45;&gt;12</title>
<path fill="none" stroke="#0d2078" stroke-width="0.5" d="M409.531,-519.685C404.156,-475.844 391.746,-383.081 374.5,-306 371.79,-293.888 367.933,-280.762 364.328,-269.498"/>
<polygon fill="#0d2078" stroke="#0d2078" stroke-width="0.5" points="365.461,-269.019 363.219,-266.065 363.13,-269.772 365.461,-269.019"/>
<text text-anchor="middle" x="420" y="-396" font-family="Arial" font-size="10.00" fill="#0d2078">4.38%</text>
<text text-anchor="middle" x="420" y="-385" font-family="Arial" font-size="10.00" fill="#0d2078">42956084×</text>
</g>
<!-- 14 -->
<g id="node8" class="node"><title>14</title>
<polygon fill="#0d2279" stroke="#0d2279" points="522.5,-480 432.5,-480 432.5,-428 522.5,-428 522.5,-480"/>
<text text-anchor="middle" x="477.5" y="-468" font-family="Arial" font-size="10.00" fill="#ffffff">rt_camera_rotate</text>
<text text-anchor="middle" x="477.5" y="-457" font-family="Arial" font-size="10.00" fill="#ffffff">4.81%</text>
<text text-anchor="middle" x="477.5" y="-446" font-family="Arial" font-size="10.00" fill="#ffffff">(1.71%)</text>
<text text-anchor="middle" x="477.5" y="-435" font-family="Arial" font-size="10.00" fill="#ffffff">24000000×</text>
</g>
<!-- 4&#45;&gt;14 -->
<g id="edge7" class="edge"><title>4&#45;&gt;14</title>
<path fill="none" stroke="#0d2279" stroke-width="0.5" d="M430.606,-519.93C438.848,-508.518 448.638,-494.963 457.135,-483.198"/>
<polygon fill="#0d2279" stroke="#0d2279" stroke-width="0.5" points="458.209,-483.802 459.266,-480.248 456.223,-482.368 458.209,-483.802"/>
<text text-anchor="middle" x="478" y="-503" font-family="Arial" font-size="10.00" fill="#0d2279">4.81%</text>
<text text-anchor="middle" x="478" y="-492" font-family="Arial" font-size="10.00" fill="#0d2279">24000000×</text>
</g>
<!-- 17 -->
<g id="node9" class="node"><title>17</title>
<polygon fill="#0d1475" stroke="#0d1475" points="673,-480 608,-480 608,-428 673,-428 673,-480"/>
<text text-anchor="middle" x="640.5" y="-468" font-family="Arial" font-size="10.00" fill="#ffffff">rt_uv_plane</text>
<text text-anchor="middle" x="640.5" y="-457" font-family="Arial" font-size="10.00" fill="#ffffff">1.76%</text>
<text text-anchor="middle" x="640.5" y="-446" font-family="Arial" font-size="10.00" fill="#ffffff">(0.26%)</text>
<text text-anchor="middle" x="640.5" y="-435" font-family="Arial" font-size="10.00" fill="#ffffff">8989805×</text>
</g>
<!-- 4&#45;&gt;17 -->
<g id="edge8" class="edge"><title>4&#45;&gt;17</title>
<path fill="none" stroke="#0d1475" stroke-width="0.5" d="M448.002,-532.224C465.13,-525.972 485.942,-518.247 504.5,-511 538.67,-497.656 577.318,-481.654 604.657,-470.178"/>
<polygon fill="#0d1475" stroke="#0d1475" stroke-width="0.5" points="605.182,-471.287 607.934,-468.802 604.233,-469.028 605.182,-471.287"/>
<text text-anchor="middle" x="579" y="-503" font-family="Arial" font-size="10.00" fill="#0d1475">1.76%</text>
<text text-anchor="middle" x="579" y="-492" font-family="Arial" font-size="10.00" fill="#0d1475">8989805×</text>
</g>
<!-- 22 -->
<g id="node10" class="node"><title>22</title>
<polygon fill="#0d0f74" stroke="#0d0f74" points="824.5,-419 738.5,-419 738.5,-367 824.5,-367 824.5,-419"/>
<text text-anchor="middle" x="781.5" y="-407" font-family="Arial" font-size="10.00" fill="#ffffff">rt_normal_plane</text>
<text text-anchor="middle" x="781.5" y="-396" font-family="Arial" font-size="10.00" fill="#ffffff">0.65%</text>
<text text-anchor="middle" x="781.5" y="-385" font-family="Arial" font-size="10.00" fill="#ffffff">(0.40%)</text>
<text text-anchor="middle" x="781.5" y="-374" font-family="Arial" font-size="10.00" fill="#ffffff">7548412×</text>
</g>
<!-- 4&#45;&gt;22 -->
<g id="edge9" class="edge"><title>4&#45;&gt;22</title>
<path fill="none" stroke="#0d0f74" stroke-width="0.5" d="M448.046,-542.947C501.411,-538.463 603.82,-524.311 677.5,-480 704.866,-463.542 732.572,-440.232 752.499,-422.03"/>
<polygon fill="#0d0f74" stroke="#0d0f74" stroke-width="0.5" points="753.632,-422.653 755.381,-419.383 751.975,-420.848 753.632,-422.653"/>
<text text-anchor="middle" x="681" y="-503" font-family="Arial" font-size="10.00" fill="#0d0f74">0.65%</text>
<text text-anchor="middle" x="681" y="-492" font-family="Arial" font-size="10.00" fill="#0d0f74">7548412×</text>
</g>
<!-- 7 -->
<g id="node11" class="node"><title>7</title>
<polygon fill="#0aad33" stroke="#0aad33" points="151,-266 74,-266 74,-214 151,-214 151,-266"/>
<text text-anchor="middle" x="112.5" y="-254" font-family="Arial" font-size="10.00" fill="#ffffff">s_intersection</text>
<text text-anchor="middle" x="112.5" y="-243" font-family="Arial" font-size="10.00" fill="#ffffff">43.68%</text>
<text text-anchor="middle" x="112.5" y="-232" font-family="Arial" font-size="10.00" fill="#ffffff">(12.39%)</text>
<text text-anchor="middle" x="112.5" y="-221" font-family="Arial" font-size="10.00" fill="#ffffff">208738920×</text>
</g>
<!-- 5&#45;&gt;7 -->
<g id="edge10" class="edge"><title>5&#45;&gt;7</title>
<path fill="none" stroke="#0aad33" stroke-width="1.75" d="M83.0661,-306.83C86.5287,-303.805 89.7495,-300.523 92.5,-297 98.0691,-289.867 102.169,-281.054 105.153,-272.546"/>
<polygon fill="#0aad33" stroke="#0aad33" stroke-width="1.75" points="107.394,-273.124 107.224,-266.133 102.998,-271.704 107.394,-273.124"/>
<text text-anchor="middle" x="131.5" y="-289" font-family="Arial" font-size="10.00" fill="#0aad33">43.68%</text>
<text text-anchor="middle" x="131.5" y="-278" font-family="Arial" font-size="10.00" fill="#0aad33">208738920×</text>
</g>
<!-- 13 -->
<g id="node12" class="node"><title>13</title>
<polygon fill="#0d2d7c" stroke="#0d2d7c" points="78.5,-205 4.5,-205 4.5,-153 78.5,-153 78.5,-205"/>
<text text-anchor="middle" x="41.5" y="-193" font-family="Arial" font-size="10.00" fill="#ffffff">s_plane_inter</text>
<text text-anchor="middle" x="41.5" y="-182" font-family="Arial" font-size="10.00" fill="#ffffff">7.25%</text>
<text text-anchor="middle" x="41.5" y="-171" font-family="Arial" font-size="10.00" fill="#ffffff">(4.42%)</text>
<text text-anchor="middle" x="41.5" y="-160" font-family="Arial" font-size="10.00" fill="#ffffff">41747784×</text>
</g>
<!-- 5&#45;&gt;13 -->
<g id="edge11" class="edge"><title>5&#45;&gt;13</title>
<path fill="none" stroke="#0d2d7c" stroke-width="0.5" d="M41.5,-305.726C41.5,-278.97 41.5,-236.811 41.5,-208.791"/>
<polygon fill="#0d2d7c" stroke="#0d2d7c" stroke-width="0.5" points="42.7251,-208.605 41.5,-205.105 40.2751,-208.605 42.7251,-208.605"/>
<text text-anchor="middle" x="66" y="-289" font-family="Arial" font-size="10.00" fill="#0d2d7c">7.25%</text>
<text text-anchor="middle" x="66" y="-278" font-family="Arial" font-size="10.00" fill="#0d2d7c">41747784×</text>
</g>
<!-- 6&#45;&gt;5 -->
<g id="edge12" class="edge"><title>6&#45;&gt;5</title>
<path fill="none" stroke="#0c958e" stroke-width="1.06" d="M214.777,-450.449C185.573,-446.949 143.71,-438.652 112.5,-419 90.2973,-405.019 71.7054,-381.741 59.123,-362.927"/>
<polygon fill="#0c958e" stroke="#0c958e" stroke-width="1.06" points="60.3444,-361.534 56.0551,-358.248 57.3589,-363.492 60.3444,-361.534"/>
<text text-anchor="middle" x="137" y="-396" font-family="Arial" font-size="10.00" fill="#0c958e">26.42%</text>
<text text-anchor="middle" x="137" y="-385" font-family="Arial" font-size="10.00" fill="#0c958e">17747784×</text>
</g>
<!-- 10 -->
<g id="node13" class="node"><title>10</title>
<polygon fill="#0d4682" stroke="#0d4682" points="299.5,-358 199.5,-358 199.5,-306 299.5,-306 299.5,-358"/>
<text text-anchor="middle" x="249.5" y="-346" font-family="Arial" font-size="10.00" fill="#ffffff">s_calc_light_intens</text>
<text text-anchor="middle" x="249.5" y="-335" font-family="Arial" font-size="10.00" fill="#ffffff">12.13%</text>
<text text-anchor="middle" x="249.5" y="-324" font-family="Arial" font-size="10.00" fill="#ffffff">(3.10%)</text>
<text text-anchor="middle" x="249.5" y="-313" font-family="Arial" font-size="10.00" fill="#ffffff">17542893×</text>
</g>
<!-- 6&#45;&gt;10 -->
<g id="edge13" class="edge"><title>6&#45;&gt;10</title>
<path fill="none" stroke="#0d4682" stroke-width="0.5" d="M249.5,-427.844C249.5,-408.644 249.5,-382.158 249.5,-362.054"/>
<polygon fill="#0d4682" stroke="#0d4682" stroke-width="0.5" points="250.725,-361.623 249.5,-358.123 248.275,-361.623 250.725,-361.623"/>
<text text-anchor="middle" x="274" y="-396" font-family="Arial" font-size="10.00" fill="#0d4682">12.13%</text>
<text text-anchor="middle" x="274" y="-385" font-family="Arial" font-size="10.00" fill="#0d4682">17542893×</text>
</g>
<!-- 15 -->
<g id="node14" class="node"><title>15</title>
<polygon fill="#0d1d78" stroke="#0d1d78" points="370.5,-358 308.5,-358 308.5,-306 370.5,-306 370.5,-358"/>
<text text-anchor="middle" x="339.5" y="-346" font-family="Arial" font-size="10.00" fill="#ffffff">sdl_clr_div</text>
<text text-anchor="middle" x="339.5" y="-335" font-family="Arial" font-size="10.00" fill="#ffffff">3.89%</text>
<text text-anchor="middle" x="339.5" y="-324" font-family="Arial" font-size="10.00" fill="#ffffff">(3.89%)</text>
<text text-anchor="middle" x="339.5" y="-313" font-family="Arial" font-size="10.00" fill="#ffffff">9424120×</text>
</g>
<!-- 6&#45;&gt;15 -->
<g id="edge14" class="edge"><title>6&#45;&gt;15</title>
<path fill="none" stroke="#0d1d78" stroke-width="0.5" d="M284.036,-433.844C290.02,-429.498 295.815,-424.515 300.5,-419 314.731,-402.251 324.752,-379.459 331.07,-361.547"/>
<polygon fill="#0d1d78" stroke="#0d1d78" stroke-width="0.5" points="332.299,-361.741 332.285,-358.033 329.983,-360.941 332.299,-361.741"/>
<text text-anchor="middle" x="351" y="-396" font-family="Arial" font-size="10.00" fill="#0d1d78">3.89%</text>
<text text-anchor="middle" x="351" y="-385" font-family="Arial" font-size="10.00" fill="#0d1d78">9424120×</text>
</g>
<!-- 16 -->
<g id="node15" class="node"><title>16</title>
<polygon fill="#0d1a77" stroke="#0d1a77" points="190.5,-358 92.5,-358 92.5,-306 190.5,-306 190.5,-358"/>
<text text-anchor="middle" x="141.5" y="-346" font-family="Arial" font-size="10.00" fill="#ffffff">sdl_clrs_bright_inc</text>
<text text-anchor="middle" x="141.5" y="-335" font-family="Arial" font-size="10.00" fill="#ffffff">3.16%</text>
<text text-anchor="middle" x="141.5" y="-324" font-family="Arial" font-size="10.00" fill="#ffffff">(3.16%)</text>
<text text-anchor="middle" x="141.5" y="-313" font-family="Arial" font-size="10.00" fill="#ffffff">9157794×</text>
</g>
<!-- 6&#45;&gt;16 -->
<g id="edge15" class="edge"><title>6&#45;&gt;16</title>
<path fill="none" stroke="#0d1a77" stroke-width="0.5" d="M214.718,-428.376C211.139,-425.362 207.661,-422.208 204.5,-419 187.186,-401.428 170.823,-378.84 159.114,-361.224"/>
<polygon fill="#0d1a77" stroke="#0d1a77" stroke-width="0.5" points="160.08,-360.464 157.129,-358.218 158.036,-361.814 160.08,-360.464"/>
<text text-anchor="middle" x="226" y="-396" font-family="Arial" font-size="10.00" fill="#0d1a77">3.16%</text>
<text text-anchor="middle" x="226" y="-385" font-family="Arial" font-size="10.00" fill="#0d1a77">9157794×</text>
</g>
<!-- 11 -->
<g id="node18" class="node"><title>11</title>
<polygon fill="#0d367e" stroke="#0d367e" points="298.5,-144 228.5,-144 228.5,-92 298.5,-92 298.5,-144"/>
<text text-anchor="middle" x="263.5" y="-132" font-family="Arial" font-size="10.00" fill="#ffffff">v_len</text>
<text text-anchor="middle" x="263.5" y="-121" font-family="Arial" font-size="10.00" fill="#ffffff">9.12%</text>
<text text-anchor="middle" x="263.5" y="-110" font-family="Arial" font-size="10.00" fill="#ffffff">(4.68%)</text>
<text text-anchor="middle" x="263.5" y="-99" font-family="Arial" font-size="10.00" fill="#ffffff">130668330×</text>
</g>
<!-- 12&#45;&gt;11 -->
<g id="edge22" class="edge"><title>12&#45;&gt;11</title>
<path fill="none" stroke="#0d247a" stroke-width="0.5" d="M335.423,-213.844C320.62,-194.324 300.107,-167.273 284.775,-147.055"/>
<polygon fill="#0d247a" stroke="#0d247a" stroke-width="0.5" points="285.642,-146.171 282.551,-144.123 283.69,-147.652 285.642,-146.171"/>
<text text-anchor="middle" x="353" y="-182" font-family="Arial" font-size="10.00" fill="#0d247a">5.45%</text>
<text text-anchor="middle" x="353" y="-171" font-family="Arial" font-size="10.00" fill="#0d247a">78041179×</text>
</g>
<!-- 19 -->
<g id="node19" class="node"><title>19</title>
<polygon fill="#0d1274" stroke="#0d1274" points="579.5,-358 493.5,-358 493.5,-306 579.5,-306 579.5,-358"/>
<text text-anchor="middle" x="536.5" y="-346" font-family="Arial" font-size="10.00" fill="#ffffff">s_camera_rot_x</text>
<text text-anchor="middle" x="536.5" y="-335" font-family="Arial" font-size="10.00" fill="#ffffff">1.25%</text>
<text text-anchor="middle" x="536.5" y="-324" font-family="Arial" font-size="10.00" fill="#ffffff">(1.25%)</text>
<text text-anchor="middle" x="536.5" y="-313" font-family="Arial" font-size="10.00" fill="#ffffff">12800000×</text>
</g>
<!-- 14&#45;&gt;19 -->
<g id="edge24" class="edge"><title>14&#45;&gt;19</title>
<path fill="none" stroke="#0d1274" stroke-width="0.5" d="M506.173,-427.858C508.52,-425.029 510.683,-422.059 512.5,-419 522.878,-401.53 528.92,-379.402 532.346,-361.967"/>
<polygon fill="#0d1274" stroke="#0d1274" stroke-width="0.5" points="533.632,-361.763 533.08,-358.096 531.225,-361.307 533.632,-361.763"/>
<text text-anchor="middle" x="556" y="-396" font-family="Arial" font-size="10.00" fill="#0d1274">1.25%</text>
<text text-anchor="middle" x="556" y="-385" font-family="Arial" font-size="10.00" fill="#0d1274">12800000×</text>
</g>
<!-- 20 -->
<g id="node20" class="node"><title>20</title>
<polygon fill="#0d1174" stroke="#0d1174" points="674.5,-358 588.5,-358 588.5,-306 674.5,-306 674.5,-358"/>
<text text-anchor="middle" x="631.5" y="-346" font-family="Arial" font-size="10.00" fill="#ffffff">s_camera_rot_y</text>
<text text-anchor="middle" x="631.5" y="-335" font-family="Arial" font-size="10.00" fill="#ffffff">0.99%</text>
<text text-anchor="middle" x="631.5" y="-324" font-family="Arial" font-size="10.00" fill="#ffffff">(0.99%)</text>
<text text-anchor="middle" x="631.5" y="-313" font-family="Arial" font-size="10.00" fill="#ffffff">12160000×</text>
</g>
<!-- 14&#45;&gt;20 -->
<g id="edge25" class="edge"><title>14&#45;&gt;20</title>
<path fill="none" stroke="#0d1174" stroke-width="0.5" d="M522.677,-446.012C542.683,-441.109 565.482,-432.847 582.5,-419 600.744,-404.155 613.487,-380.6 621.395,-361.892"/>
<polygon fill="#0d1174" stroke="#0d1174" stroke-width="0.5" points="622.709,-361.921 622.913,-358.219 620.444,-360.986 622.709,-361.921"/>
<text text-anchor="middle" x="644" y="-396" font-family="Arial" font-size="10.00" fill="#0d1174">0.99%</text>
<text text-anchor="middle" x="644" y="-385" font-family="Arial" font-size="10.00" fill="#0d1174">12160000×</text>
</g>
<!-- 21 -->
<g id="node21" class="node"><title>21</title>
<polygon fill="#0d1074" stroke="#0d1074" points="484.5,-358 398.5,-358 398.5,-306 484.5,-306 484.5,-358"/>
<text text-anchor="middle" x="441.5" y="-346" font-family="Arial" font-size="10.00" fill="#ffffff">s_camera_rot_z</text>
<text text-anchor="middle" x="441.5" y="-335" font-family="Arial" font-size="10.00" fill="#ffffff">0.86%</text>
<text text-anchor="middle" x="441.5" y="-324" font-family="Arial" font-size="10.00" fill="#ffffff">(0.86%)</text>
<text text-anchor="middle" x="441.5" y="-313" font-family="Arial" font-size="10.00" fill="#ffffff">7040000×</text>
</g>
<!-- 14&#45;&gt;21 -->
<g id="edge26" class="edge"><title>14&#45;&gt;21</title>
<path fill="none" stroke="#0d1074" stroke-width="0.5" d="M469.953,-427.844C464.145,-408.484 456.115,-381.716 450.066,-361.553"/>
<polygon fill="#0d1074" stroke="#0d1074" stroke-width="0.5" points="451.216,-361.123 449.037,-358.123 448.869,-361.827 451.216,-361.123"/>
<text text-anchor="middle" x="489" y="-396" font-family="Arial" font-size="10.00" fill="#0d1074">0.86%</text>
<text text-anchor="middle" x="489" y="-385" font-family="Arial" font-size="10.00" fill="#0d1074">7040000×</text>
</g>
<!-- 18 -->
<g id="node22" class="node"><title>18</title>
<polygon fill="#0d1375" stroke="#0d1375" points="755,-358 684,-358 684,-306 755,-306 755,-358"/>
<text text-anchor="middle" x="719.5" y="-346" font-family="Arial" font-size="10.00" fill="#ffffff">rt_uv_sphere</text>
<text text-anchor="middle" x="719.5" y="-335" font-family="Arial" font-size="10.00" fill="#ffffff">1.58%</text>
<text text-anchor="middle" x="719.5" y="-324" font-family="Arial" font-size="10.00" fill="#ffffff">(1.58%)</text>
<text text-anchor="middle" x="719.5" y="-313" font-family="Arial" font-size="10.00" fill="#ffffff">9531964×</text>
</g>
<!-- 17&#45;&gt;18 -->
<g id="edge27" class="edge"><title>17&#45;&gt;18</title>
<path fill="none" stroke="#0d1375" stroke-width="0.5" d="M671.264,-427.637C673.588,-424.892 675.717,-422 677.5,-419 689.672,-398.522 679.593,-388.179 690.5,-367 691.526,-365.008 692.689,-363.034 693.946,-361.097"/>
<polygon fill="#0d1375" stroke="#0d1375" stroke-width="0.5" points="695.036,-361.672 695.991,-358.088 693.01,-360.294 695.036,-361.672"/>
<text text-anchor="middle" x="712" y="-396" font-family="Arial" font-size="10.00" fill="#0d1375">1.49%</text>
<text text-anchor="middle" x="712" y="-385" font-family="Arial" font-size="10.00" fill="#0d1375">8989805×</text>
</g>
<!-- 9 -->
<g id="node17" class="node"><title>9</title>
<polygon fill="#0c9b7b" stroke="#0c9b7b" points="239.5,-52 169.5,-52 169.5,-0 239.5,-0 239.5,-52"/>
<text text-anchor="middle" x="204.5" y="-40" font-family="Arial" font-size="10.00" fill="#ffffff">v_dot</text>
<text text-anchor="middle" x="204.5" y="-29" font-family="Arial" font-size="10.00" fill="#ffffff">30.59%</text>
<text text-anchor="middle" x="204.5" y="-18" font-family="Arial" font-size="10.00" fill="#ffffff">(30.59%)</text>
<text text-anchor="middle" x="204.5" y="-7" font-family="Arial" font-size="10.00" fill="#ffffff">900529087×</text>
</g>
<!-- 22&#45;&gt;9 -->
<g id="edge28" class="edge"><title>22&#45;&gt;9</title>
<path fill="none" stroke="#0d0e73" stroke-width="0.5" d="M778.476,-366.58C776.21,-345.341 773.5,-314.24 773.5,-287 773.5,-287 773.5,-287 773.5,-117 773.5,-63.211 371.683,-36.2684 243.38,-29.0365"/>
<polygon fill="#0d0e73" stroke="#0d0e73" stroke-width="0.5" points="243.227,-27.8011 239.664,-28.8283 243.09,-30.2473 243.227,-27.8011"/>
<text text-anchor="middle" x="795" y="-243" font-family="Arial" font-size="10.00" fill="#0d0e73">0.26%</text>
<text text-anchor="middle" x="795" y="-232" font-family="Arial" font-size="10.00" fill="#0d0e73">7548412×</text>
</g>
<!-- 8 -->
<g id="node16" class="node"><title>8</title>
<polygon fill="#0c9c78" stroke="#0c9c78" points="181,-144 100,-144 100,-92 181,-92 181,-144"/>
<text text-anchor="middle" x="140.5" y="-132" font-family="Arial" font-size="10.00" fill="#ffffff">rt_inter_sphere</text>
<text text-anchor="middle" x="140.5" y="-121" font-family="Arial" font-size="10.00" fill="#ffffff">31.29%</text>
<text text-anchor="middle" x="140.5" y="-110" font-family="Arial" font-size="10.00" fill="#ffffff">(10.02%)</text>
<text text-anchor="middle" x="140.5" y="-99" font-family="Arial" font-size="10.00" fill="#ffffff">208738920×</text>
</g>
<!-- 7&#45;&gt;8 -->
<g id="edge16" class="edge"><title>7&#45;&gt;8</title>
<path fill="none" stroke="#0c9c78" stroke-width="1.25" d="M118.37,-213.844C122.719,-195.204 128.671,-169.697 133.306,-149.829"/>
<polygon fill="#0c9c78" stroke="#0c9c78" stroke-width="1.25" points="135.274,-150.022 134.638,-144.123 131.457,-149.131 135.274,-150.022"/>
<text text-anchor="middle" x="159.5" y="-182" font-family="Arial" font-size="10.00" fill="#0c9c78">31.29%</text>
<text text-anchor="middle" x="159.5" y="-171" font-family="Arial" font-size="10.00" fill="#0c9c78">208738920×</text>
</g>
<!-- 13&#45;&gt;9 -->
<g id="edge23" class="edge"><title>13&#45;&gt;9</title>
<path fill="none" stroke="#0d1976" stroke-width="0.5" d="M36.3063,-152.703C33.9805,-134.209 34.0859,-109.415 46.5,-92 73.9369,-53.5103 128.441,-37.7524 165.681,-31.3402"/>
<polygon fill="#0d1976" stroke="#0d1976" stroke-width="0.5" points="165.979,-32.5325 169.23,-30.7484 165.576,-30.1159 165.979,-32.5325"/>
<text text-anchor="middle" x="71" y="-121" font-family="Arial" font-size="10.00" fill="#0d1976">2.83%</text>
<text text-anchor="middle" x="71" y="-110" font-family="Arial" font-size="10.00" fill="#0d1976">83467603×</text>
</g>
<!-- 10&#45;&gt;12 -->
<g id="edge20" class="edge"><title>10&#45;&gt;12</title>
<path fill="none" stroke="#0d1c77" stroke-width="0.5" d="M278.748,-305.93C292.288,-294.325 308.413,-280.503 322.298,-268.601"/>
<polygon fill="#0d1c77" stroke="#0d1c77" stroke-width="0.5" points="323.184,-269.456 325.044,-266.248 321.59,-267.595 323.184,-269.456"/>
<text text-anchor="middle" x="339" y="-289" font-family="Arial" font-size="10.00" fill="#0d1c77">3.57%</text>
<text text-anchor="middle" x="339" y="-278" font-family="Arial" font-size="10.00" fill="#0d1c77">35085089×</text>
</g>
<!-- 10&#45;&gt;9 -->
<g id="edge18" class="edge"><title>10&#45;&gt;9</title>
<path fill="none" stroke="#0d1475" stroke-width="0.5" d="M238.446,-305.531C228.199,-280.49 213.639,-240.911 207.5,-205 198.632,-153.119 200.234,-91.4953 202.302,-56.0486"/>
<polygon fill="#0d1475" stroke="#0d1475" stroke-width="0.5" points="203.541,-55.8473 202.529,-52.2798 201.095,-55.6997 203.541,-55.8473"/>
<text text-anchor="middle" x="232" y="-182" font-family="Arial" font-size="10.00" fill="#0d1475">1.79%</text>
<text text-anchor="middle" x="232" y="-171" font-family="Arial" font-size="10.00" fill="#0d1475">52627982×</text>
</g>
<!-- 10&#45;&gt;11 -->
<g id="edge19" class="edge"><title>10&#45;&gt;11</title>
<path fill="none" stroke="#0d1c77" stroke-width="0.5" d="M251.161,-305.848C253.776,-266.242 258.84,-189.562 261.598,-147.803"/>
<polygon fill="#0d1c77" stroke="#0d1c77" stroke-width="0.5" points="262.833,-147.692 261.841,-144.119 260.388,-147.531 262.833,-147.692"/>
<text text-anchor="middle" x="282" y="-243" font-family="Arial" font-size="10.00" fill="#0d1c77">3.67%</text>
<text text-anchor="middle" x="282" y="-232" font-family="Arial" font-size="10.00" fill="#0d1c77">52627151×</text>
</g>
<!-- 8&#45;&gt;9 -->
<g id="edge17" class="edge"><title>8&#45;&gt;9</title>
<path fill="none" stroke="#0c7b8e" stroke-width="0.85" d="M136.782,-91.9983C136.479,-81.7028 137.83,-70.0858 143.5,-61 148.685,-52.6911 156.672,-46.2404 165.176,-41.3027"/>
<polygon fill="#0c7b8e" stroke="#0c7b8e" stroke-width="0.85" points="166.121,-42.6207 169.382,-38.9987 164.574,-39.7966 166.121,-42.6207"/>
<text text-anchor="middle" x="170.5" y="-75" font-family="Arial" font-size="10.00" fill="#0c7b8e">21.27%</text>
<text text-anchor="middle" x="170.5" y="-64" font-family="Arial" font-size="10.00" fill="#0c7b8e">626216760×</text>
</g>
<!-- 11&#45;&gt;9 -->
<g id="edge21" class="edge"><title>11&#45;&gt;9</title>
<path fill="none" stroke="#0d2078" stroke-width="0.5" d="M247.065,-91.93C239.584,-80.5182 230.698,-66.9634 222.985,-55.198"/>
<polygon fill="#0d2078" stroke="#0d2078" stroke-width="0.5" points="223.995,-54.5032 221.051,-52.2477 221.946,-55.8465 223.995,-54.5032"/>
<text text-anchor="middle" x="268.5" y="-75" font-family="Arial" font-size="10.00" fill="#0d2078">4.44%</text>
<text text-anchor="middle" x="268.5" y="-64" font-family="Arial" font-size="10.00" fill="#0d2078">130668330×</text>
</g>
</g>
</svg>
