<?xml version="1.0" encoding="UTF-8" standalone="no"?>
<!DOCTYPE svg PUBLIC "-//W3C//DTD SVG 1.1//EN"
 "http://www.w3.org/Graphics/SVG/1.1/DTD/svg11.dtd">
<!-- Generated by graphviz version 2.38.0 (20140413.2041)
 -->
<!-- Title: %3 Pages: 1 -->
<svg width="668pt" height="693pt"
 viewBox="0.00 0.00 667.50 693.00" xmlns="http://www.w3.org/2000/svg" xmlns:xlink="http://www.w3.org/1999/xlink">
<g id="graph0" class="graph" transform="scale(1 1) rotate(0) translate(4 689)">
<title>%3</title>
<polygon fill="white" stroke="none" points="-4,4 -4,-689 663.5,-689 663.5,4 -4,4"/>
<!-- 1 -->
<g id="node1" class="node"><title>1</title>
<polygon fill="#d3d906" stroke="#d3d906" points="396,-685 346,-685 346,-644 396,-644 396,-685"/>
<text text-anchor="middle" x="371" y="-673" font-family="Arial" font-size="10.00" fill="#ffffff">main</text>
<text text-anchor="middle" x="371" y="-662" font-family="Arial" font-size="10.00" fill="#ffffff">74.38%</text>
<text text-anchor="middle" x="371" y="-651" font-family="Arial" font-size="10.00" fill="#ffffff">(0.00%)</text>
</g>
<!-- 2 -->
<g id="node2" class="node"><title>2</title>
<polygon fill="#d3d906" stroke="#d3d906" points="419,-604 323,-604 323,-552 419,-552 419,-604"/>
<text text-anchor="middle" x="371" y="-592" font-family="Arial" font-size="10.00" fill="#ffffff">rt_sdl_render_loop</text>
<text text-anchor="middle" x="371" y="-581" font-family="Arial" font-size="10.00" fill="#ffffff">74.29%</text>
<text text-anchor="middle" x="371" y="-570" font-family="Arial" font-size="10.00" fill="#ffffff">(0.00%)</text>
<text text-anchor="middle" x="371" y="-559" font-family="Arial" font-size="10.00" fill="#ffffff">1×</text>
</g>
<!-- 1&#45;&gt;2 -->
<g id="edge1" class="edge"><title>1&#45;&gt;2</title>
<path fill="none" stroke="#d3d906" stroke-width="2.97" d="M371,-643.902C371,-634.684 371,-623.424 371,-612.887"/>
<polygon fill="#d3d906" stroke="#d3d906" stroke-width="2.97" points="374.01,-612.867 371,-604.267 367.99,-612.867 374.01,-612.867"/>
<text text-anchor="middle" x="388" y="-627" font-family="Arial" font-size="10.00" fill="#d3d906">74.29%</text>
<text text-anchor="middle" x="388" y="-616" font-family="Arial" font-size="10.00" fill="#d3d906">1×</text>
</g>
<!-- 3 -->
<g id="node3" class="node"><title>3</title>
<polygon fill="#cfd806" stroke="#cfd806" points="405,-512 337,-512 337,-460 405,-460 405,-512"/>
<text text-anchor="middle" x="371" y="-500" font-family="Arial" font-size="10.00" fill="#ffffff">rt_rendering</text>
<text text-anchor="middle" x="371" y="-489" font-family="Arial" font-size="10.00" fill="#ffffff">73.90%</text>
<text text-anchor="middle" x="371" y="-478" font-family="Arial" font-size="10.00" fill="#ffffff">(6.56%)</text>
<text text-anchor="middle" x="371" y="-467" font-family="Arial" font-size="10.00" fill="#ffffff">402×</text>
</g>
<!-- 2&#45;&gt;3 -->
<g id="edge2" class="edge"><title>2&#45;&gt;3</title>
<path fill="none" stroke="#cfd806" stroke-width="2.96" d="M371,-551.93C371,-542.356 371,-531.273 371,-521.004"/>
<polygon fill="#cfd806" stroke="#cfd806" stroke-width="2.96" points="374.01,-520.848 371,-512.248 367.99,-520.848 374.01,-520.848"/>
<text text-anchor="middle" x="388" y="-535" font-family="Arial" font-size="10.00" fill="#cfd806">73.90%</text>
<text text-anchor="middle" x="388" y="-524" font-family="Arial" font-size="10.00" fill="#cfd806">402×</text>
</g>
<!-- 4 -->
<g id="node4" class="node"><title>4</title>
<polygon fill="#89cd07" stroke="#89cd07" points="362.5,-420 291.5,-420 291.5,-368 362.5,-368 362.5,-420"/>
<text text-anchor="middle" x="327" y="-408" font-family="Arial" font-size="10.00" fill="#ffffff">rt_raytracing</text>
<text text-anchor="middle" x="327" y="-397" font-family="Arial" font-size="10.00" fill="#ffffff">66.44%</text>
<text text-anchor="middle" x="327" y="-386" font-family="Arial" font-size="10.00" fill="#ffffff">(6.52%)</text>
<text text-anchor="middle" x="327" y="-375" font-family="Arial" font-size="10.00" fill="#ffffff">128640000×</text>
</g>
<!-- 3&#45;&gt;4 -->
<g id="edge3" class="edge"><title>3&#45;&gt;4</title>
<path fill="none" stroke="#89cd07" stroke-width="2.66" d="M337.695,-459.641C335.499,-456.928 333.55,-454.041 332,-451 328.484,-444.103 326.667,-436.104 325.833,-428.349"/>
<polygon fill="#89cd07" stroke="#89cd07" stroke-width="2.66" points="328.692,-428.082 325.281,-420.092 322.965,-428.465 328.692,-428.082"/>
<text text-anchor="middle" x="359" y="-443" font-family="Arial" font-size="10.00" fill="#89cd07">66.44%</text>
<text text-anchor="middle" x="359" y="-432" font-family="Arial" font-size="10.00" fill="#89cd07">128640000×</text>
</g>
<!-- 19 -->
<g id="node5" class="node"><title>19</title>
<polygon fill="#0d1074" stroke="#0d1074" points="440,-420 372,-420 372,-368 440,-368 440,-420"/>
<text text-anchor="middle" x="406" y="-408" font-family="Arial" font-size="10.00" fill="#ffffff">sdl_pixelput</text>
<text text-anchor="middle" x="406" y="-397" font-family="Arial" font-size="10.00" fill="#ffffff">0.69%</text>
<text text-anchor="middle" x="406" y="-386" font-family="Arial" font-size="10.00" fill="#ffffff">(0.69%)</text>
<text text-anchor="middle" x="406" y="-375" font-family="Arial" font-size="10.00" fill="#ffffff">25792071×</text>
</g>
<!-- 3&#45;&gt;19 -->
<g id="edge4" class="edge"><title>3&#45;&gt;19</title>
<path fill="none" stroke="#0d1074" stroke-width="0.5" d="M384.062,-459.947C385.458,-456.962 386.804,-453.933 388,-451 391.544,-442.313 394.862,-432.648 397.661,-423.827"/>
<polygon fill="#0d1074" stroke="#0d1074" stroke-width="0.5" points="398.95,-423.809 398.828,-420.103 396.612,-423.077 398.95,-423.809"/>
<text text-anchor="middle" x="420.5" y="-443" font-family="Arial" font-size="10.00" fill="#0d1074">0.69%</text>
<text text-anchor="middle" x="420.5" y="-432" font-family="Arial" font-size="10.00" fill="#0d1074">25792071×</text>
</g>
<!-- 5 -->
<g id="node6" class="node"><title>5</title>
<polygon fill="#0c968c" stroke="#0c968c" points="368.5,-236 285.5,-236 285.5,-184 368.5,-184 368.5,-236"/>
<text text-anchor="middle" x="327" y="-224" font-family="Arial" font-size="10.00" fill="#ffffff">rt_closest_inter</text>
<text text-anchor="middle" x="327" y="-213" font-family="Arial" font-size="10.00" fill="#ffffff">26.75%</text>
<text text-anchor="middle" x="327" y="-202" font-family="Arial" font-size="10.00" fill="#ffffff">(9.53%)</text>
<text text-anchor="middle" x="327" y="-191" font-family="Arial" font-size="10.00" fill="#ffffff">152599289×</text>
</g>
<!-- 4&#45;&gt;5 -->
<g id="edge5" class="edge"><title>4&#45;&gt;5</title>
<path fill="none" stroke="#0c8390" stroke-width="0.9" d="M327,-367.694C327,-334.552 327,-276.518 327,-241.141"/>
<polygon fill="#0c8390" stroke="#0c8390" stroke-width="0.9" points="328.645,-240.791 327,-236.091 325.355,-240.791 328.645,-240.791"/>
<text text-anchor="middle" x="354" y="-305" font-family="Arial" font-size="10.00" fill="#0c8390">22.55%</text>
<text text-anchor="middle" x="354" y="-294" font-family="Arial" font-size="10.00" fill="#0c8390">128640000×</text>
</g>
<!-- 6 -->
<g id="node7" class="node"><title>6</title>
<polygon fill="#0c7e8f" stroke="#0c7e8f" points="214,-328 124,-328 124,-276 214,-276 214,-328"/>
<text text-anchor="middle" x="169" y="-316" font-family="Arial" font-size="10.00" fill="#ffffff">rt_camera_rotate</text>
<text text-anchor="middle" x="169" y="-305" font-family="Arial" font-size="10.00" fill="#ffffff">21.72%</text>
<text text-anchor="middle" x="169" y="-294" font-family="Arial" font-size="10.00" fill="#ffffff">(6.61%)</text>
<text text-anchor="middle" x="169" y="-283" font-family="Arial" font-size="10.00" fill="#ffffff">128640000×</text>
</g>
<!-- 4&#45;&gt;6 -->
<g id="edge6" class="edge"><title>4&#45;&gt;6</title>
<path fill="none" stroke="#0c7e8f" stroke-width="0.87" d="M291.468,-373.314C283.101,-368.646 274.225,-363.666 266,-359 249.922,-349.879 232.409,-339.81 216.744,-330.755"/>
<polygon fill="#0c7e8f" stroke="#0c7e8f" stroke-width="0.87" points="217.27,-329.158 212.378,-328.229 215.623,-332.006 217.27,-329.158"/>
<text text-anchor="middle" x="293" y="-351" font-family="Arial" font-size="10.00" fill="#0c7e8f">21.72%</text>
<text text-anchor="middle" x="293" y="-340" font-family="Arial" font-size="10.00" fill="#0c7e8f">128640000×</text>
</g>
<!-- 8 -->
<g id="node8" class="node"><title>8</title>
<polygon fill="#0c5787" stroke="#0c5787" points="459.5,-328 394.5,-328 394.5,-276 459.5,-276 459.5,-328"/>
<text text-anchor="middle" x="427" y="-316" font-family="Arial" font-size="10.00" fill="#ffffff">rt_lightning</text>
<text text-anchor="middle" x="427" y="-305" font-family="Arial" font-size="10.00" fill="#ffffff">15.31%</text>
<text text-anchor="middle" x="427" y="-294" font-family="Arial" font-size="10.00" fill="#ffffff">(1.48%)</text>
<text text-anchor="middle" x="427" y="-283" font-family="Arial" font-size="10.00" fill="#ffffff">24343582×</text>
</g>
<!-- 4&#45;&gt;8 -->
<g id="edge7" class="edge"><title>4&#45;&gt;8</title>
<path fill="none" stroke="#0c5787" stroke-width="0.61" d="M354.856,-367.93C367.643,-356.421 382.852,-342.734 396.001,-330.899"/>
<polygon fill="#0c5787" stroke="#0c5787" stroke-width="0.61" points="396.961,-331.871 398.947,-328.248 395.135,-329.842 396.961,-331.871"/>
<text text-anchor="middle" x="413.5" y="-351" font-family="Arial" font-size="10.00" fill="#0c5787">15.31%</text>
<text text-anchor="middle" x="413.5" y="-340" font-family="Arial" font-size="10.00" fill="#0c5787">24343582×</text>
</g>
<!-- 7 -->
<g id="node9" class="node"><title>7</title>
<polygon fill="#0c6289" stroke="#0c6289" points="365.5,-144 288.5,-144 288.5,-92 365.5,-92 365.5,-144"/>
<text text-anchor="middle" x="327" y="-132" font-family="Arial" font-size="10.00" fill="#ffffff">s_intersection</text>
<text text-anchor="middle" x="327" y="-121" font-family="Arial" font-size="10.00" fill="#ffffff">17.23%</text>
<text text-anchor="middle" x="327" y="-110" font-family="Arial" font-size="10.00" fill="#ffffff">(12.14%)</text>
<text text-anchor="middle" x="327" y="-99" font-family="Arial" font-size="10.00" fill="#ffffff">152599289×</text>
</g>
<!-- 5&#45;&gt;7 -->
<g id="edge8" class="edge"><title>5&#45;&gt;7</title>
<path fill="none" stroke="#0c6289" stroke-width="0.69" d="M327,-183.93C327,-173.002 327,-160.108 327,-148.703"/>
<polygon fill="#0c6289" stroke="#0c6289" stroke-width="0.69" points="328.47,-148.448 327,-144.248 325.53,-148.448 328.47,-148.448"/>
<text text-anchor="middle" x="354" y="-167" font-family="Arial" font-size="10.00" fill="#0c6289">17.23%</text>
<text text-anchor="middle" x="354" y="-156" font-family="Arial" font-size="10.00" fill="#0c6289">152599289×</text>
</g>
<!-- 12 -->
<g id="node10" class="node"><title>12</title>
<polygon fill="#0d2379" stroke="#0d2379" points="181,-236 95,-236 95,-184 181,-184 181,-236"/>
<text text-anchor="middle" x="138" y="-224" font-family="Arial" font-size="10.00" fill="#ffffff">s_camera_rot_z</text>
<text text-anchor="middle" x="138" y="-213" font-family="Arial" font-size="10.00" fill="#ffffff">5.23%</text>
<text text-anchor="middle" x="138" y="-202" font-family="Arial" font-size="10.00" fill="#ffffff">(5.23%)</text>
<text text-anchor="middle" x="138" y="-191" font-family="Arial" font-size="10.00" fill="#ffffff">66240000×</text>
</g>
<!-- 6&#45;&gt;12 -->
<g id="edge9" class="edge"><title>6&#45;&gt;12</title>
<path fill="none" stroke="#0d2379" stroke-width="0.5" d="M160.365,-275.93C156.501,-264.712 151.923,-251.422 147.919,-239.798"/>
<polygon fill="#0d2379" stroke="#0d2379" stroke-width="0.5" points="148.995,-239.158 146.696,-236.248 146.678,-239.956 148.995,-239.158"/>
<text text-anchor="middle" x="182.5" y="-259" font-family="Arial" font-size="10.00" fill="#0d2379">5.23%</text>
<text text-anchor="middle" x="182.5" y="-248" font-family="Arial" font-size="10.00" fill="#0d2379">66240000×</text>
</g>
<!-- 13 -->
<g id="node11" class="node"><title>13</title>
<polygon fill="#0d2379" stroke="#0d2379" points="276,-236 190,-236 190,-184 276,-184 276,-236"/>
<text text-anchor="middle" x="233" y="-224" font-family="Arial" font-size="10.00" fill="#ffffff">s_camera_rot_x</text>
<text text-anchor="middle" x="233" y="-213" font-family="Arial" font-size="10.00" fill="#ffffff">5.13%</text>
<text text-anchor="middle" x="233" y="-202" font-family="Arial" font-size="10.00" fill="#ffffff">(5.13%)</text>
<text text-anchor="middle" x="233" y="-191" font-family="Arial" font-size="10.00" fill="#ffffff">69440000×</text>
</g>
<!-- 6&#45;&gt;13 -->
<g id="edge10" class="edge"><title>6&#45;&gt;13</title>
<path fill="none" stroke="#0d2379" stroke-width="0.5" d="M201.359,-275.903C204.124,-273.065 206.728,-270.08 209,-267 215.096,-258.737 220.02,-248.688 223.784,-239.396"/>
<polygon fill="#0d2379" stroke="#0d2379" stroke-width="0.5" points="224.974,-239.716 225.118,-236.011 222.695,-238.818 224.974,-239.716"/>
<text text-anchor="middle" x="246.5" y="-259" font-family="Arial" font-size="10.00" fill="#0d2379">5.13%</text>
<text text-anchor="middle" x="246.5" y="-248" font-family="Arial" font-size="10.00" fill="#0d2379">69440000×</text>
</g>
<!-- 15 -->
<g id="node12" class="node"><title>15</title>
<polygon fill="#0d2179" stroke="#0d2179" points="86,-236 0,-236 0,-184 86,-184 86,-236"/>
<text text-anchor="middle" x="43" y="-224" font-family="Arial" font-size="10.00" fill="#ffffff">s_camera_rot_y</text>
<text text-anchor="middle" x="43" y="-213" font-family="Arial" font-size="10.00" fill="#ffffff">4.74%</text>
<text text-anchor="middle" x="43" y="-202" font-family="Arial" font-size="10.00" fill="#ffffff">(4.74%)</text>
<text text-anchor="middle" x="43" y="-191" font-family="Arial" font-size="10.00" fill="#ffffff">67520000×</text>
</g>
<!-- 6&#45;&gt;15 -->
<g id="edge11" class="edge"><title>6&#45;&gt;15</title>
<path fill="none" stroke="#0d2179" stroke-width="0.5" d="M123.67,-281.734C115.179,-277.37 106.594,-272.407 99,-267 87.7335,-258.978 76.6745,-248.613 67.3995,-238.986"/>
<polygon fill="#0d2179" stroke="#0d2179" stroke-width="0.5" points="67.881,-237.715 64.5801,-236.025 66.1067,-239.405 67.881,-237.715"/>
<text text-anchor="middle" x="123.5" y="-259" font-family="Arial" font-size="10.00" fill="#0d2179">4.74%</text>
<text text-anchor="middle" x="123.5" y="-248" font-family="Arial" font-size="10.00" fill="#0d2179">67520000×</text>
</g>
<!-- 8&#45;&gt;5 -->
<g id="edge13" class="edge"><title>8&#45;&gt;5</title>
<path fill="none" stroke="#0d1f78" stroke-width="0.5" d="M394.492,-281.2C388.133,-276.816 381.68,-271.982 376,-267 366.406,-258.586 356.92,-248.327 348.888,-238.9"/>
<polygon fill="#0d1f78" stroke="#0d1f78" stroke-width="0.5" points="349.637,-237.888 346.443,-236.004 347.765,-239.469 349.637,-237.888"/>
<text text-anchor="middle" x="400.5" y="-259" font-family="Arial" font-size="10.00" fill="#0d1f78">4.20%</text>
<text text-anchor="middle" x="400.5" y="-248" font-family="Arial" font-size="10.00" fill="#0d1f78">23959289×</text>
</g>
<!-- 16 -->
<g id="node14" class="node"><title>16</title>
<polygon fill="#0d1d78" stroke="#0d1d78" points="476,-236 378,-236 378,-184 476,-184 476,-236"/>
<text text-anchor="middle" x="427" y="-224" font-family="Arial" font-size="10.00" fill="#ffffff">sdl_clrs_bright_inc</text>
<text text-anchor="middle" x="427" y="-213" font-family="Arial" font-size="10.00" fill="#ffffff">3.90%</text>
<text text-anchor="middle" x="427" y="-202" font-family="Arial" font-size="10.00" fill="#ffffff">(3.90%)</text>
<text text-anchor="middle" x="427" y="-191" font-family="Arial" font-size="10.00" fill="#ffffff">21579660×</text>
</g>
<!-- 8&#45;&gt;16 -->
<g id="edge14" class="edge"><title>8&#45;&gt;16</title>
<path fill="none" stroke="#0d1d78" stroke-width="0.5" d="M427,-275.93C427,-264.712 427,-251.422 427,-239.798"/>
<polygon fill="#0d1d78" stroke="#0d1d78" stroke-width="0.5" points="428.225,-239.748 427,-236.248 425.775,-239.748 428.225,-239.748"/>
<text text-anchor="middle" x="451.5" y="-259" font-family="Arial" font-size="10.00" fill="#0d1d78">3.90%</text>
<text text-anchor="middle" x="451.5" y="-248" font-family="Arial" font-size="10.00" fill="#0d1d78">21579660×</text>
</g>
<!-- 17 -->
<g id="node15" class="node"><title>17</title>
<polygon fill="#0d1a77" stroke="#0d1a77" points="585,-236 485,-236 485,-184 585,-184 585,-236"/>
<text text-anchor="middle" x="535" y="-224" font-family="Arial" font-size="10.00" fill="#ffffff">s_calc_light_intens</text>
<text text-anchor="middle" x="535" y="-213" font-family="Arial" font-size="10.00" fill="#ffffff">3.11%</text>
<text text-anchor="middle" x="535" y="-202" font-family="Arial" font-size="10.00" fill="#ffffff">(3.11%)</text>
<text text-anchor="middle" x="535" y="-191" font-family="Arial" font-size="10.00" fill="#ffffff">21697329×</text>
</g>
<!-- 8&#45;&gt;17 -->
<g id="edge15" class="edge"><title>8&#45;&gt;17</title>
<path fill="none" stroke="#0d1a77" stroke-width="0.5" d="M459.76,-280.49C465.969,-276.234 472.301,-271.63 478,-267 488.538,-258.438 499.35,-248.238 508.686,-238.903"/>
<polygon fill="#0d1a77" stroke="#0d1a77" stroke-width="0.5" points="509.936,-239.383 511.534,-236.036 508.198,-237.656 509.936,-239.383"/>
<text text-anchor="middle" x="527.5" y="-259" font-family="Arial" font-size="10.00" fill="#0d1a77">3.11%</text>
<text text-anchor="middle" x="527.5" y="-248" font-family="Arial" font-size="10.00" fill="#0d1a77">21697329×</text>
</g>
<!-- 18 -->
<g id="node16" class="node"><title>18</title>
<polygon fill="#0d1876" stroke="#0d1876" points="659.5,-236 594.5,-236 594.5,-184 659.5,-184 659.5,-236"/>
<text text-anchor="middle" x="627" y="-224" font-family="Arial" font-size="10.00" fill="#ffffff">sdl_clr_div</text>
<text text-anchor="middle" x="627" y="-213" font-family="Arial" font-size="10.00" fill="#ffffff">2.62%</text>
<text text-anchor="middle" x="627" y="-202" font-family="Arial" font-size="10.00" fill="#ffffff">(2.62%)</text>
<text text-anchor="middle" x="627" y="-191" font-family="Arial" font-size="10.00" fill="#ffffff">24343582×</text>
</g>
<!-- 8&#45;&gt;18 -->
<g id="edge16" class="edge"><title>8&#45;&gt;18</title>
<path fill="none" stroke="#0d1876" stroke-width="0.5" d="M459.56,-295.927C485.987,-290.966 523.7,-281.936 554,-267 569.185,-259.515 584.308,-248.629 596.819,-238.442"/>
<polygon fill="#0d1876" stroke="#0d1876" stroke-width="0.5" points="597.687,-239.314 599.611,-236.144 596.13,-237.422 597.687,-239.314"/>
<text text-anchor="middle" x="612.5" y="-259" font-family="Arial" font-size="10.00" fill="#0d1876">2.62%</text>
<text text-anchor="middle" x="612.5" y="-248" font-family="Arial" font-size="10.00" fill="#0d1876">24343582×</text>
</g>
<!-- 14 -->
<g id="node13" class="node"><title>14</title>
<polygon fill="#0d2379" stroke="#0d2379" points="367.5,-52 286.5,-52 286.5,-0 367.5,-0 367.5,-52"/>
<text text-anchor="middle" x="327" y="-40" font-family="Arial" font-size="10.00" fill="#ffffff">rt_inter_sphere</text>
<text text-anchor="middle" x="327" y="-29" font-family="Arial" font-size="10.00" fill="#ffffff">5.08%</text>
<text text-anchor="middle" x="327" y="-18" font-family="Arial" font-size="10.00" fill="#ffffff">(5.08%)</text>
<text text-anchor="middle" x="327" y="-7" font-family="Arial" font-size="10.00" fill="#ffffff">152599289×</text>
</g>
<!-- 7&#45;&gt;14 -->
<g id="edge12" class="edge"><title>7&#45;&gt;14</title>
<path fill="none" stroke="#0d2379" stroke-width="0.5" d="M327,-91.93C327,-80.7116 327,-67.4223 327,-55.7978"/>
<polygon fill="#0d2379" stroke="#0d2379" stroke-width="0.5" points="328.225,-55.7477 327,-52.2477 325.775,-55.7478 328.225,-55.7477"/>
<text text-anchor="middle" x="354" y="-75" font-family="Arial" font-size="10.00" fill="#0d2379">5.08%</text>
<text text-anchor="middle" x="354" y="-64" font-family="Arial" font-size="10.00" fill="#0d2379">152599289×</text>
</g>
<!-- 9 -->
<g id="node17" class="node"><title>9</title>
<polygon fill="#0d3d80" stroke="#0d3d80" points="461,-685 405,-685 405,-644 461,-644 461,-685"/>
<text text-anchor="middle" x="433" y="-673" font-family="Arial" font-size="10.00" fill="#ffffff">v_dot</text>
<text text-anchor="middle" x="433" y="-662" font-family="Arial" font-size="10.00" fill="#ffffff">10.46%</text>
<text text-anchor="middle" x="433" y="-651" font-family="Arial" font-size="10.00" fill="#ffffff">(10.46%)</text>
</g>
<!-- 10 -->
<g id="node18" class="node"><title>10</title>
<polygon fill="#0d2e7c" stroke="#0d2e7c" points="520,-685 470,-685 470,-644 520,-644 520,-685"/>
<text text-anchor="middle" x="495" y="-673" font-family="Arial" font-size="10.00" fill="#ffffff">v_len</text>
<text text-anchor="middle" x="495" y="-662" font-family="Arial" font-size="10.00" fill="#ffffff">7.45%</text>
<text text-anchor="middle" x="495" y="-651" font-family="Arial" font-size="10.00" fill="#ffffff">(7.45%)</text>
</g>
<!-- 11 -->
<g id="node19" class="node"><title>11</title>
<polygon fill="#0d2e7c" stroke="#0d2e7c" points="579,-685 529,-685 529,-644 579,-644 579,-685"/>
<text text-anchor="middle" x="554" y="-673" font-family="Arial" font-size="10.00" fill="#ffffff">v_norm</text>
<text text-anchor="middle" x="554" y="-662" font-family="Arial" font-size="10.00" fill="#ffffff">7.40%</text>
<text text-anchor="middle" x="554" y="-651" font-family="Arial" font-size="10.00" fill="#ffffff">(7.40%)</text>
</g>
</g>
</svg>
