<?xml version="1.0" encoding="UTF-8" standalone="no"?>
<!DOCTYPE svg PUBLIC "-//W3C//DTD SVG 1.1//EN"
 "http://www.w3.org/Graphics/SVG/1.1/DTD/svg11.dtd">
<!-- Generated by graphviz version 2.38.0 (20140413.2041)
 -->
<!-- Title: %3 Pages: 1 -->
<svg width="704pt" height="1119pt"
 viewBox="0.00 0.00 703.50 1119.00" xmlns="http://www.w3.org/2000/svg" xmlns:xlink="http://www.w3.org/1999/xlink">
<g id="graph0" class="graph" transform="scale(1 1) rotate(0) translate(4 1115)">
<title>%3</title>
<polygon fill="white" stroke="none" points="-4,4 -4,-1115 699.5,-1115 699.5,4 -4,4"/>
<!-- 1 -->
<g id="node1" class="node"><title>1</title>
<polygon fill="#ff0200" stroke="#ff0200" points="325.5,-1111 275.5,-1111 275.5,-1070 325.5,-1070 325.5,-1111"/>
<text text-anchor="middle" x="300.5" y="-1099" font-family="Arial" font-size="10.00" fill="#ffffff">main</text>
<text text-anchor="middle" x="300.5" y="-1088" font-family="Arial" font-size="10.00" fill="#ffffff">99.80%</text>
<text text-anchor="middle" x="300.5" y="-1077" font-family="Arial" font-size="10.00" fill="#ffffff">(0.00%)</text>
</g>
<!-- 3 -->
<g id="node2" class="node"><title>3</title>
<polygon fill="#fe0500" stroke="#fe0500" points="348.5,-1030 252.5,-1030 252.5,-978 348.5,-978 348.5,-1030"/>
<text text-anchor="middle" x="300.5" y="-1018" font-family="Arial" font-size="10.00" fill="#ffffff">rt_sdl_render_loop</text>
<text text-anchor="middle" x="300.5" y="-1007" font-family="Arial" font-size="10.00" fill="#ffffff">99.51%</text>
<text text-anchor="middle" x="300.5" y="-996" font-family="Arial" font-size="10.00" fill="#ffffff">(0.00%)</text>
<text text-anchor="middle" x="300.5" y="-985" font-family="Arial" font-size="10.00" fill="#ffffff">1×</text>
</g>
<!-- 1&#45;&gt;3 -->
<g id="edge1" class="edge"><title>1&#45;&gt;3</title>
<path fill="none" stroke="#fe0500" stroke-width="3.98" d="M300.5,-1069.9C300.5,-1061.14 300.5,-1050.55 300.5,-1040.47"/>
<polygon fill="#fe0500" stroke="#fe0500" stroke-width="3.98" points="304,-1040.27 300.5,-1030.27 297,-1040.27 304,-1040.27"/>
<text text-anchor="middle" x="317.5" y="-1053" font-family="Arial" font-size="10.00" fill="#fe0500">99.51%</text>
<text text-anchor="middle" x="317.5" y="-1042" font-family="Arial" font-size="10.00" fill="#fe0500">1×</text>
</g>
<!-- 2 -->
<g id="node3" class="node"><title>2</title>
<polygon fill="#fe0500" stroke="#fe0500" points="334.5,-938 266.5,-938 266.5,-886 334.5,-886 334.5,-938"/>
<text text-anchor="middle" x="300.5" y="-926" font-family="Arial" font-size="10.00" fill="#ffffff">rt_rendering</text>
<text text-anchor="middle" x="300.5" y="-915" font-family="Arial" font-size="10.00" fill="#ffffff">99.51%</text>
<text text-anchor="middle" x="300.5" y="-904" font-family="Arial" font-size="10.00" fill="#ffffff">(0.89%)</text>
<text text-anchor="middle" x="300.5" y="-893" font-family="Arial" font-size="10.00" fill="#ffffff">57×</text>
</g>
<!-- 3&#45;&gt;2 -->
<g id="edge4" class="edge"><title>3&#45;&gt;2</title>
<path fill="none" stroke="#fe0500" stroke-width="3.98" d="M300.5,-977.93C300.5,-968.743 300.5,-958.166 300.5,-948.253"/>
<polygon fill="#fe0500" stroke="#fe0500" stroke-width="3.98" points="304,-948.248 300.5,-938.248 297,-948.248 304,-948.248"/>
<text text-anchor="middle" x="317.5" y="-961" font-family="Arial" font-size="10.00" fill="#fe0500">99.51%</text>
<text text-anchor="middle" x="317.5" y="-950" font-family="Arial" font-size="10.00" fill="#fe0500">57×</text>
</g>
<!-- 4 -->
<g id="node4" class="node"><title>4</title>
<polygon fill="#fc1701" stroke="#fc1701" points="293,-846 222,-846 222,-794 293,-794 293,-846"/>
<text text-anchor="middle" x="257.5" y="-834" font-family="Arial" font-size="10.00" fill="#ffffff">rt_raytracing</text>
<text text-anchor="middle" x="257.5" y="-823" font-family="Arial" font-size="10.00" fill="#ffffff">97.73%</text>
<text text-anchor="middle" x="257.5" y="-812" font-family="Arial" font-size="10.00" fill="#ffffff">(2.27%)</text>
<text text-anchor="middle" x="257.5" y="-801" font-family="Arial" font-size="10.00" fill="#ffffff">18240000×</text>
</g>
<!-- 2&#45;&gt;4 -->
<g id="edge2" class="edge"><title>2&#45;&gt;4</title>
<path fill="none" stroke="#fc1701" stroke-width="3.91" d="M271.08,-885.68C268.949,-882.926 267.037,-880.02 265.5,-877 262.267,-870.649 260.224,-863.4 258.956,-856.271"/>
<polygon fill="#fc1701" stroke="#fc1701" stroke-width="3.91" points="262.335,-855.393 257.605,-846.031 255.465,-856.3 262.335,-855.393"/>
<text text-anchor="middle" x="290" y="-869" font-family="Arial" font-size="10.00" fill="#fc1701">97.73%</text>
<text text-anchor="middle" x="290" y="-858" font-family="Arial" font-size="10.00" fill="#fc1701">18240000×</text>
</g>
<!-- 23 -->
<g id="node5" class="node"><title>23</title>
<polygon fill="#0d0f74" stroke="#0d0f74" points="370.5,-846 302.5,-846 302.5,-794 370.5,-794 370.5,-846"/>
<text text-anchor="middle" x="336.5" y="-834" font-family="Arial" font-size="10.00" fill="#ffffff">sdl_pixelput</text>
<text text-anchor="middle" x="336.5" y="-823" font-family="Arial" font-size="10.00" fill="#ffffff">0.59%</text>
<text text-anchor="middle" x="336.5" y="-812" font-family="Arial" font-size="10.00" fill="#ffffff">(0.59%)</text>
<text text-anchor="middle" x="336.5" y="-801" font-family="Arial" font-size="10.00" fill="#ffffff">10951469×</text>
</g>
<!-- 2&#45;&gt;23 -->
<g id="edge3" class="edge"><title>2&#45;&gt;23</title>
<path fill="none" stroke="#0d0f74" stroke-width="0.5" d="M312.657,-885.87C313.996,-882.899 315.305,-879.895 316.5,-877 320.119,-868.233 323.716,-858.545 326.841,-849.728"/>
<polygon fill="#0d0f74" stroke="#0d0f74" stroke-width="0.5" points="328.144,-849.716 328.15,-846.007 325.833,-848.902 328.144,-849.716"/>
<text text-anchor="middle" x="350" y="-869" font-family="Arial" font-size="10.00" fill="#0d0f74">0.59%</text>
<text text-anchor="middle" x="350" y="-858" font-family="Arial" font-size="10.00" fill="#0d0f74">10951469×</text>
</g>
<!-- 5 -->
<g id="node6" class="node"><title>5</title>
<polygon fill="#3dc009" stroke="#3dc009" points="502,-632 419,-632 419,-580 502,-580 502,-632"/>
<text text-anchor="middle" x="460.5" y="-620" font-family="Arial" font-size="10.00" fill="#ffffff">rt_closest_inter</text>
<text text-anchor="middle" x="460.5" y="-609" font-family="Arial" font-size="10.00" fill="#ffffff">57.16%</text>
<text text-anchor="middle" x="460.5" y="-598" font-family="Arial" font-size="10.00" fill="#ffffff">(9.76%)</text>
<text text-anchor="middle" x="460.5" y="-587" font-family="Arial" font-size="10.00" fill="#ffffff">27326130×</text>
</g>
<!-- 4&#45;&gt;5 -->
<g id="edge5" class="edge"><title>4&#45;&gt;5</title>
<path fill="none" stroke="#0ba554" stroke-width="1.53" d="M293.049,-796.258C294.539,-795.472 296.027,-794.715 297.5,-794 308.123,-788.841 312.06,-790.518 322.5,-785 384.12,-752.43 413.932,-752.94 449.5,-693 459.129,-676.773 461.966,-655.816 462.353,-638.653"/>
<polygon fill="#0ba554" stroke="#0ba554" stroke-width="1.53" points="464.525,-638.249 462.388,-632.038 460.185,-638.227 464.525,-638.249"/>
<text text-anchor="middle" x="469" y="-731" font-family="Arial" font-size="10.00" fill="#0ba554">38.15%</text>
<text text-anchor="middle" x="469" y="-720" font-family="Arial" font-size="10.00" fill="#0ba554">18240000×</text>
</g>
<!-- 6 -->
<g id="node7" class="node"><title>6</title>
<polygon fill="#0aab3c" stroke="#0aab3c" points="324,-754 255,-754 255,-702 324,-702 324,-754"/>
<text text-anchor="middle" x="289.5" y="-742" font-family="Arial" font-size="10.00" fill="#ffffff">rt_calc_light</text>
<text text-anchor="middle" x="289.5" y="-731" font-family="Arial" font-size="10.00" fill="#ffffff">42.32%</text>
<text text-anchor="middle" x="289.5" y="-720" font-family="Arial" font-size="10.00" fill="#ffffff">(2.37%)</text>
<text text-anchor="middle" x="289.5" y="-709" font-family="Arial" font-size="10.00" fill="#ffffff">9502372×</text>
</g>
<!-- 4&#45;&gt;6 -->
<g id="edge6" class="edge"><title>4&#45;&gt;6</title>
<path fill="none" stroke="#0aab3c" stroke-width="1.69" d="M266.414,-793.93C270.093,-783.582 274.399,-771.472 278.289,-760.532"/>
<polygon fill="#0aab3c" stroke="#0aab3c" stroke-width="1.69" points="280.489,-761.134 280.523,-754.248 276.202,-759.61 280.489,-761.134"/>
<text text-anchor="middle" x="299" y="-777" font-family="Arial" font-size="10.00" fill="#0aab3c">42.32%</text>
<text text-anchor="middle" x="299" y="-766" font-family="Arial" font-size="10.00" fill="#0aab3c">9502372×</text>
</g>
<!-- 10 -->
<g id="node8" class="node"><title>10</title>
<polygon fill="#0d4c84" stroke="#0d4c84" points="275,-266 210,-266 210,-214 275,-214 275,-266"/>
<text text-anchor="middle" x="242.5" y="-254" font-family="Arial" font-size="10.00" fill="#ffffff">v_norm</text>
<text text-anchor="middle" x="242.5" y="-243" font-family="Arial" font-size="10.00" fill="#ffffff">13.24%</text>
<text text-anchor="middle" x="242.5" y="-232" font-family="Arial" font-size="10.00" fill="#ffffff">(5.13%)</text>
<text text-anchor="middle" x="242.5" y="-221" font-family="Arial" font-size="10.00" fill="#ffffff">73964241×</text>
</g>
<!-- 4&#45;&gt;10 -->
<g id="edge7" class="edge"><title>4&#45;&gt;10</title>
<path fill="none" stroke="#0d247a" stroke-width="0.5" d="M243.813,-793.799C235.508,-776.177 226.5,-751.806 226.5,-729 226.5,-729 226.5,-729 226.5,-361 226.5,-329.549 231.967,-293.865 236.509,-269.642"/>
<polygon fill="#0d247a" stroke="#0d247a" stroke-width="0.5" points="237.722,-269.821 237.172,-266.154 235.315,-269.364 237.722,-269.821"/>
<text text-anchor="middle" x="251" y="-548" font-family="Arial" font-size="10.00" fill="#0d247a">5.37%</text>
<text text-anchor="middle" x="251" y="-537" font-family="Arial" font-size="10.00" fill="#0d247a">30031703×</text>
</g>
<!-- 14 -->
<g id="node9" class="node"><title>14</title>
<polygon fill="#0d297b" stroke="#0d297b" points="606.5,-754 516.5,-754 516.5,-702 606.5,-702 606.5,-754"/>
<text text-anchor="middle" x="561.5" y="-742" font-family="Arial" font-size="10.00" fill="#ffffff">rt_camera_rotate</text>
<text text-anchor="middle" x="561.5" y="-731" font-family="Arial" font-size="10.00" fill="#ffffff">6.51%</text>
<text text-anchor="middle" x="561.5" y="-720" font-family="Arial" font-size="10.00" fill="#ffffff">(1.78%)</text>
<text text-anchor="middle" x="561.5" y="-709" font-family="Arial" font-size="10.00" fill="#ffffff">18240000×</text>
</g>
<!-- 4&#45;&gt;14 -->
<g id="edge8" class="edge"><title>4&#45;&gt;14</title>
<path fill="none" stroke="#0d297b" stroke-width="0.5" d="M293.29,-795.505C294.689,-794.949 296.094,-794.444 297.5,-794 368.799,-771.47 393.866,-806.439 465.5,-785 486.469,-778.724 507.704,-767.015 524.853,-755.919"/>
<polygon fill="#0d297b" stroke="#0d297b" stroke-width="0.5" points="525.528,-756.941 527.787,-754.001 524.187,-754.891 525.528,-756.941"/>
<text text-anchor="middle" x="537" y="-777" font-family="Arial" font-size="10.00" fill="#0d297b">6.51%</text>
<text text-anchor="middle" x="537" y="-766" font-family="Arial" font-size="10.00" fill="#0d297b">18240000×</text>
</g>
<!-- 21 -->
<g id="node10" class="node"><title>21</title>
<polygon fill="#0d1174" stroke="#0d1174" points="83,-693 0,-693 0,-641 83,-641 83,-693"/>
<text text-anchor="middle" x="41.5" y="-681" font-family="Arial" font-size="10.00" fill="#ffffff">rt_normal_cone</text>
<text text-anchor="middle" x="41.5" y="-670" font-family="Arial" font-size="10.00" fill="#ffffff">1.06%</text>
<text text-anchor="middle" x="41.5" y="-659" font-family="Arial" font-size="10.00" fill="#ffffff">(0.69%)</text>
<text text-anchor="middle" x="41.5" y="-648" font-family="Arial" font-size="10.00" fill="#ffffff">2696519×</text>
</g>
<!-- 4&#45;&gt;21 -->
<g id="edge9" class="edge"><title>4&#45;&gt;21</title>
<path fill="none" stroke="#0d1174" stroke-width="0.5" d="M221.625,-815.776C178.181,-811.204 108.348,-801.504 88.5,-785 61.9216,-762.899 50.2493,-723.546 45.2067,-696.634"/>
<polygon fill="#0d1174" stroke="#0d1174" stroke-width="0.5" points="46.3938,-696.314 44.5668,-693.087 43.9827,-696.749 46.3938,-696.314"/>
<text text-anchor="middle" x="110" y="-777" font-family="Arial" font-size="10.00" fill="#0d1174">1.06%</text>
<text text-anchor="middle" x="110" y="-766" font-family="Arial" font-size="10.00" fill="#0d1174">2696519×</text>
</g>
<!-- 22 -->
<g id="node11" class="node"><title>22</title>
<polygon fill="#0d1074" stroke="#0d1074" points="142.5,-571 46.5,-571 46.5,-519 142.5,-519 142.5,-571"/>
<text text-anchor="middle" x="94.5" y="-559" font-family="Arial" font-size="10.00" fill="#ffffff">rt_normal_cylinder</text>
<text text-anchor="middle" x="94.5" y="-548" font-family="Arial" font-size="10.00" fill="#ffffff">0.73%</text>
<text text-anchor="middle" x="94.5" y="-537" font-family="Arial" font-size="10.00" fill="#ffffff">(0.49%)</text>
<text text-anchor="middle" x="94.5" y="-526" font-family="Arial" font-size="10.00" fill="#ffffff">2181247×</text>
</g>
<!-- 4&#45;&gt;22 -->
<g id="edge10" class="edge"><title>4&#45;&gt;22</title>
<path fill="none" stroke="#0d1074" stroke-width="0.5" d="M221.637,-796.463C206.089,-785.247 188.693,-770.548 176.5,-754 134.843,-697.467 111.111,-616.958 100.774,-574.594"/>
<polygon fill="#0d1074" stroke="#0d1074" stroke-width="0.5" points="101.946,-574.228 99.9335,-571.113 99.564,-574.803 101.946,-574.228"/>
<text text-anchor="middle" x="198" y="-731" font-family="Arial" font-size="10.00" fill="#0d1074">0.73%</text>
<text text-anchor="middle" x="198" y="-720" font-family="Arial" font-size="10.00" fill="#0d1074">2181247×</text>
</g>
<!-- 7 -->
<g id="node12" class="node"><title>7</title>
<polygon fill="#0baa40" stroke="#0baa40" points="416,-510 339,-510 339,-458 416,-458 416,-510"/>
<text text-anchor="middle" x="377.5" y="-498" font-family="Arial" font-size="10.00" fill="#ffffff">s_intersection</text>
<text text-anchor="middle" x="377.5" y="-487" font-family="Arial" font-size="10.00" fill="#ffffff">41.56%</text>
<text text-anchor="middle" x="377.5" y="-476" font-family="Arial" font-size="10.00" fill="#ffffff">(7.20%)</text>
<text text-anchor="middle" x="377.5" y="-465" font-family="Arial" font-size="10.00" fill="#ffffff">81978390×</text>
</g>
<!-- 5&#45;&gt;7 -->
<g id="edge11" class="edge"><title>5&#45;&gt;7</title>
<path fill="none" stroke="#0baa40" stroke-width="1.66" d="M418.8,-583.05C414.241,-579.459 409.996,-575.439 406.5,-571 394.085,-555.234 386.845,-533.87 382.704,-516.38"/>
<polygon fill="#0baa40" stroke="#0baa40" stroke-width="1.66" points="384.89,-515.89 381.315,-510.129 380.517,-516.862 384.89,-515.89"/>
<text text-anchor="middle" x="431" y="-548" font-family="Arial" font-size="10.00" fill="#0baa40">41.56%</text>
<text text-anchor="middle" x="431" y="-537" font-family="Arial" font-size="10.00" fill="#0baa40">81978390×</text>
</g>
<!-- 17 -->
<g id="node13" class="node"><title>17</title>
<polygon fill="#0d267a" stroke="#0d267a" points="519.5,-449 445.5,-449 445.5,-397 519.5,-397 519.5,-449"/>
<text text-anchor="middle" x="482.5" y="-437" font-family="Arial" font-size="10.00" fill="#ffffff">s_plane_inter</text>
<text text-anchor="middle" x="482.5" y="-426" font-family="Arial" font-size="10.00" fill="#ffffff">5.83%</text>
<text text-anchor="middle" x="482.5" y="-415" font-family="Arial" font-size="10.00" fill="#ffffff">(3.55%)</text>
<text text-anchor="middle" x="482.5" y="-404" font-family="Arial" font-size="10.00" fill="#ffffff">27326130×</text>
</g>
<!-- 5&#45;&gt;17 -->
<g id="edge12" class="edge"><title>5&#45;&gt;17</title>
<path fill="none" stroke="#0d267a" stroke-width="0.5" d="M463.559,-579.833C467.603,-546.562 474.713,-488.065 478.977,-452.984"/>
<polygon fill="#0d267a" stroke="#0d267a" stroke-width="0.5" points="480.225,-452.867 479.432,-449.245 477.793,-452.571 480.225,-452.867"/>
<text text-anchor="middle" x="496" y="-548" font-family="Arial" font-size="10.00" fill="#0d267a">5.83%</text>
<text text-anchor="middle" x="496" y="-537" font-family="Arial" font-size="10.00" fill="#0d267a">27326130×</text>
</g>
<!-- 6&#45;&gt;5 -->
<g id="edge13" class="edge"><title>6&#45;&gt;5</title>
<path fill="none" stroke="#0c6d8b" stroke-width="0.76" d="M324.363,-723.65C346.627,-719.745 374.576,-711.292 392.5,-693 409.423,-675.729 393.961,-660.321 408.5,-641 410.551,-638.274 412.889,-635.703 415.412,-633.29"/>
<polygon fill="#0c6d8b" stroke="#0c6d8b" stroke-width="0.76" points="416.717,-634.187 418.956,-630.098 414.656,-631.898 416.717,-634.187"/>
<text text-anchor="middle" x="430" y="-670" font-family="Arial" font-size="10.00" fill="#0c6d8b">19.00%</text>
<text text-anchor="middle" x="430" y="-659" font-family="Arial" font-size="10.00" fill="#0c6d8b">9086130×</text>
</g>
<!-- 13 -->
<g id="node14" class="node"><title>13</title>
<polygon fill="#0d357e" stroke="#0d357e" points="205.5,-388 105.5,-388 105.5,-336 205.5,-336 205.5,-388"/>
<text text-anchor="middle" x="155.5" y="-376" font-family="Arial" font-size="10.00" fill="#ffffff">s_calc_light_intens</text>
<text text-anchor="middle" x="155.5" y="-365" font-family="Arial" font-size="10.00" fill="#ffffff">8.91%</text>
<text text-anchor="middle" x="155.5" y="-354" font-family="Arial" font-size="10.00" fill="#ffffff">(2.17%)</text>
<text text-anchor="middle" x="155.5" y="-343" font-family="Arial" font-size="10.00" fill="#ffffff">8303555×</text>
</g>
<!-- 6&#45;&gt;13 -->
<g id="edge14" class="edge"><title>6&#45;&gt;13</title>
<path fill="none" stroke="#0d357e" stroke-width="0.5" d="M263.422,-701.938C235.448,-673.238 192.37,-623.387 172.5,-571 149.597,-510.615 150.346,-433.479 152.914,-392.194"/>
<polygon fill="#0d357e" stroke="#0d357e" stroke-width="0.5" points="154.162,-391.885 153.167,-388.313 151.717,-391.725 154.162,-391.885"/>
<text text-anchor="middle" x="194" y="-548" font-family="Arial" font-size="10.00" fill="#0d357e">8.91%</text>
<text text-anchor="middle" x="194" y="-537" font-family="Arial" font-size="10.00" fill="#0d357e">8303555×</text>
</g>
<!-- 15 -->
<g id="node15" class="node"><title>15</title>
<polygon fill="#0d287b" stroke="#0d287b" points="338.5,-632 240.5,-632 240.5,-580 338.5,-580 338.5,-632"/>
<text text-anchor="middle" x="289.5" y="-620" font-family="Arial" font-size="10.00" fill="#ffffff">sdl_clrs_bright_inc</text>
<text text-anchor="middle" x="289.5" y="-609" font-family="Arial" font-size="10.00" fill="#ffffff">6.11%</text>
<text text-anchor="middle" x="289.5" y="-598" font-family="Arial" font-size="10.00" fill="#ffffff">(6.11%)</text>
<text text-anchor="middle" x="289.5" y="-587" font-family="Arial" font-size="10.00" fill="#ffffff">8302837×</text>
</g>
<!-- 6&#45;&gt;15 -->
<g id="edge15" class="edge"><title>6&#45;&gt;15</title>
<path fill="none" stroke="#0d287b" stroke-width="0.5" d="M289.5,-701.844C289.5,-682.644 289.5,-656.158 289.5,-636.054"/>
<polygon fill="#0d287b" stroke="#0d287b" stroke-width="0.5" points="290.725,-635.623 289.5,-632.123 288.275,-635.623 290.725,-635.623"/>
<text text-anchor="middle" x="311" y="-670" font-family="Arial" font-size="10.00" fill="#0d287b">6.11%</text>
<text text-anchor="middle" x="311" y="-659" font-family="Arial" font-size="10.00" fill="#0d287b">8302837×</text>
</g>
<!-- 16 -->
<g id="node16" class="node"><title>16</title>
<polygon fill="#0d277a" stroke="#0d277a" points="409.5,-632 347.5,-632 347.5,-580 409.5,-580 409.5,-632"/>
<text text-anchor="middle" x="378.5" y="-620" font-family="Arial" font-size="10.00" fill="#ffffff">sdl_clr_div</text>
<text text-anchor="middle" x="378.5" y="-609" font-family="Arial" font-size="10.00" fill="#ffffff">5.92%</text>
<text text-anchor="middle" x="378.5" y="-598" font-family="Arial" font-size="10.00" fill="#ffffff">(5.92%)</text>
<text text-anchor="middle" x="378.5" y="-587" font-family="Arial" font-size="10.00" fill="#ffffff">9502372×</text>
</g>
<!-- 6&#45;&gt;16 -->
<g id="edge16" class="edge"><title>6&#45;&gt;16</title>
<path fill="none" stroke="#0d277a" stroke-width="0.5" d="M324.049,-704.534C327.929,-701.008 331.542,-697.144 334.5,-693 348.625,-673.209 339.981,-662.413 351.5,-641 352.531,-639.083 353.673,-637.166 354.888,-635.274"/>
<polygon fill="#0d277a" stroke="#0d277a" stroke-width="0.5" points="355.932,-635.916 356.851,-632.323 353.893,-634.558 355.932,-635.916"/>
<text text-anchor="middle" x="373" y="-670" font-family="Arial" font-size="10.00" fill="#0d277a">5.92%</text>
<text text-anchor="middle" x="373" y="-659" font-family="Arial" font-size="10.00" fill="#0d277a">9502372×</text>
</g>
<!-- 12 -->
<g id="node21" class="node"><title>12</title>
<polygon fill="#0d3f81" stroke="#0d3f81" points="241,-144 176,-144 176,-92 241,-92 241,-144"/>
<text text-anchor="middle" x="208.5" y="-132" font-family="Arial" font-size="10.00" fill="#ffffff">v_len</text>
<text text-anchor="middle" x="208.5" y="-121" font-family="Arial" font-size="10.00" fill="#ffffff">10.84%</text>
<text text-anchor="middle" x="208.5" y="-110" font-family="Arial" font-size="10.00" fill="#ffffff">(6.71%)</text>
<text text-anchor="middle" x="208.5" y="-99" font-family="Arial" font-size="10.00" fill="#ffffff">98873346×</text>
</g>
<!-- 10&#45;&gt;12 -->
<g id="edge22" class="edge"><title>10&#45;&gt;12</title>
<path fill="none" stroke="#0d317d" stroke-width="0.5" d="M216.384,-213.958C214.452,-211.109 212.766,-208.107 211.5,-205 204.16,-186.994 203.508,-165.067 204.641,-147.86"/>
<polygon fill="#0d317d" stroke="#0d317d" stroke-width="0.5" points="205.887,-147.622 204.927,-144.041 203.444,-147.44 205.887,-147.622"/>
<text text-anchor="middle" x="236" y="-182" font-family="Arial" font-size="10.00" fill="#0d317d">8.11%</text>
<text text-anchor="middle" x="236" y="-171" font-family="Arial" font-size="10.00" fill="#0d317d">73964241×</text>
</g>
<!-- 19 -->
<g id="node22" class="node"><title>19</title>
<polygon fill="#0d1876" stroke="#0d1876" points="600.5,-632 514.5,-632 514.5,-580 600.5,-580 600.5,-632"/>
<text text-anchor="middle" x="557.5" y="-620" font-family="Arial" font-size="10.00" fill="#ffffff">s_camera_rot_x</text>
<text text-anchor="middle" x="557.5" y="-609" font-family="Arial" font-size="10.00" fill="#ffffff">2.76%</text>
<text text-anchor="middle" x="557.5" y="-598" font-family="Arial" font-size="10.00" fill="#ffffff">(2.76%)</text>
<text text-anchor="middle" x="557.5" y="-587" font-family="Arial" font-size="10.00" fill="#ffffff">11200000×</text>
</g>
<!-- 14&#45;&gt;19 -->
<g id="edge28" class="edge"><title>14&#45;&gt;19</title>
<path fill="none" stroke="#0d1876" stroke-width="0.5" d="M560.661,-701.844C560.021,-682.644 559.139,-656.158 558.468,-636.054"/>
<polygon fill="#0d1876" stroke="#0d1876" stroke-width="0.5" points="559.678,-635.58 558.337,-632.123 557.23,-635.662 559.678,-635.58"/>
<text text-anchor="middle" x="585" y="-670" font-family="Arial" font-size="10.00" fill="#0d1876">2.76%</text>
<text text-anchor="middle" x="585" y="-659" font-family="Arial" font-size="10.00" fill="#0d1876">11200000×</text>
</g>
<!-- 20 -->
<g id="node23" class="node"><title>20</title>
<polygon fill="#0d1575" stroke="#0d1575" points="695.5,-632 609.5,-632 609.5,-580 695.5,-580 695.5,-632"/>
<text text-anchor="middle" x="652.5" y="-620" font-family="Arial" font-size="10.00" fill="#ffffff">s_camera_rot_y</text>
<text text-anchor="middle" x="652.5" y="-609" font-family="Arial" font-size="10.00" fill="#ffffff">1.97%</text>
<text text-anchor="middle" x="652.5" y="-598" font-family="Arial" font-size="10.00" fill="#ffffff">(1.97%)</text>
<text text-anchor="middle" x="652.5" y="-587" font-family="Arial" font-size="10.00" fill="#ffffff">10240000×</text>
</g>
<!-- 14&#45;&gt;20 -->
<g id="edge29" class="edge"><title>14&#45;&gt;20</title>
<path fill="none" stroke="#0d1575" stroke-width="0.5" d="M602.87,-701.61C605.974,-698.905 608.902,-696.027 611.5,-693 625.84,-676.29 636.354,-653.703 643.142,-635.87"/>
<polygon fill="#0d1575" stroke="#0d1575" stroke-width="0.5" points="644.372,-636.077 644.45,-632.37 642.077,-635.22 644.372,-636.077"/>
<text text-anchor="middle" x="665" y="-670" font-family="Arial" font-size="10.00" fill="#0d1575">1.97%</text>
<text text-anchor="middle" x="665" y="-659" font-family="Arial" font-size="10.00" fill="#0d1575">10240000×</text>
</g>
<!-- 8 -->
<g id="node20" class="node"><title>8</title>
<polygon fill="#0c9789" stroke="#0c9789" points="275.5,-52 205.5,-52 205.5,-0 275.5,-0 275.5,-52"/>
<text text-anchor="middle" x="240.5" y="-40" font-family="Arial" font-size="10.00" fill="#ffffff">v_dot</text>
<text text-anchor="middle" x="240.5" y="-29" font-family="Arial" font-size="10.00" fill="#ffffff">27.42%</text>
<text text-anchor="middle" x="240.5" y="-18" font-family="Arial" font-size="10.00" fill="#ffffff">(27.42%)</text>
<text text-anchor="middle" x="240.5" y="-7" font-family="Arial" font-size="10.00" fill="#ffffff">656103538×</text>
</g>
<!-- 21&#45;&gt;8 -->
<g id="edge32" class="edge"><title>21&#45;&gt;8</title>
<path fill="none" stroke="#0d0e73" stroke-width="0.5" d="M35.5063,-640.881C30.2701,-616.715 23.5,-579.074 23.5,-546 23.5,-546 23.5,-546 23.5,-117 23.5,-40.8215 139.015,-27.8943 201.484,-26.4731"/>
<polygon fill="#0d0e73" stroke="#0d0e73" stroke-width="0.5" points="201.677,-27.6947 205.152,-26.4015 201.629,-25.2451 201.677,-27.6947"/>
<text text-anchor="middle" x="45" y="-365" font-family="Arial" font-size="10.00" fill="#0d0e73">0.23%</text>
<text text-anchor="middle" x="45" y="-354" font-family="Arial" font-size="10.00" fill="#0d0e73">5393038×</text>
</g>
<!-- 22&#45;&gt;8 -->
<g id="edge33" class="edge"><title>22&#45;&gt;8</title>
<path fill="none" stroke="#0d0d73" stroke-width="0.5" d="M89.8382,-518.816C85.7656,-494.603 80.5,-456.93 80.5,-424 80.5,-424 80.5,-424 80.5,-117 80.5,-61.5551 154.389,-39.9043 201.742,-31.7219"/>
<polygon fill="#0d0d73" stroke="#0d0d73" stroke-width="0.5" points="202.139,-32.8976 205.387,-31.1095 201.733,-30.4814 202.139,-32.8976"/>
<text text-anchor="middle" x="102" y="-304" font-family="Arial" font-size="10.00" fill="#0d0d73">0.18%</text>
<text text-anchor="middle" x="102" y="-293" font-family="Arial" font-size="10.00" fill="#0d0d73">4362494×</text>
</g>
<!-- 9 -->
<g id="node17" class="node"><title>9</title>
<polygon fill="#0c5e88" stroke="#0c5e88" points="347.5,-388 261.5,-388 261.5,-336 347.5,-336 347.5,-388"/>
<text text-anchor="middle" x="304.5" y="-376" font-family="Arial" font-size="10.00" fill="#ffffff">rt_inter_cylinder</text>
<text text-anchor="middle" x="304.5" y="-365" font-family="Arial" font-size="10.00" fill="#ffffff">16.53%</text>
<text text-anchor="middle" x="304.5" y="-354" font-family="Arial" font-size="10.00" fill="#ffffff">(3.65%)</text>
<text text-anchor="middle" x="304.5" y="-343" font-family="Arial" font-size="10.00" fill="#ffffff">27326130×</text>
</g>
<!-- 7&#45;&gt;9 -->
<g id="edge17" class="edge"><title>7&#45;&gt;9</title>
<path fill="none" stroke="#0c5e88" stroke-width="0.66" d="M338.924,-472.487C327.221,-467.343 315.596,-459.837 308.5,-449 297.706,-432.515 296.968,-410.203 298.792,-392.437"/>
<polygon fill="#0c5e88" stroke="#0c5e88" stroke-width="0.66" points="300.257,-392.262 299.306,-388.024 297.406,-391.93 300.257,-392.262"/>
<text text-anchor="middle" x="333" y="-426" font-family="Arial" font-size="10.00" fill="#0c5e88">16.53%</text>
<text text-anchor="middle" x="333" y="-415" font-family="Arial" font-size="10.00" fill="#0c5e88">27326130×</text>
</g>
<!-- 11 -->
<g id="node18" class="node"><title>11</title>
<polygon fill="#0d4783" stroke="#0d4783" points="397,-327 324,-327 324,-275 397,-275 397,-327"/>
<text text-anchor="middle" x="360.5" y="-315" font-family="Arial" font-size="10.00" fill="#ffffff">rt_inter_cone</text>
<text text-anchor="middle" x="360.5" y="-304" font-family="Arial" font-size="10.00" fill="#ffffff">12.43%</text>
<text text-anchor="middle" x="360.5" y="-293" font-family="Arial" font-size="10.00" fill="#ffffff">(4.44%)</text>
<text text-anchor="middle" x="360.5" y="-282" font-family="Arial" font-size="10.00" fill="#ffffff">27326130×</text>
</g>
<!-- 7&#45;&gt;11 -->
<g id="edge18" class="edge"><title>7&#45;&gt;11</title>
<path fill="none" stroke="#0d4783" stroke-width="0.5" d="M372.762,-457.791C372.292,-454.834 371.858,-451.855 371.5,-449 366.362,-408.005 363.33,-360.256 361.791,-330.574"/>
<polygon fill="#0d4783" stroke="#0d4783" stroke-width="0.5" points="363.013,-330.478 361.61,-327.045 360.566,-330.603 363.013,-330.478"/>
<text text-anchor="middle" x="396" y="-426" font-family="Arial" font-size="10.00" fill="#0d4783">12.43%</text>
<text text-anchor="middle" x="396" y="-415" font-family="Arial" font-size="10.00" fill="#0d4783">27326130×</text>
</g>
<!-- 18 -->
<g id="node19" class="node"><title>18</title>
<polygon fill="#0d247a" stroke="#0d247a" points="480,-205 399,-205 399,-153 480,-153 480,-205"/>
<text text-anchor="middle" x="439.5" y="-193" font-family="Arial" font-size="10.00" fill="#ffffff">rt_inter_sphere</text>
<text text-anchor="middle" x="439.5" y="-182" font-family="Arial" font-size="10.00" fill="#ffffff">5.40%</text>
<text text-anchor="middle" x="439.5" y="-171" font-family="Arial" font-size="10.00" fill="#ffffff">(1.97%)</text>
<text text-anchor="middle" x="439.5" y="-160" font-family="Arial" font-size="10.00" fill="#ffffff">27326130×</text>
</g>
<!-- 7&#45;&gt;18 -->
<g id="edge19" class="edge"><title>7&#45;&gt;18</title>
<path fill="none" stroke="#0d247a" stroke-width="0.5" d="M412.54,-457.812C414.843,-455.062 416.883,-452.12 418.5,-449 429.332,-428.102 436.1,-274.196 438.508,-209.024"/>
<polygon fill="#0d247a" stroke="#0d247a" stroke-width="0.5" points="439.743,-208.779 438.647,-205.237 437.295,-208.69 439.743,-208.779"/>
<text text-anchor="middle" x="457" y="-365" font-family="Arial" font-size="10.00" fill="#0d247a">5.40%</text>
<text text-anchor="middle" x="457" y="-354" font-family="Arial" font-size="10.00" fill="#0d247a">27326130×</text>
</g>
<!-- 17&#45;&gt;8 -->
<g id="edge30" class="edge"><title>17&#45;&gt;8</title>
<path fill="none" stroke="#0d1676" stroke-width="0.5" d="M485.164,-396.749C487.491,-372.488 490.5,-334.781 490.5,-302 490.5,-302 490.5,-302 490.5,-117 490.5,-72.6443 349.422,-44.1411 279.223,-32.7039"/>
<polygon fill="#0d1676" stroke="#0d1676" stroke-width="0.5" points="279.175,-31.4553 275.525,-32.1064 278.784,-33.8739 279.175,-31.4553"/>
<text text-anchor="middle" x="515" y="-243" font-family="Arial" font-size="10.00" fill="#0d1676">2.28%</text>
<text text-anchor="middle" x="515" y="-232" font-family="Arial" font-size="10.00" fill="#0d1676">54634682×</text>
</g>
<!-- 13&#45;&gt;10 -->
<g id="edge26" class="edge"><title>13&#45;&gt;10</title>
<path fill="none" stroke="#0d1977" stroke-width="0.5" d="M156.951,-335.9C158.739,-313.788 162.576,-283.772 170.5,-275 180.403,-264.037 188.988,-271.975 202.5,-266 203.848,-265.404 205.204,-264.768 206.561,-264.101"/>
<polygon fill="#0d1977" stroke="#0d1977" stroke-width="0.5" points="207.16,-265.171 209.724,-262.491 206.049,-262.987 207.16,-265.171"/>
<text text-anchor="middle" x="195" y="-304" font-family="Arial" font-size="10.00" fill="#0d1977">2.97%</text>
<text text-anchor="middle" x="195" y="-293" font-family="Arial" font-size="10.00" fill="#0d1977">16606404×</text>
</g>
<!-- 13&#45;&gt;8 -->
<g id="edge25" class="edge"><title>13&#45;&gt;8</title>
<path fill="none" stroke="#0d1174" stroke-width="0.5" d="M145.09,-335.711C130.245,-295.907 106.948,-216.625 127.5,-153 140.615,-112.398 175.209,-77.3177 202.695,-54.5579"/>
<polygon fill="#0d1174" stroke="#0d1174" stroke-width="0.5" points="203.74,-55.2856 205.67,-52.1194 202.186,-53.3908 203.74,-55.2856"/>
<text text-anchor="middle" x="152" y="-182" font-family="Arial" font-size="10.00" fill="#0d1174">1.04%</text>
<text text-anchor="middle" x="152" y="-171" font-family="Arial" font-size="10.00" fill="#0d1174">24909959×</text>
</g>
<!-- 13&#45;&gt;12 -->
<g id="edge27" class="edge"><title>13&#45;&gt;12</title>
<path fill="none" stroke="#0d1876" stroke-width="0.5" d="M147.878,-335.924C139.957,-304.534 131.837,-250.468 156.5,-214 162.418,-205.249 171.229,-212.664 178.5,-205 186.558,-196.506 195.331,-169.065 201.296,-147.437"/>
<polygon fill="#0d1876" stroke="#0d1876" stroke-width="0.5" points="202.489,-147.719 202.229,-144.02 200.126,-147.073 202.489,-147.719"/>
<text text-anchor="middle" x="181" y="-243" font-family="Arial" font-size="10.00" fill="#0d1876">2.73%</text>
<text text-anchor="middle" x="181" y="-232" font-family="Arial" font-size="10.00" fill="#0d1876">24909105×</text>
</g>
<!-- 9&#45;&gt;10 -->
<g id="edge21" class="edge"><title>9&#45;&gt;10</title>
<path fill="none" stroke="#0d2279" stroke-width="0.5" d="M261.437,-341.128C256.359,-337.125 251.815,-332.439 248.5,-327 238.216,-310.129 236.943,-287.788 238.122,-270.105"/>
<polygon fill="#0d2279" stroke="#0d2279" stroke-width="0.5" points="239.378,-269.762 238.429,-266.177 236.935,-269.571 239.378,-269.762"/>
<text text-anchor="middle" x="273" y="-304" font-family="Arial" font-size="10.00" fill="#0d2279">4.89%</text>
<text text-anchor="middle" x="273" y="-293" font-family="Arial" font-size="10.00" fill="#0d2279">27326130×</text>
</g>
<!-- 9&#45;&gt;8 -->
<g id="edge20" class="edge"><title>9&#45;&gt;8</title>
<path fill="none" stroke="#0d317d" stroke-width="0.5" d="M302.866,-335.643C301.508,-318.44 299.19,-295.233 295.5,-275 290.471,-247.427 293.45,-238.31 279.5,-214 276.685,-209.094 272.809,-210.164 270.5,-205 244.337,-146.484 282.353,-121.947 262.5,-61 261.901,-59.1616 261.177,-57.3259 260.362,-55.5134"/>
<polygon fill="#0d317d" stroke="#0d317d" stroke-width="0.5" points="261.426,-54.9009 258.802,-52.2805 259.22,-55.9652 261.426,-54.9009"/>
<text text-anchor="middle" x="297.5" y="-182" font-family="Arial" font-size="10.00" fill="#0d317d">7.99%</text>
<text text-anchor="middle" x="297.5" y="-171" font-family="Arial" font-size="10.00" fill="#0d317d">191282910×</text>
</g>
<!-- 11&#45;&gt;8 -->
<g id="edge23" class="edge"><title>11&#45;&gt;8</title>
<path fill="none" stroke="#0d317d" stroke-width="0.5" d="M355.511,-274.97C348.238,-239.158 334.697,-175.174 326.5,-153 310.509,-109.742 306.809,-97.4088 278.5,-61 276.856,-58.886 275.07,-56.7968 273.199,-54.7562"/>
<polygon fill="#0d317d" stroke="#0d317d" stroke-width="0.5" points="273.894,-53.7079 270.599,-52.0057 272.113,-55.3908 273.894,-53.7079"/>
<text text-anchor="middle" x="367.5" y="-182" font-family="Arial" font-size="10.00" fill="#0d317d">7.99%</text>
<text text-anchor="middle" x="367.5" y="-171" font-family="Arial" font-size="10.00" fill="#0d317d">191282910×</text>
</g>
<!-- 18&#45;&gt;8 -->
<g id="edge31" class="edge"><title>18&#45;&gt;8</title>
<path fill="none" stroke="#0d1b77" stroke-width="0.5" d="M425.663,-152.904C409.828,-126.408 381.506,-85.1959 346.5,-61 326.512,-47.1843 300.59,-38.7382 279.383,-33.7197"/>
<polygon fill="#0d1b77" stroke="#0d1b77" stroke-width="0.5" points="279.438,-32.4753 275.752,-32.8828 278.888,-34.8627 279.438,-32.4753"/>
<text text-anchor="middle" x="445" y="-121" font-family="Arial" font-size="10.00" fill="#0d1b77">3.43%</text>
<text text-anchor="middle" x="445" y="-110" font-family="Arial" font-size="10.00" fill="#0d1b77">81978390×</text>
</g>
<!-- 12&#45;&gt;8 -->
<g id="edge24" class="edge"><title>12&#45;&gt;8</title>
<path fill="none" stroke="#0d1e78" stroke-width="0.5" d="M208.934,-91.7895C209.795,-81.9073 211.656,-70.648 215.5,-61 216.246,-59.1283 217.12,-57.2663 218.086,-55.4337"/>
<polygon fill="#0d1e78" stroke="#0d1e78" stroke-width="0.5" points="219.273,-55.8226 219.917,-52.1707 217.136,-54.6237 219.273,-55.8226"/>
<text text-anchor="middle" x="240" y="-75" font-family="Arial" font-size="10.00" fill="#0d1e78">4.13%</text>
<text text-anchor="middle" x="240" y="-64" font-family="Arial" font-size="10.00" fill="#0d1e78">98873346×</text>
</g>
</g>
</svg>
