<?xml version="1.0" encoding="UTF-8" standalone="no"?>
<!DOCTYPE svg PUBLIC "-//W3C//DTD SVG 1.1//EN"
 "http://www.w3.org/Graphics/SVG/1.1/DTD/svg11.dtd">
<!-- Generated by graphviz version 2.38.0 (20140413.2041)
 -->
<!-- Title: %3 Pages: 1 -->
<svg width="323pt" height="785pt"
 viewBox="0.00 0.00 323.00 785.00" xmlns="http://www.w3.org/2000/svg" xmlns:xlink="http://www.w3.org/1999/xlink">
<g id="graph0" class="graph" transform="scale(1 1) rotate(0) translate(4 781)">
<title>%3</title>
<polygon fill="white" stroke="none" points="-4,4 -4,-781 319,-781 319,4 -4,4"/>
<!-- 1 -->
<g id="node1" class="node"><title>1</title>
<polygon fill="#ff0000" stroke="#ff0000" points="111,-777 56,-777 56,-736 111,-736 111,-777"/>
<text text-anchor="middle" x="83.5" y="-765" font-family="Arial" font-size="10.00" fill="#ffffff">main</text>
<text text-anchor="middle" x="83.5" y="-754" font-family="Arial" font-size="10.00" fill="#ffffff">100.00%</text>
<text text-anchor="middle" x="83.5" y="-743" font-family="Arial" font-size="10.00" fill="#ffffff">(0.00%)</text>
</g>
<!-- 2 -->
<g id="node2" class="node"><title>2</title>
<polygon fill="#1cb909" stroke="#1cb909" points="118.5,-696 48.5,-696 48.5,-644 118.5,-644 118.5,-696"/>
<text text-anchor="middle" x="83.5" y="-684" font-family="Arial" font-size="10.00" fill="#ffffff">rt_precalc_d</text>
<text text-anchor="middle" x="83.5" y="-673" font-family="Arial" font-size="10.00" fill="#ffffff">52.63%</text>
<text text-anchor="middle" x="83.5" y="-662" font-family="Arial" font-size="10.00" fill="#ffffff">(3.12%)</text>
<text text-anchor="middle" x="83.5" y="-651" font-family="Arial" font-size="10.00" fill="#ffffff">1×</text>
</g>
<!-- 1&#45;&gt;2 -->
<g id="edge1" class="edge"><title>1&#45;&gt;2</title>
<path fill="none" stroke="#1cb909" stroke-width="2.11" d="M83.5,-735.902C83.5,-726.315 83.5,-714.52 83.5,-703.626"/>
<polygon fill="#1cb909" stroke="#1cb909" stroke-width="2.11" points="86.0551,-703.567 83.5,-696.267 80.9451,-703.567 86.0551,-703.567"/>
<text text-anchor="middle" x="100.5" y="-719" font-family="Arial" font-size="10.00" fill="#1cb909">52.63%</text>
<text text-anchor="middle" x="100.5" y="-708" font-family="Arial" font-size="10.00" fill="#1cb909">1×</text>
</g>
<!-- 3 -->
<g id="node3" class="node"><title>3</title>
<polygon fill="#0ab60a" stroke="#0ab60a" points="69,-604 0,-604 0,-552 69,-552 69,-604"/>
<text text-anchor="middle" x="34.5" y="-592" font-family="Arial" font-size="10.00" fill="#ffffff">ft_memalloc</text>
<text text-anchor="middle" x="34.5" y="-581" font-family="Arial" font-size="10.00" fill="#ffffff">50.00%</text>
<text text-anchor="middle" x="34.5" y="-570" font-family="Arial" font-size="10.00" fill="#ffffff">(0.00%)</text>
<text text-anchor="middle" x="34.5" y="-559" font-family="Arial" font-size="10.00" fill="#ffffff">405×</text>
</g>
<!-- 1&#45;&gt;3 -->
<g id="edge2" class="edge"><title>1&#45;&gt;3</title>
<path fill="none" stroke="#0d0d73" stroke-width="0.5" d="M55.7228,-739.464C40.797,-729.16 23.797,-714.285 15.5,-696 2.6944,-667.779 11.5296,-632.273 20.9763,-607.819"/>
<polygon fill="#0d0d73" stroke="#0d0d73" stroke-width="0.5" points="22.2227,-607.998 22.372,-604.293 19.9447,-607.097 22.2227,-607.998"/>
<text text-anchor="middle" x="29.5" y="-673" font-family="Arial" font-size="10.00" fill="#0d0d73">0.12%</text>
<text text-anchor="middle" x="29.5" y="-662" font-family="Arial" font-size="10.00" fill="#0d0d73">1×</text>
</g>
<!-- 6 -->
<g id="node4" class="node"><title>6</title>
<polygon fill="#0ab11f" stroke="#0ab11f" points="247,-696 128,-696 128,-644 247,-644 247,-696"/>
<text text-anchor="middle" x="187.5" y="-684" font-family="Arial" font-size="10.00" fill="#ffffff">rt_sdl_fake_render_loop</text>
<text text-anchor="middle" x="187.5" y="-673" font-family="Arial" font-size="10.00" fill="#ffffff">46.87%</text>
<text text-anchor="middle" x="187.5" y="-662" font-family="Arial" font-size="10.00" fill="#ffffff">(0.00%)</text>
<text text-anchor="middle" x="187.5" y="-651" font-family="Arial" font-size="10.00" fill="#ffffff">1×</text>
</g>
<!-- 1&#45;&gt;6 -->
<g id="edge3" class="edge"><title>1&#45;&gt;6</title>
<path fill="none" stroke="#0ab11f" stroke-width="1.87" d="M108.338,-735.939C112.088,-732.956 115.903,-729.905 119.5,-727 130.038,-718.491 141.423,-709.167 151.808,-700.611"/>
<polygon fill="#0ab11f" stroke="#0ab11f" stroke-width="1.87" points="153.406,-702.378 157.137,-696.215 150.377,-698.706 153.406,-702.378"/>
<text text-anchor="middle" x="162.5" y="-719" font-family="Arial" font-size="10.00" fill="#0ab11f">46.87%</text>
<text text-anchor="middle" x="162.5" y="-708" font-family="Arial" font-size="10.00" fill="#0ab11f">1×</text>
</g>
<!-- 2&#45;&gt;3 -->
<g id="edge4" class="edge"><title>2&#45;&gt;3</title>
<path fill="none" stroke="#0ab50d" stroke-width="1.98" d="M69.8508,-643.93C64.2169,-633.582 57.6236,-621.472 51.6673,-610.532"/>
<polygon fill="#0ab50d" stroke="#0ab50d" stroke-width="1.98" points="53.745,-609.224 48.246,-604.248 49.4414,-611.567 53.745,-609.224"/>
<text text-anchor="middle" x="82.5" y="-627" font-family="Arial" font-size="10.00" fill="#0ab50d">49.51%</text>
<text text-anchor="middle" x="82.5" y="-616" font-family="Arial" font-size="10.00" fill="#0ab50d">401×</text>
</g>
<!-- 4 -->
<g id="node5" class="node"><title>4</title>
<polygon fill="#0ab60a" stroke="#0ab60a" points="65.5,-512 3.5,-512 3.5,-460 65.5,-460 65.5,-512"/>
<text text-anchor="middle" x="34.5" y="-500" font-family="Arial" font-size="10.00" fill="#ffffff">ft_memset</text>
<text text-anchor="middle" x="34.5" y="-489" font-family="Arial" font-size="10.00" fill="#ffffff">50.00%</text>
<text text-anchor="middle" x="34.5" y="-478" font-family="Arial" font-size="10.00" fill="#ffffff">(50.00%)</text>
<text text-anchor="middle" x="34.5" y="-467" font-family="Arial" font-size="10.00" fill="#ffffff">405×</text>
</g>
<!-- 3&#45;&gt;4 -->
<g id="edge5" class="edge"><title>3&#45;&gt;4</title>
<path fill="none" stroke="#0ab60a" stroke-width="2" d="M34.5,-551.93C34.5,-541.872 34.5,-530.15 34.5,-519.455"/>
<polygon fill="#0ab60a" stroke="#0ab60a" stroke-width="2" points="36.9851,-519.348 34.5,-512.248 32.0151,-519.348 36.9851,-519.348"/>
<text text-anchor="middle" x="51.5" y="-535" font-family="Arial" font-size="10.00" fill="#0ab60a">50.00%</text>
<text text-anchor="middle" x="51.5" y="-524" font-family="Arial" font-size="10.00" fill="#0ab60a">405×</text>
</g>
<!-- 5 -->
<g id="node6" class="node"><title>5</title>
<polygon fill="#0ab11f" stroke="#0ab11f" points="221.5,-604 153.5,-604 153.5,-552 221.5,-552 221.5,-604"/>
<text text-anchor="middle" x="187.5" y="-592" font-family="Arial" font-size="10.00" fill="#ffffff">rt_rendering</text>
<text text-anchor="middle" x="187.5" y="-581" font-family="Arial" font-size="10.00" fill="#ffffff">46.87%</text>
<text text-anchor="middle" x="187.5" y="-570" font-family="Arial" font-size="10.00" fill="#ffffff">(9.37%)</text>
<text text-anchor="middle" x="187.5" y="-559" font-family="Arial" font-size="10.00" fill="#ffffff">1×</text>
</g>
<!-- 6&#45;&gt;5 -->
<g id="edge7" class="edge"><title>6&#45;&gt;5</title>
<path fill="none" stroke="#0ab11f" stroke-width="1.87" d="M187.5,-643.93C187.5,-633.775 187.5,-621.924 187.5,-611.146"/>
<polygon fill="#0ab11f" stroke="#0ab11f" stroke-width="1.87" points="189.88,-611.048 187.5,-604.248 185.12,-611.048 189.88,-611.048"/>
<text text-anchor="middle" x="204.5" y="-627" font-family="Arial" font-size="10.00" fill="#0ab11f">46.87%</text>
<text text-anchor="middle" x="204.5" y="-616" font-family="Arial" font-size="10.00" fill="#0ab11f">1×</text>
</g>
<!-- 7 -->
<g id="node7" class="node"><title>7</title>
<polygon fill="#0ba458" stroke="#0ba458" points="223,-512 152,-512 152,-460 223,-460 223,-512"/>
<text text-anchor="middle" x="187.5" y="-500" font-family="Arial" font-size="10.00" fill="#ffffff">rt_raytracing</text>
<text text-anchor="middle" x="187.5" y="-489" font-family="Arial" font-size="10.00" fill="#ffffff">37.50%</text>
<text text-anchor="middle" x="187.5" y="-478" font-family="Arial" font-size="10.00" fill="#ffffff">(0.00%)</text>
<text text-anchor="middle" x="187.5" y="-467" font-family="Arial" font-size="10.00" fill="#ffffff">320000×</text>
</g>
<!-- 5&#45;&gt;7 -->
<g id="edge6" class="edge"><title>5&#45;&gt;7</title>
<path fill="none" stroke="#0ba458" stroke-width="1.5" d="M187.5,-551.93C187.5,-541.582 187.5,-529.472 187.5,-518.532"/>
<polygon fill="#0ba458" stroke="#0ba458" stroke-width="1.5" points="189.635,-518.348 187.5,-512.248 185.365,-518.348 189.635,-518.348"/>
<text text-anchor="middle" x="206.5" y="-535" font-family="Arial" font-size="10.00" fill="#0ba458">37.50%</text>
<text text-anchor="middle" x="206.5" y="-524" font-family="Arial" font-size="10.00" fill="#0ba458">320000×</text>
</g>
<!-- 8 -->
<g id="node8" class="node"><title>8</title>
<polygon fill="#0c8c92" stroke="#0c8c92" points="219.5,-420 155.5,-420 155.5,-368 219.5,-368 219.5,-420"/>
<text text-anchor="middle" x="187.5" y="-408" font-family="Arial" font-size="10.00" fill="#ffffff">rt_lightning</text>
<text text-anchor="middle" x="187.5" y="-397" font-family="Arial" font-size="10.00" fill="#ffffff">23.86%</text>
<text text-anchor="middle" x="187.5" y="-386" font-family="Arial" font-size="10.00" fill="#ffffff">(6.25%)</text>
<text text-anchor="middle" x="187.5" y="-375" font-family="Arial" font-size="10.00" fill="#ffffff">89793×</text>
</g>
<!-- 7&#45;&gt;8 -->
<g id="edge8" class="edge"><title>7&#45;&gt;8</title>
<path fill="none" stroke="#0c8c92" stroke-width="0.95" d="M187.5,-459.93C187.5,-449.195 187.5,-436.564 187.5,-425.31"/>
<polygon fill="#0c8c92" stroke="#0c8c92" stroke-width="0.95" points="189.215,-425.148 187.5,-420.248 185.785,-425.148 189.215,-425.148"/>
<text text-anchor="middle" x="204.5" y="-443" font-family="Arial" font-size="10.00" fill="#0c8c92">23.86%</text>
<text text-anchor="middle" x="204.5" y="-432" font-family="Arial" font-size="10.00" fill="#0c8c92">89793×</text>
</g>
<!-- 9 -->
<g id="node9" class="node"><title>9</title>
<polygon fill="#0d4983" stroke="#0d4983" points="315,-328 232,-328 232,-276 315,-276 315,-328"/>
<text text-anchor="middle" x="273.5" y="-316" font-family="Arial" font-size="10.00" fill="#ffffff">rt_closest_inter</text>
<text text-anchor="middle" x="273.5" y="-305" font-family="Arial" font-size="10.00" fill="#ffffff">12.77%</text>
<text text-anchor="middle" x="273.5" y="-294" font-family="Arial" font-size="10.00" fill="#ffffff">(3.12%)</text>
<text text-anchor="middle" x="273.5" y="-283" font-family="Arial" font-size="10.00" fill="#ffffff">409793×</text>
</g>
<!-- 7&#45;&gt;9 -->
<g id="edge9" class="edge"><title>7&#45;&gt;9</title>
<path fill="none" stroke="#0d3a80" stroke-width="0.5" d="M216.062,-459.936C218.723,-457.05 221.258,-454.047 223.5,-451 250.48,-414.339 256.272,-402.845 268.5,-359 270.909,-350.362 272.233,-340.711 272.94,-331.887"/>
<polygon fill="#0d3a80" stroke="#0d3a80" stroke-width="0.5" points="274.179,-331.74 273.207,-328.162 271.735,-331.565 274.179,-331.74"/>
<text text-anchor="middle" x="284.5" y="-397" font-family="Arial" font-size="10.00" fill="#0d3a80">9.97%</text>
<text text-anchor="middle" x="284.5" y="-386" font-family="Arial" font-size="10.00" fill="#0d3a80">320000×</text>
</g>
<!-- 16 -->
<g id="node10" class="node"><title>16</title>
<polygon fill="#0d247a" stroke="#0d247a" points="128.5,-236 74.5,-236 74.5,-184 128.5,-184 128.5,-236"/>
<text text-anchor="middle" x="101.5" y="-224" font-family="Arial" font-size="10.00" fill="#ffffff">v_norm</text>
<text text-anchor="middle" x="101.5" y="-213" font-family="Arial" font-size="10.00" fill="#ffffff">5.27%</text>
<text text-anchor="middle" x="101.5" y="-202" font-family="Arial" font-size="10.00" fill="#ffffff">(0.00%)</text>
<text text-anchor="middle" x="101.5" y="-191" font-family="Arial" font-size="10.00" fill="#ffffff">589100×</text>
</g>
<!-- 7&#45;&gt;16 -->
<g id="edge10" class="edge"><title>7&#45;&gt;16</title>
<path fill="none" stroke="#0d1c77" stroke-width="0.5" d="M153.654,-459.973C119.186,-432.165 67.8647,-383.763 46.5,-328 38.2315,-306.419 38.5508,-297.701 46.5,-276 51.7498,-261.668 61.7116,-248.324 71.7305,-237.501"/>
<polygon fill="#0d1c77" stroke="#0d1c77" stroke-width="0.5" points="72.764,-238.191 74.2761,-234.805 70.9826,-236.509 72.764,-238.191"/>
<text text-anchor="middle" x="80.5" y="-351" font-family="Arial" font-size="10.00" fill="#0d1c77">3.67%</text>
<text text-anchor="middle" x="80.5" y="-340" font-family="Arial" font-size="10.00" fill="#0d1c77">409793×</text>
</g>
<!-- 8&#45;&gt;9 -->
<g id="edge11" class="edge"><title>8&#45;&gt;9</title>
<path fill="none" stroke="#0d1976" stroke-width="0.5" d="M213.565,-367.792C216.31,-364.887 219.005,-361.919 221.5,-359 229.354,-349.808 229.515,-346.078 237.5,-337 239.296,-334.959 241.197,-332.903 243.15,-330.867"/>
<polygon fill="#0d1976" stroke="#0d1976" stroke-width="0.5" points="244.275,-331.468 245.842,-328.107 242.521,-329.757 244.275,-331.468"/>
<text text-anchor="middle" x="254" y="-351" font-family="Arial" font-size="10.00" fill="#0d1976">2.80%</text>
<text text-anchor="middle" x="254" y="-340" font-family="Arial" font-size="10.00" fill="#0d1976">89793×</text>
</g>
<!-- 13 -->
<g id="node11" class="node"><title>13</title>
<polygon fill="#0d337e" stroke="#0d337e" points="151.5,-328 51.5,-328 51.5,-276 151.5,-276 151.5,-328"/>
<text text-anchor="middle" x="101.5" y="-316" font-family="Arial" font-size="10.00" fill="#ffffff">s_calc_light_intens</text>
<text text-anchor="middle" x="101.5" y="-305" font-family="Arial" font-size="10.00" fill="#ffffff">8.56%</text>
<text text-anchor="middle" x="101.5" y="-294" font-family="Arial" font-size="10.00" fill="#ffffff">(3.12%)</text>
<text text-anchor="middle" x="101.5" y="-283" font-family="Arial" font-size="10.00" fill="#ffffff">89653×</text>
</g>
<!-- 8&#45;&gt;13 -->
<g id="edge12" class="edge"><title>8&#45;&gt;13</title>
<path fill="none" stroke="#0d337e" stroke-width="0.5" d="M162.144,-367.852C159.213,-364.884 156.28,-361.885 153.5,-359 144.823,-349.996 135.487,-340.031 127.153,-331.034"/>
<polygon fill="#0d337e" stroke="#0d337e" stroke-width="0.5" points="127.877,-330.012 124.601,-328.275 126.078,-331.676 127.877,-330.012"/>
<text text-anchor="middle" x="170" y="-351" font-family="Arial" font-size="10.00" fill="#0d337e">8.56%</text>
<text text-anchor="middle" x="170" y="-340" font-family="Arial" font-size="10.00" fill="#0d337e">89653×</text>
</g>
<!-- 15 -->
<g id="node12" class="node"><title>15</title>
<polygon fill="#0d287b" stroke="#0d287b" points="222.5,-328 160.5,-328 160.5,-276 222.5,-276 222.5,-328"/>
<text text-anchor="middle" x="191.5" y="-316" font-family="Arial" font-size="10.00" fill="#ffffff">sdl_clr_div</text>
<text text-anchor="middle" x="191.5" y="-305" font-family="Arial" font-size="10.00" fill="#ffffff">6.25%</text>
<text text-anchor="middle" x="191.5" y="-294" font-family="Arial" font-size="10.00" fill="#ffffff">(6.25%)</text>
<text text-anchor="middle" x="191.5" y="-283" font-family="Arial" font-size="10.00" fill="#ffffff">89793×</text>
</g>
<!-- 8&#45;&gt;15 -->
<g id="edge13" class="edge"><title>8&#45;&gt;15</title>
<path fill="none" stroke="#0d287b" stroke-width="0.5" d="M188.614,-367.93C189.113,-356.712 189.703,-343.422 190.22,-331.798"/>
<polygon fill="#0d287b" stroke="#0d287b" stroke-width="0.5" points="191.446,-331.799 190.378,-328.248 188.999,-331.69 191.446,-331.799"/>
<text text-anchor="middle" x="206" y="-351" font-family="Arial" font-size="10.00" fill="#0d287b">6.25%</text>
<text text-anchor="middle" x="206" y="-340" font-family="Arial" font-size="10.00" fill="#0d287b">89793×</text>
</g>
<!-- 12 -->
<g id="node13" class="node"><title>12</title>
<polygon fill="#0d397f" stroke="#0d397f" points="289,-236 212,-236 212,-184 289,-184 289,-236"/>
<text text-anchor="middle" x="250.5" y="-224" font-family="Arial" font-size="10.00" fill="#ffffff">s_intersection</text>
<text text-anchor="middle" x="250.5" y="-213" font-family="Arial" font-size="10.00" fill="#ffffff">9.65%</text>
<text text-anchor="middle" x="250.5" y="-202" font-family="Arial" font-size="10.00" fill="#ffffff">(0.00%)</text>
<text text-anchor="middle" x="250.5" y="-191" font-family="Arial" font-size="10.00" fill="#ffffff">409793×</text>
</g>
<!-- 9&#45;&gt;12 -->
<g id="edge14" class="edge"><title>9&#45;&gt;12</title>
<path fill="none" stroke="#0d397f" stroke-width="0.5" d="M267.093,-275.93C264.226,-264.712 260.83,-251.422 257.859,-239.798"/>
<polygon fill="#0d397f" stroke="#0d397f" stroke-width="0.5" points="259.006,-239.335 256.952,-236.248 256.632,-239.942 259.006,-239.335"/>
<text text-anchor="middle" x="283.5" y="-259" font-family="Arial" font-size="10.00" fill="#0d397f">9.65%</text>
<text text-anchor="middle" x="283.5" y="-248" font-family="Arial" font-size="10.00" fill="#0d397f">409793×</text>
</g>
<!-- 14 -->
<g id="node16" class="node"><title>14</title>
<polygon fill="#0d2f7d" stroke="#0d2f7d" points="143.5,-144 89.5,-144 89.5,-92 143.5,-92 143.5,-144"/>
<text text-anchor="middle" x="116.5" y="-132" font-family="Arial" font-size="10.00" fill="#ffffff">v_len</text>
<text text-anchor="middle" x="116.5" y="-121" font-family="Arial" font-size="10.00" fill="#ffffff">7.68%</text>
<text text-anchor="middle" x="116.5" y="-110" font-family="Arial" font-size="10.00" fill="#ffffff">(3.12%)</text>
<text text-anchor="middle" x="116.5" y="-99" font-family="Arial" font-size="10.00" fill="#ffffff">858059×</text>
</g>
<!-- 16&#45;&gt;14 -->
<g id="edge21" class="edge"><title>16&#45;&gt;14</title>
<path fill="none" stroke="#0d247a" stroke-width="0.5" d="M105.678,-183.93C107.548,-172.712 109.763,-159.422 111.7,-147.798"/>
<polygon fill="#0d247a" stroke="#0d247a" stroke-width="0.5" points="112.925,-147.902 112.292,-144.248 110.508,-147.499 112.925,-147.902"/>
<text text-anchor="middle" x="130.5" y="-167" font-family="Arial" font-size="10.00" fill="#0d247a">5.27%</text>
<text text-anchor="middle" x="130.5" y="-156" font-family="Arial" font-size="10.00" fill="#0d247a">589100×</text>
</g>
<!-- 13&#45;&gt;16 -->
<g id="edge19" class="edge"><title>13&#45;&gt;16</title>
<path fill="none" stroke="#0d1375" stroke-width="0.5" d="M101.5,-275.93C101.5,-264.712 101.5,-251.422 101.5,-239.798"/>
<polygon fill="#0d1375" stroke="#0d1375" stroke-width="0.5" points="102.725,-239.748 101.5,-236.248 100.275,-239.748 102.725,-239.748"/>
<text text-anchor="middle" x="120.5" y="-259" font-family="Arial" font-size="10.00" fill="#0d1375">1.60%</text>
<text text-anchor="middle" x="120.5" y="-248" font-family="Arial" font-size="10.00" fill="#0d1375">179306×</text>
</g>
<!-- 10 -->
<g id="node14" class="node"><title>10</title>
<polygon fill="#0d4883" stroke="#0d4883" points="146,-52 87,-52 87,-0 146,-0 146,-52"/>
<text text-anchor="middle" x="116.5" y="-40" font-family="Arial" font-size="10.00" fill="#ffffff">v_dot</text>
<text text-anchor="middle" x="116.5" y="-29" font-family="Arial" font-size="10.00" fill="#ffffff">12.50%</text>
<text text-anchor="middle" x="116.5" y="-18" font-family="Arial" font-size="10.00" fill="#ffffff">(12.50%)</text>
<text text-anchor="middle" x="116.5" y="-7" font-family="Arial" font-size="10.00" fill="#ffffff">2356397×</text>
</g>
<!-- 13&#45;&gt;10 -->
<g id="edge17" class="edge"><title>13&#45;&gt;10</title>
<path fill="none" stroke="#0d1375" stroke-width="0.5" d="M85.9291,-275.72C79.5883,-264.069 72.9492,-249.788 69.5,-236 60.5453,-200.203 62.5009,-189.559 67.5,-153 71.3129,-125.115 74.4636,-118.294 84.5,-92 89.1747,-79.7531 95.3467,-66.705 101.022,-55.5378"/>
<polygon fill="#0d1375" stroke="#0d1375" stroke-width="0.5" points="102.26,-55.809 102.765,-52.1355 100.079,-54.6918 102.26,-55.809"/>
<text text-anchor="middle" x="86.5" y="-167" font-family="Arial" font-size="10.00" fill="#0d1375">1.43%</text>
<text text-anchor="middle" x="86.5" y="-156" font-family="Arial" font-size="10.00" fill="#0d1375">268959×</text>
</g>
<!-- 13&#45;&gt;14 -->
<g id="edge18" class="edge"><title>13&#45;&gt;14</title>
<path fill="none" stroke="#0d1776" stroke-width="0.5" d="M135.734,-275.757C137.97,-273.02 139.945,-270.095 141.5,-267 164.284,-221.667 165.83,-200.31 147.5,-153 146.779,-151.138 145.902,-149.315 144.909,-147.542"/>
<polygon fill="#0d1776" stroke="#0d1776" stroke-width="0.5" points="145.866,-146.759 143.001,-144.406 143.773,-148.033 145.866,-146.759"/>
<text text-anchor="middle" x="178.5" y="-213" font-family="Arial" font-size="10.00" fill="#0d1776">2.41%</text>
<text text-anchor="middle" x="178.5" y="-202" font-family="Arial" font-size="10.00" fill="#0d1776">268959×</text>
</g>
<!-- 11 -->
<g id="node15" class="node"><title>11</title>
<polygon fill="#0d397f" stroke="#0d397f" points="250,-144 169,-144 169,-92 250,-92 250,-144"/>
<text text-anchor="middle" x="209.5" y="-132" font-family="Arial" font-size="10.00" fill="#ffffff">rt_inter_sphere</text>
<text text-anchor="middle" x="209.5" y="-121" font-family="Arial" font-size="10.00" fill="#ffffff">9.65%</text>
<text text-anchor="middle" x="209.5" y="-110" font-family="Arial" font-size="10.00" fill="#ffffff">(3.12%)</text>
<text text-anchor="middle" x="209.5" y="-99" font-family="Arial" font-size="10.00" fill="#ffffff">409793×</text>
</g>
<!-- 12&#45;&gt;11 -->
<g id="edge16" class="edge"><title>12&#45;&gt;11</title>
<path fill="none" stroke="#0d397f" stroke-width="0.5" d="M239.079,-183.93C233.925,-172.615 227.81,-159.193 222.482,-147.497"/>
<polygon fill="#0d397f" stroke="#0d397f" stroke-width="0.5" points="223.568,-146.925 221.002,-144.248 221.338,-147.941 223.568,-146.925"/>
<text text-anchor="middle" x="253.5" y="-167" font-family="Arial" font-size="10.00" fill="#0d397f">9.65%</text>
<text text-anchor="middle" x="253.5" y="-156" font-family="Arial" font-size="10.00" fill="#0d397f">409793×</text>
</g>
<!-- 11&#45;&gt;10 -->
<g id="edge15" class="edge"><title>11&#45;&gt;10</title>
<path fill="none" stroke="#0d2a7b" stroke-width="0.5" d="M186.841,-91.9068C177.654,-82.0408 166.798,-70.7619 156.5,-61 154.02,-58.6486 151.408,-56.2565 148.756,-53.8862"/>
<polygon fill="#0d2a7b" stroke="#0d2a7b" stroke-width="0.5" points="149.525,-52.9313 146.094,-51.5253 147.9,-54.7643 149.525,-52.9313"/>
<text text-anchor="middle" x="198" y="-75" font-family="Arial" font-size="10.00" fill="#0d2a7b">6.52%</text>
<text text-anchor="middle" x="198" y="-64" font-family="Arial" font-size="10.00" fill="#0d2a7b">1229379×</text>
</g>
<!-- 14&#45;&gt;10 -->
<g id="edge20" class="edge"><title>14&#45;&gt;10</title>
<path fill="none" stroke="#0d2079" stroke-width="0.5" d="M116.5,-91.93C116.5,-80.7116 116.5,-67.4223 116.5,-55.7978"/>
<polygon fill="#0d2079" stroke="#0d2079" stroke-width="0.5" points="117.725,-55.7477 116.5,-52.2477 115.275,-55.7478 117.725,-55.7477"/>
<text text-anchor="middle" x="135.5" y="-75" font-family="Arial" font-size="10.00" fill="#0d2079">4.55%</text>
<text text-anchor="middle" x="135.5" y="-64" font-family="Arial" font-size="10.00" fill="#0d2079">858059×</text>
</g>
</g>
</svg>
