<?xml version="1.0" encoding="UTF-8" standalone="no"?>
<!DOCTYPE svg PUBLIC "-//W3C//DTD SVG 1.1//EN"
 "http://www.w3.org/Graphics/SVG/1.1/DTD/svg11.dtd">
<!-- Generated by graphviz version 2.38.0 (20140413.2041)
 -->
<!-- Title: %3 Pages: 1 -->
<svg width="591pt" height="1119pt"
 viewBox="0.00 0.00 591.00 1119.00" xmlns="http://www.w3.org/2000/svg" xmlns:xlink="http://www.w3.org/1999/xlink">
<g id="graph0" class="graph" transform="scale(1 1) rotate(0) translate(4 1115)">
<title>%3</title>
<polygon fill="white" stroke="none" points="-4,4 -4,-1115 587,-1115 587,4 -4,4"/>
<!-- 1 -->
<g id="node1" class="node"><title>1</title>
<polygon fill="#ff0200" stroke="#ff0200" points="367,-1111 317,-1111 317,-1070 367,-1070 367,-1111"/>
<text text-anchor="middle" x="342" y="-1099" font-family="Arial" font-size="10.00" fill="#ffffff">main</text>
<text text-anchor="middle" x="342" y="-1088" font-family="Arial" font-size="10.00" fill="#ffffff">99.77%</text>
<text text-anchor="middle" x="342" y="-1077" font-family="Arial" font-size="10.00" fill="#ffffff">(0.00%)</text>
</g>
<!-- 2 -->
<g id="node2" class="node"><title>2</title>
<polygon fill="#fe0900" stroke="#fe0900" points="322,-1030 226,-1030 226,-978 322,-978 322,-1030"/>
<text text-anchor="middle" x="274" y="-1018" font-family="Arial" font-size="10.00" fill="#ffffff">rt_sdl_render_loop</text>
<text text-anchor="middle" x="274" y="-1007" font-family="Arial" font-size="10.00" fill="#ffffff">99.16%</text>
<text text-anchor="middle" x="274" y="-996" font-family="Arial" font-size="10.00" fill="#ffffff">(0.00%)</text>
<text text-anchor="middle" x="274" y="-985" font-family="Arial" font-size="10.00" fill="#ffffff">1×</text>
</g>
<!-- 1&#45;&gt;2 -->
<g id="edge1" class="edge"><title>1&#45;&gt;2</title>
<path fill="none" stroke="#fe0900" stroke-width="3.97" d="M322.787,-1069.86C320.112,-1066.94 317.445,-1063.93 315,-1061 308.992,-1053.8 302.847,-1045.8 297.204,-1038.15"/>
<polygon fill="#fe0900" stroke="#fe0900" stroke-width="3.97" points="300.021,-1036.07 291.307,-1030.05 294.36,-1040.19 300.021,-1036.07"/>
<text text-anchor="middle" x="332" y="-1053" font-family="Arial" font-size="10.00" fill="#fe0900">99.16%</text>
<text text-anchor="middle" x="332" y="-1042" font-family="Arial" font-size="10.00" fill="#fe0900">1×</text>
</g>
<!-- 20 -->
<g id="node3" class="node"><title>20</title>
<polygon fill="#0d0f74" stroke="#0d0f74" points="401,-1030 331,-1030 331,-978 401,-978 401,-1030"/>
<text text-anchor="middle" x="366" y="-1018" font-family="Arial" font-size="10.00" fill="#ffffff">rt_precalc_d</text>
<text text-anchor="middle" x="366" y="-1007" font-family="Arial" font-size="10.00" fill="#ffffff">0.60%</text>
<text text-anchor="middle" x="366" y="-996" font-family="Arial" font-size="10.00" fill="#ffffff">(0.23%)</text>
<text text-anchor="middle" x="366" y="-985" font-family="Arial" font-size="10.00" fill="#ffffff">1×</text>
</g>
<!-- 1&#45;&gt;20 -->
<g id="edge2" class="edge"><title>1&#45;&gt;20</title>
<path fill="none" stroke="#0d0f74" stroke-width="0.5" d="M347.566,-1069.9C350.603,-1059.21 354.421,-1045.77 357.793,-1033.9"/>
<polygon fill="#0d0f74" stroke="#0d0f74" stroke-width="0.5" points="359.046,-1033.97 358.824,-1030.27 356.689,-1033.3 359.046,-1033.97"/>
<text text-anchor="middle" x="371" y="-1053" font-family="Arial" font-size="10.00" fill="#0d0f74">0.60%</text>
<text text-anchor="middle" x="371" y="-1042" font-family="Arial" font-size="10.00" fill="#0d0f74">1×</text>
</g>
<!-- 3 -->
<g id="node4" class="node"><title>3</title>
<polygon fill="#fd0b00" stroke="#fd0b00" points="308,-938 240,-938 240,-886 308,-886 308,-938"/>
<text text-anchor="middle" x="274" y="-926" font-family="Arial" font-size="10.00" fill="#ffffff">rt_rendering</text>
<text text-anchor="middle" x="274" y="-915" font-family="Arial" font-size="10.00" fill="#ffffff">98.92%</text>
<text text-anchor="middle" x="274" y="-904" font-family="Arial" font-size="10.00" fill="#ffffff">(1.39%)</text>
<text text-anchor="middle" x="274" y="-893" font-family="Arial" font-size="10.00" fill="#ffffff">24×</text>
</g>
<!-- 2&#45;&gt;3 -->
<g id="edge3" class="edge"><title>2&#45;&gt;3</title>
<path fill="none" stroke="#fd0b00" stroke-width="3.96" d="M274,-977.93C274,-968.743 274,-958.166 274,-948.253"/>
<polygon fill="#fd0b00" stroke="#fd0b00" stroke-width="3.96" points="277.465,-948.148 274,-938.248 270.535,-948.148 277.465,-948.148"/>
<text text-anchor="middle" x="291" y="-961" font-family="Arial" font-size="10.00" fill="#fd0b00">98.92%</text>
<text text-anchor="middle" x="291" y="-950" font-family="Arial" font-size="10.00" fill="#fd0b00">24×</text>
</g>
<!-- 4 -->
<g id="node5" class="node"><title>4</title>
<polygon fill="#fa2101" stroke="#fa2101" points="309.5,-846 238.5,-846 238.5,-794 309.5,-794 309.5,-846"/>
<text text-anchor="middle" x="274" y="-834" font-family="Arial" font-size="10.00" fill="#ffffff">rt_raytracing</text>
<text text-anchor="middle" x="274" y="-823" font-family="Arial" font-size="10.00" fill="#ffffff">96.76%</text>
<text text-anchor="middle" x="274" y="-812" font-family="Arial" font-size="10.00" fill="#ffffff">(2.31%)</text>
<text text-anchor="middle" x="274" y="-801" font-family="Arial" font-size="10.00" fill="#ffffff">7680000×</text>
</g>
<!-- 3&#45;&gt;4 -->
<g id="edge4" class="edge"><title>3&#45;&gt;4</title>
<path fill="none" stroke="#fa2101" stroke-width="3.87" d="M274,-885.93C274,-876.743 274,-866.166 274,-856.253"/>
<polygon fill="#fa2101" stroke="#fa2101" stroke-width="3.87" points="277.43,-856.048 274,-846.248 270.57,-856.048 277.43,-856.048"/>
<text text-anchor="middle" x="295.5" y="-869" font-family="Arial" font-size="10.00" fill="#fa2101">96.76%</text>
<text text-anchor="middle" x="295.5" y="-858" font-family="Arial" font-size="10.00" fill="#fa2101">7680000×</text>
</g>
<!-- 5 -->
<g id="node6" class="node"><title>5</title>
<polygon fill="#9cd007" stroke="#9cd007" points="263.5,-632 180.5,-632 180.5,-580 263.5,-580 263.5,-632"/>
<text text-anchor="middle" x="222" y="-620" font-family="Arial" font-size="10.00" fill="#ffffff">rt_closest_inter</text>
<text text-anchor="middle" x="222" y="-609" font-family="Arial" font-size="10.00" fill="#ffffff">68.52%</text>
<text text-anchor="middle" x="222" y="-598" font-family="Arial" font-size="10.00" fill="#ffffff">(14.35%)</text>
<text text-anchor="middle" x="222" y="-587" font-family="Arial" font-size="10.00" fill="#ffffff">12769447×</text>
</g>
<!-- 4&#45;&gt;5 -->
<g id="edge5" class="edge"><title>4&#45;&gt;5</title>
<path fill="none" stroke="#0ba942" stroke-width="1.65" d="M259.251,-793.848C252.991,-782.104 246.187,-767.714 242,-754 230.217,-715.411 225.366,-669.005 223.375,-638.798"/>
<polygon fill="#0ba942" stroke="#0ba942" stroke-width="1.65" points="225.6,-638.483 222.97,-632.233 221.128,-638.759 225.6,-638.483"/>
<text text-anchor="middle" x="263.5" y="-731" font-family="Arial" font-size="10.00" fill="#0ba942">41.21%</text>
<text text-anchor="middle" x="263.5" y="-720" font-family="Arial" font-size="10.00" fill="#0ba942">7680000×</text>
</g>
<!-- 7 -->
<g id="node7" class="node"><title>7</title>
<polygon fill="#0aaf27" stroke="#0aaf27" points="354,-754 290,-754 290,-702 354,-702 354,-754"/>
<text text-anchor="middle" x="322" y="-742" font-family="Arial" font-size="10.00" fill="#ffffff">rt_lightning</text>
<text text-anchor="middle" x="322" y="-731" font-family="Arial" font-size="10.00" fill="#ffffff">45.56%</text>
<text text-anchor="middle" x="322" y="-720" font-family="Arial" font-size="10.00" fill="#ffffff">(0.69%)</text>
<text text-anchor="middle" x="322" y="-709" font-family="Arial" font-size="10.00" fill="#ffffff">5089447×</text>
</g>
<!-- 4&#45;&gt;7 -->
<g id="edge6" class="edge"><title>4&#45;&gt;7</title>
<path fill="none" stroke="#0aaf27" stroke-width="1.82" d="M287.371,-793.93C292.941,-783.485 299.469,-771.245 305.346,-760.225"/>
<polygon fill="#0aaf27" stroke="#0aaf27" stroke-width="1.82" points="307.451,-761.263 308.535,-754.248 303.312,-759.056 307.451,-761.263"/>
<text text-anchor="middle" x="325.5" y="-777" font-family="Arial" font-size="10.00" fill="#0aaf27">45.56%</text>
<text text-anchor="middle" x="325.5" y="-766" font-family="Arial" font-size="10.00" fill="#0aaf27">5089447×</text>
</g>
<!-- 11 -->
<g id="node8" class="node"><title>11</title>
<polygon fill="#0d4181" stroke="#0d4181" points="437.5,-266 372.5,-266 372.5,-214 437.5,-214 437.5,-266"/>
<text text-anchor="middle" x="405" y="-254" font-family="Arial" font-size="10.00" fill="#ffffff">v_norm</text>
<text text-anchor="middle" x="405" y="-243" font-family="Arial" font-size="10.00" fill="#ffffff">11.26%</text>
<text text-anchor="middle" x="405" y="-232" font-family="Arial" font-size="10.00" fill="#ffffff">(2.55%)</text>
<text text-anchor="middle" x="405" y="-221" font-family="Arial" font-size="10.00" fill="#ffffff">30592380×</text>
</g>
<!-- 4&#45;&gt;11 -->
<g id="edge7" class="edge"><title>4&#45;&gt;11</title>
<path fill="none" stroke="#0d2179" stroke-width="0.5" d="M309.708,-818.791C368.442,-816.358 479,-802.074 479,-729 479,-729 479,-729 479,-361 479,-320.663 473.584,-307.724 450,-275 447.316,-271.276 444.107,-267.777 440.654,-264.543"/>
<polygon fill="#0d2179" stroke="#0d2179" stroke-width="0.5" points="441.124,-263.319 437.702,-261.891 439.487,-265.141 441.124,-263.319"/>
<text text-anchor="middle" x="503.5" y="-548" font-family="Arial" font-size="10.00" fill="#0d2179">4.70%</text>
<text text-anchor="middle" x="503.5" y="-537" font-family="Arial" font-size="10.00" fill="#0d2179">12769447×</text>
</g>
<!-- 18 -->
<g id="node9" class="node"><title>18</title>
<polygon fill="#0d1274" stroke="#0d1274" points="86,-693 0,-693 0,-641 86,-641 86,-693"/>
<text text-anchor="middle" x="43" y="-681" font-family="Arial" font-size="10.00" fill="#ffffff">rt_normal_plane</text>
<text text-anchor="middle" x="43" y="-670" font-family="Arial" font-size="10.00" fill="#ffffff">1.23%</text>
<text text-anchor="middle" x="43" y="-659" font-family="Arial" font-size="10.00" fill="#ffffff">(0.93%)</text>
<text text-anchor="middle" x="43" y="-648" font-family="Arial" font-size="10.00" fill="#ffffff">2795381×</text>
</g>
<!-- 4&#45;&gt;18 -->
<g id="edge8" class="edge"><title>4&#45;&gt;18</title>
<path fill="none" stroke="#0d1274" stroke-width="0.5" d="M238.25,-819.659C202.804,-818.577 148.509,-812.061 111,-785 80.9133,-763.294 62.0706,-723.849 52.0481,-696.808"/>
<polygon fill="#0d1274" stroke="#0d1274" stroke-width="0.5" points="53.0991,-696.114 50.7513,-693.244 50.7968,-696.952 53.0991,-696.114"/>
<text text-anchor="middle" x="132.5" y="-777" font-family="Arial" font-size="10.00" fill="#0d1274">1.23%</text>
<text text-anchor="middle" x="132.5" y="-766" font-family="Arial" font-size="10.00" fill="#0d1274">2795381×</text>
</g>
<!-- 19 -->
<g id="node10" class="node"><title>19</title>
<polygon fill="#0d1074" stroke="#0d1074" points="583,-754 493,-754 493,-702 583,-702 583,-754"/>
<text text-anchor="middle" x="538" y="-742" font-family="Arial" font-size="10.00" fill="#ffffff">rt_camera_rotate</text>
<text text-anchor="middle" x="538" y="-731" font-family="Arial" font-size="10.00" fill="#ffffff">0.69%</text>
<text text-anchor="middle" x="538" y="-720" font-family="Arial" font-size="10.00" fill="#ffffff">(0.69%)</text>
<text text-anchor="middle" x="538" y="-709" font-family="Arial" font-size="10.00" fill="#ffffff">7680000×</text>
</g>
<!-- 4&#45;&gt;19 -->
<g id="edge9" class="edge"><title>4&#45;&gt;19</title>
<path fill="none" stroke="#0d1074" stroke-width="0.5" d="M309.833,-816.088C362.071,-811.369 456.164,-800.942 486,-785 498.514,-778.313 509.648,-767.44 518.37,-757.046"/>
<polygon fill="#0d1074" stroke="#0d1074" stroke-width="0.5" points="519.49,-757.612 520.766,-754.131 517.597,-756.057 519.49,-757.612"/>
<text text-anchor="middle" x="533.5" y="-777" font-family="Arial" font-size="10.00" fill="#0d1074">0.69%</text>
<text text-anchor="middle" x="533.5" y="-766" font-family="Arial" font-size="10.00" fill="#0d1074">7680000×</text>
</g>
<!-- 21 -->
<g id="node11" class="node"><title>21</title>
<polygon fill="#0d0f73" stroke="#0d0f73" points="146,-571 50,-571 50,-519 146,-519 146,-571"/>
<text text-anchor="middle" x="98" y="-559" font-family="Arial" font-size="10.00" fill="#ffffff">rt_normal_cylinder</text>
<text text-anchor="middle" x="98" y="-548" font-family="Arial" font-size="10.00" fill="#ffffff">0.53%</text>
<text text-anchor="middle" x="98" y="-537" font-family="Arial" font-size="10.00" fill="#ffffff">(0.23%)</text>
<text text-anchor="middle" x="98" y="-526" font-family="Arial" font-size="10.00" fill="#ffffff">1070478×</text>
</g>
<!-- 4&#45;&gt;21 -->
<g id="edge10" class="edge"><title>4&#45;&gt;21</title>
<path fill="none" stroke="#0d0f73" stroke-width="0.5" d="M238.262,-798.896C220.663,-787.559 200.225,-772.051 186,-754 142.093,-698.285 116.295,-617.438 104.939,-574.806"/>
<polygon fill="#0d0f73" stroke="#0d0f73" stroke-width="0.5" points="106.092,-574.374 104.015,-571.302 103.723,-574.999 106.092,-574.374"/>
<text text-anchor="middle" x="207.5" y="-731" font-family="Arial" font-size="10.00" fill="#0d0f73">0.53%</text>
<text text-anchor="middle" x="207.5" y="-720" font-family="Arial" font-size="10.00" fill="#0d0f73">1070478×</text>
</g>
<!-- 6 -->
<g id="node12" class="node"><title>6</title>
<polygon fill="#0ab11e" stroke="#0ab11e" points="278.5,-510 201.5,-510 201.5,-458 278.5,-458 278.5,-510"/>
<text text-anchor="middle" x="240" y="-498" font-family="Arial" font-size="10.00" fill="#ffffff">s_intersection</text>
<text text-anchor="middle" x="240" y="-487" font-family="Arial" font-size="10.00" fill="#ffffff">47.00%</text>
<text text-anchor="middle" x="240" y="-476" font-family="Arial" font-size="10.00" fill="#ffffff">(10.65%)</text>
<text text-anchor="middle" x="240" y="-465" font-family="Arial" font-size="10.00" fill="#ffffff">38308341×</text>
</g>
<!-- 5&#45;&gt;6 -->
<g id="edge11" class="edge"><title>5&#45;&gt;6</title>
<path fill="none" stroke="#0ab11e" stroke-width="1.88" d="M225.773,-579.844C228.509,-561.604 232.232,-536.788 235.183,-517.116"/>
<polygon fill="#0ab11e" stroke="#0ab11e" stroke-width="1.88" points="237.596,-517.305 236.232,-510.123 232.82,-516.588 237.596,-517.305"/>
<text text-anchor="middle" x="259.5" y="-548" font-family="Arial" font-size="10.00" fill="#0ab11e">47.00%</text>
<text text-anchor="middle" x="259.5" y="-537" font-family="Arial" font-size="10.00" fill="#0ab11e">38308341×</text>
</g>
<!-- 13 -->
<g id="node13" class="node"><title>13</title>
<polygon fill="#0d2d7c" stroke="#0d2d7c" points="169,-449 95,-449 95,-397 169,-397 169,-449"/>
<text text-anchor="middle" x="132" y="-437" font-family="Arial" font-size="10.00" fill="#ffffff">s_plane_inter</text>
<text text-anchor="middle" x="132" y="-426" font-family="Arial" font-size="10.00" fill="#ffffff">7.17%</text>
<text text-anchor="middle" x="132" y="-415" font-family="Arial" font-size="10.00" fill="#ffffff">(4.40%)</text>
<text text-anchor="middle" x="132" y="-404" font-family="Arial" font-size="10.00" fill="#ffffff">12769447×</text>
</g>
<!-- 5&#45;&gt;13 -->
<g id="edge12" class="edge"><title>5&#45;&gt;13</title>
<path fill="none" stroke="#0d2d7c" stroke-width="0.5" d="M184.32,-579.658C181.624,-576.942 179.133,-574.049 177,-571 151.788,-534.958 140.388,-484.401 135.465,-452.953"/>
<polygon fill="#0d2d7c" stroke="#0d2d7c" stroke-width="0.5" points="136.634,-452.491 134.896,-449.215 134.212,-452.86 136.634,-452.491"/>
<text text-anchor="middle" x="201.5" y="-548" font-family="Arial" font-size="10.00" fill="#0d2d7c">7.17%</text>
<text text-anchor="middle" x="201.5" y="-537" font-family="Arial" font-size="10.00" fill="#0d2d7c">12769447×</text>
</g>
<!-- 7&#45;&gt;5 -->
<g id="edge16" class="edge"><title>7&#45;&gt;5</title>
<path fill="none" stroke="#0c978a" stroke-width="1.09" d="M289.803,-704.927C285.275,-701.195 280.856,-697.169 277,-693 261.491,-676.231 247.658,-654.549 237.744,-637.151"/>
<polygon fill="#0c978a" stroke="#0c978a" stroke-width="1.09" points="239.188,-636.006 235.053,-632.365 236.015,-637.79 239.188,-636.006"/>
<text text-anchor="middle" x="298.5" y="-670" font-family="Arial" font-size="10.00" fill="#0c978a">27.31%</text>
<text text-anchor="middle" x="298.5" y="-659" font-family="Arial" font-size="10.00" fill="#0c978a">5089447×</text>
</g>
<!-- 14 -->
<g id="node17" class="node"><title>14</title>
<polygon fill="#0d2a7b" stroke="#0d2a7b" points="461,-632 399,-632 399,-580 461,-580 461,-632"/>
<text text-anchor="middle" x="430" y="-620" font-family="Arial" font-size="10.00" fill="#ffffff">sdl_clr_div</text>
<text text-anchor="middle" x="430" y="-609" font-family="Arial" font-size="10.00" fill="#ffffff">6.71%</text>
<text text-anchor="middle" x="430" y="-598" font-family="Arial" font-size="10.00" fill="#ffffff">(6.71%)</text>
<text text-anchor="middle" x="430" y="-587" font-family="Arial" font-size="10.00" fill="#ffffff">5089447×</text>
</g>
<!-- 7&#45;&gt;14 -->
<g id="edge17" class="edge"><title>7&#45;&gt;14</title>
<path fill="none" stroke="#0d2a7b" stroke-width="0.5" d="M354.267,-716.875C367.308,-711.478 381.683,-703.697 392,-693 407.298,-677.139 417.029,-654.091 422.81,-635.846"/>
<polygon fill="#0d2a7b" stroke="#0d2a7b" stroke-width="0.5" points="424.054,-635.97 423.914,-632.265 421.712,-635.249 424.054,-635.97"/>
<text text-anchor="middle" x="442.5" y="-670" font-family="Arial" font-size="10.00" fill="#0d2a7b">6.71%</text>
<text text-anchor="middle" x="442.5" y="-659" font-family="Arial" font-size="10.00" fill="#0d2a7b">5089447×</text>
</g>
<!-- 16 -->
<g id="node18" class="node"><title>16</title>
<polygon fill="#0d277a" stroke="#0d277a" points="455,-388 355,-388 355,-336 455,-336 455,-388"/>
<text text-anchor="middle" x="405" y="-376" font-family="Arial" font-size="10.00" fill="#ffffff">s_calc_light_intens</text>
<text text-anchor="middle" x="405" y="-365" font-family="Arial" font-size="10.00" fill="#ffffff">5.98%</text>
<text text-anchor="middle" x="405" y="-354" font-family="Arial" font-size="10.00" fill="#ffffff">(1.16%)</text>
<text text-anchor="middle" x="405" y="-343" font-family="Arial" font-size="10.00" fill="#ffffff">2620078×</text>
</g>
<!-- 7&#45;&gt;16 -->
<g id="edge18" class="edge"><title>7&#45;&gt;16</title>
<path fill="none" stroke="#0d277a" stroke-width="0.5" d="M354.197,-707.845C359.184,-703.551 363.749,-698.585 367,-693 396.567,-642.197 403.141,-463.052 404.593,-392.176"/>
<polygon fill="#0d277a" stroke="#0d277a" stroke-width="0.5" points="405.821,-392.001 404.666,-388.477 403.372,-391.952 405.821,-392.001"/>
<text text-anchor="middle" x="420.5" y="-548" font-family="Arial" font-size="10.00" fill="#0d277a">5.98%</text>
<text text-anchor="middle" x="420.5" y="-537" font-family="Arial" font-size="10.00" fill="#0d277a">2620078×</text>
</g>
<!-- 17 -->
<g id="node19" class="node"><title>17</title>
<polygon fill="#0d2279" stroke="#0d2279" points="371,-632 273,-632 273,-580 371,-580 371,-632"/>
<text text-anchor="middle" x="322" y="-620" font-family="Arial" font-size="10.00" fill="#ffffff">sdl_clrs_bright_inc</text>
<text text-anchor="middle" x="322" y="-609" font-family="Arial" font-size="10.00" fill="#ffffff">4.86%</text>
<text text-anchor="middle" x="322" y="-598" font-family="Arial" font-size="10.00" fill="#ffffff">(4.86%)</text>
<text text-anchor="middle" x="322" y="-587" font-family="Arial" font-size="10.00" fill="#ffffff">2433404×</text>
</g>
<!-- 7&#45;&gt;17 -->
<g id="edge19" class="edge"><title>7&#45;&gt;17</title>
<path fill="none" stroke="#0d2279" stroke-width="0.5" d="M322,-701.844C322,-682.644 322,-656.158 322,-636.054"/>
<polygon fill="#0d2279" stroke="#0d2279" stroke-width="0.5" points="323.225,-635.623 322,-632.123 320.775,-635.623 323.225,-635.623"/>
<text text-anchor="middle" x="343.5" y="-670" font-family="Arial" font-size="10.00" fill="#0d2279">4.86%</text>
<text text-anchor="middle" x="343.5" y="-659" font-family="Arial" font-size="10.00" fill="#0d2279">2433404×</text>
</g>
<!-- 12 -->
<g id="node21" class="node"><title>12</title>
<polygon fill="#0d3f81" stroke="#0d3f81" points="437.5,-144 372.5,-144 372.5,-92 437.5,-92 437.5,-144"/>
<text text-anchor="middle" x="405" y="-132" font-family="Arial" font-size="10.00" fill="#ffffff">v_len</text>
<text text-anchor="middle" x="405" y="-121" font-family="Arial" font-size="10.00" fill="#ffffff">10.84%</text>
<text text-anchor="middle" x="405" y="-110" font-family="Arial" font-size="10.00" fill="#ffffff">(6.71%)</text>
<text text-anchor="middle" x="405" y="-99" font-family="Arial" font-size="10.00" fill="#ffffff">38079266×</text>
</g>
<!-- 11&#45;&gt;12 -->
<g id="edge23" class="edge"><title>11&#45;&gt;12</title>
<path fill="none" stroke="#0d347e" stroke-width="0.5" d="M405,-213.844C405,-194.644 405,-168.158 405,-148.054"/>
<polygon fill="#0d347e" stroke="#0d347e" stroke-width="0.5" points="406.225,-147.623 405,-144.123 403.775,-147.623 406.225,-147.623"/>
<text text-anchor="middle" x="429.5" y="-182" font-family="Arial" font-size="10.00" fill="#0d347e">8.71%</text>
<text text-anchor="middle" x="429.5" y="-171" font-family="Arial" font-size="10.00" fill="#0d347e">30592380×</text>
</g>
<!-- 8 -->
<g id="node20" class="node"><title>8</title>
<polygon fill="#0b9d74" stroke="#0b9d74" points="225,-52 155,-52 155,-0 225,-0 225,-52"/>
<text text-anchor="middle" x="190" y="-40" font-family="Arial" font-size="10.00" fill="#ffffff">v_dot</text>
<text text-anchor="middle" x="190" y="-29" font-family="Arial" font-size="10.00" fill="#ffffff">31.94%</text>
<text text-anchor="middle" x="190" y="-18" font-family="Arial" font-size="10.00" fill="#ffffff">(31.94%)</text>
<text text-anchor="middle" x="190" y="-7" font-family="Arial" font-size="10.00" fill="#ffffff">294459632×</text>
</g>
<!-- 18&#45;&gt;8 -->
<g id="edge30" class="edge"><title>18&#45;&gt;8</title>
<path fill="none" stroke="#0d0e73" stroke-width="0.5" d="M36.0073,-640.939C29.8984,-616.816 22,-579.205 22,-546 22,-546 22,-546 22,-117 22,-58.6754 101.65,-38.0005 151.263,-30.7797"/>
<polygon fill="#0d0e73" stroke="#0d0e73" stroke-width="0.5" points="151.487,-31.9852 154.782,-30.2827 151.145,-29.5593 151.487,-31.9852"/>
<text text-anchor="middle" x="43.5" y="-365" font-family="Arial" font-size="10.00" fill="#0d0e73">0.30%</text>
<text text-anchor="middle" x="43.5" y="-354" font-family="Arial" font-size="10.00" fill="#0d0e73">2795381×</text>
</g>
<!-- 21&#45;&gt;8 -->
<g id="edge31" class="edge"><title>21&#45;&gt;8</title>
<path fill="none" stroke="#0d0e73" stroke-width="0.5" d="M91.6733,-518.899C86.1462,-494.747 79,-457.116 79,-424 79,-424 79,-424 79,-117 79,-78.7005 119.364,-53.8645 151.411,-40.1816"/>
<polygon fill="#0d0e73" stroke="#0d0e73" stroke-width="0.5" points="152.123,-41.2116 154.879,-38.7302 151.177,-38.9516 152.123,-41.2116"/>
<text text-anchor="middle" x="100.5" y="-304" font-family="Arial" font-size="10.00" fill="#0d0e73">0.23%</text>
<text text-anchor="middle" x="100.5" y="-293" font-family="Arial" font-size="10.00" fill="#0d0e73">2140956×</text>
</g>
<!-- 9 -->
<g id="node14" class="node"><title>9</title>
<polygon fill="#0c668a" stroke="#0c668a" points="346,-388 260,-388 260,-336 346,-336 346,-388"/>
<text text-anchor="middle" x="303" y="-376" font-family="Arial" font-size="10.00" fill="#ffffff">rt_inter_cylinder</text>
<text text-anchor="middle" x="303" y="-365" font-family="Arial" font-size="10.00" fill="#ffffff">17.87%</text>
<text text-anchor="middle" x="303" y="-354" font-family="Arial" font-size="10.00" fill="#ffffff">(3.47%)</text>
<text text-anchor="middle" x="303" y="-343" font-family="Arial" font-size="10.00" fill="#ffffff">12769447×</text>
</g>
<!-- 6&#45;&gt;9 -->
<g id="edge13" class="edge"><title>6&#45;&gt;9</title>
<path fill="none" stroke="#0c668a" stroke-width="0.71" d="M278.729,-463.373C283.884,-459.267 288.565,-454.485 292,-449 302.458,-432.3 305.097,-410.192 305.178,-392.573"/>
<polygon fill="#0c668a" stroke="#0c668a" stroke-width="0.71" points="306.647,-392.386 305.147,-388.196 303.707,-392.407 306.647,-392.386"/>
<text text-anchor="middle" x="330.5" y="-426" font-family="Arial" font-size="10.00" fill="#0c668a">17.87%</text>
<text text-anchor="middle" x="330.5" y="-415" font-family="Arial" font-size="10.00" fill="#0c668a">12769447×</text>
</g>
<!-- 10 -->
<g id="node15" class="node"><title>10</title>
<polygon fill="#0d4582" stroke="#0d4582" points="268.5,-327 195.5,-327 195.5,-275 268.5,-275 268.5,-327"/>
<text text-anchor="middle" x="232" y="-315" font-family="Arial" font-size="10.00" fill="#ffffff">rt_inter_cone</text>
<text text-anchor="middle" x="232" y="-304" font-family="Arial" font-size="10.00" fill="#ffffff">12.01%</text>
<text text-anchor="middle" x="232" y="-293" font-family="Arial" font-size="10.00" fill="#ffffff">(2.31%)</text>
<text text-anchor="middle" x="232" y="-282" font-family="Arial" font-size="10.00" fill="#ffffff">12769447×</text>
</g>
<!-- 6&#45;&gt;10 -->
<g id="edge14" class="edge"><title>6&#45;&gt;10</title>
<path fill="none" stroke="#0d4582" stroke-width="0.5" d="M238.888,-457.833C237.417,-424.562 234.832,-366.065 233.281,-330.984"/>
<polygon fill="#0d4582" stroke="#0d4582" stroke-width="0.5" points="234.494,-330.687 233.116,-327.245 232.047,-330.795 234.494,-330.687"/>
<text text-anchor="middle" x="263.5" y="-426" font-family="Arial" font-size="10.00" fill="#0d4582">12.01%</text>
<text text-anchor="middle" x="263.5" y="-415" font-family="Arial" font-size="10.00" fill="#0d4582">12769447×</text>
</g>
<!-- 15 -->
<g id="node16" class="node"><title>15</title>
<polygon fill="#0d297b" stroke="#0d297b" points="207.5,-205 126.5,-205 126.5,-153 207.5,-153 207.5,-205"/>
<text text-anchor="middle" x="167" y="-193" font-family="Arial" font-size="10.00" fill="#ffffff">rt_inter_sphere</text>
<text text-anchor="middle" x="167" y="-182" font-family="Arial" font-size="10.00" fill="#ffffff">6.47%</text>
<text text-anchor="middle" x="167" y="-171" font-family="Arial" font-size="10.00" fill="#ffffff">(2.31%)</text>
<text text-anchor="middle" x="167" y="-160" font-family="Arial" font-size="10.00" fill="#ffffff">12769447×</text>
</g>
<!-- 6&#45;&gt;15 -->
<g id="edge15" class="edge"><title>6&#45;&gt;15</title>
<path fill="none" stroke="#0d297b" stroke-width="0.5" d="M220.534,-457.963C207.459,-439.662 191.178,-413.656 183,-388 172.628,-355.462 168.854,-257.986 167.586,-208.905"/>
<polygon fill="#0d297b" stroke="#0d297b" stroke-width="0.5" points="168.805,-208.638 167.492,-205.17 166.356,-208.7 168.805,-208.638"/>
<text text-anchor="middle" x="207.5" y="-365" font-family="Arial" font-size="10.00" fill="#0d297b">6.47%</text>
<text text-anchor="middle" x="207.5" y="-354" font-family="Arial" font-size="10.00" fill="#0d297b">12769447×</text>
</g>
<!-- 13&#45;&gt;8 -->
<g id="edge25" class="edge"><title>13&#45;&gt;8</title>
<path fill="none" stroke="#0d1876" stroke-width="0.5" d="M134.363,-396.797C136.289,-366.9 136.78,-315.955 123,-275 121.467,-270.444 118.393,-270.601 117,-266 110.303,-243.881 115.494,-237.062 117,-214 118.782,-186.715 117.58,-179.317 125,-153 137.148,-109.914 143.876,-99.9161 166,-61 167.078,-59.1039 168.235,-57.1822 169.439,-55.2673"/>
<polygon fill="#0d1876" stroke="#0d1876" stroke-width="0.5" points="170.504,-55.8759 171.362,-52.2684 168.441,-54.553 170.504,-55.8759"/>
<text text-anchor="middle" x="141.5" y="-243" font-family="Arial" font-size="10.00" fill="#0d1876">2.77%</text>
<text text-anchor="middle" x="141.5" y="-232" font-family="Arial" font-size="10.00" fill="#0d1876">25519718×</text>
</g>
<!-- 9&#45;&gt;11 -->
<g id="edge21" class="edge"><title>9&#45;&gt;11</title>
<path fill="none" stroke="#0d2179" stroke-width="0.5" d="M314.241,-335.665C323.2,-317.387 337.036,-292.883 354,-275 358.511,-270.245 363.803,-265.81 369.24,-261.816"/>
<polygon fill="#0d2179" stroke="#0d2179" stroke-width="0.5" points="370.141,-262.678 372.272,-259.643 368.713,-260.686 370.141,-262.678"/>
<text text-anchor="middle" x="378.5" y="-304" font-family="Arial" font-size="10.00" fill="#0d2179">4.70%</text>
<text text-anchor="middle" x="378.5" y="-293" font-family="Arial" font-size="10.00" fill="#0d2179">12769447×</text>
</g>
<!-- 9&#45;&gt;8 -->
<g id="edge20" class="edge"><title>9&#45;&gt;8</title>
<path fill="none" stroke="#0d397f" stroke-width="0.5" d="M302.509,-335.864C301.019,-295.933 295.118,-216.075 272,-153 258.536,-116.265 232.723,-79.3473 213.64,-55.0571"/>
<polygon fill="#0d397f" stroke="#0d397f" stroke-width="0.5" points="214.48,-54.1437 211.348,-52.1583 212.558,-55.6635 214.48,-54.1437"/>
<text text-anchor="middle" x="311.5" y="-182" font-family="Arial" font-size="10.00" fill="#0d397f">9.70%</text>
<text text-anchor="middle" x="311.5" y="-171" font-family="Arial" font-size="10.00" fill="#0d397f">89386129×</text>
</g>
<!-- 10&#45;&gt;8 -->
<g id="edge22" class="edge"><title>10&#45;&gt;8</title>
<path fill="none" stroke="#0d397f" stroke-width="0.5" d="M230.046,-274.728C226.012,-223.214 216.821,-109.445 213,-92 210.331,-79.8135 206.023,-66.7766 201.854,-55.6015"/>
<polygon fill="#0d397f" stroke="#0d397f" stroke-width="0.5" points="202.95,-55.0366 200.566,-52.1961 200.658,-55.9032 202.95,-55.0366"/>
<text text-anchor="middle" x="249.5" y="-182" font-family="Arial" font-size="10.00" fill="#0d397f">9.70%</text>
<text text-anchor="middle" x="249.5" y="-171" font-family="Arial" font-size="10.00" fill="#0d397f">89386129×</text>
</g>
<!-- 15&#45;&gt;8 -->
<g id="edge26" class="edge"><title>15&#45;&gt;8</title>
<path fill="none" stroke="#0d1f78" stroke-width="0.5" d="M166.175,-152.751C166.103,-149.801 166.042,-146.834 166,-144 165.66,-120.891 161.934,-114.751 166,-92 168.206,-79.6587 172.593,-66.593 177.02,-55.4382"/>
<polygon fill="#0d1f78" stroke="#0d1f78" stroke-width="0.5" points="178.218,-55.7447 178.393,-52.0407 175.946,-54.8268 178.218,-55.7447"/>
<text text-anchor="middle" x="190.5" y="-121" font-family="Arial" font-size="10.00" fill="#0d1f78">4.16%</text>
<text text-anchor="middle" x="190.5" y="-110" font-family="Arial" font-size="10.00" fill="#0d1f78">38308341×</text>
</g>
<!-- 16&#45;&gt;11 -->
<g id="edge28" class="edge"><title>16&#45;&gt;11</title>
<path fill="none" stroke="#0d1575" stroke-width="0.5" d="M405,-335.844C405,-316.644 405,-290.158 405,-270.054"/>
<polygon fill="#0d1575" stroke="#0d1575" stroke-width="0.5" points="406.225,-269.623 405,-266.123 403.775,-269.623 406.225,-269.623"/>
<text text-anchor="middle" x="426.5" y="-304" font-family="Arial" font-size="10.00" fill="#0d1575">1.86%</text>
<text text-anchor="middle" x="426.5" y="-293" font-family="Arial" font-size="10.00" fill="#0d1575">5053482×</text>
</g>
<!-- 16&#45;&gt;8 -->
<g id="edge27" class="edge"><title>16&#45;&gt;8</title>
<path fill="none" stroke="#0d1074" stroke-width="0.5" d="M394.5,-335.818C386.738,-316.798 376.148,-289.963 368,-266 351.157,-216.465 362.706,-197.382 335,-153 307.969,-109.698 261.426,-73.1337 228.367,-50.7297"/>
<polygon fill="#0d1074" stroke="#0d1074" stroke-width="0.5" points="228.799,-49.5437 225.211,-48.606 227.431,-51.5763 228.799,-49.5437"/>
<text text-anchor="middle" x="377.5" y="-182" font-family="Arial" font-size="10.00" fill="#0d1074">0.83%</text>
<text text-anchor="middle" x="377.5" y="-171" font-family="Arial" font-size="10.00" fill="#0d1074">7673560×</text>
</g>
<!-- 16&#45;&gt;12 -->
<g id="edge29" class="edge"><title>16&#45;&gt;12</title>
<path fill="none" stroke="#0d1675" stroke-width="0.5" d="M443.958,-335.747C446.3,-333.04 448.365,-330.123 450,-327 485.887,-258.462 491.192,-221.378 455,-153 451.582,-146.542 446.325,-141.082 440.484,-136.555"/>
<polygon fill="#0d1675" stroke="#0d1675" stroke-width="0.5" points="441.118,-135.5 437.574,-134.407 439.663,-137.471 441.118,-135.5"/>
<text text-anchor="middle" x="501.5" y="-243" font-family="Arial" font-size="10.00" fill="#0d1675">2.13%</text>
<text text-anchor="middle" x="501.5" y="-232" font-family="Arial" font-size="10.00" fill="#0d1675">7486886×</text>
</g>
<!-- 12&#45;&gt;8 -->
<g id="edge24" class="edge"><title>12&#45;&gt;8</title>
<path fill="none" stroke="#0d1e78" stroke-width="0.5" d="M388.249,-91.8445C379.595,-80.7516 368.101,-68.5461 355,-61 315.875,-38.4643 263.936,-30.7441 228.865,-28.166"/>
<polygon fill="#0d1e78" stroke="#0d1e78" stroke-width="0.5" points="228.676,-26.925 225.1,-27.9042 228.506,-29.3691 228.676,-26.925"/>
<text text-anchor="middle" x="404.5" y="-75" font-family="Arial" font-size="10.00" fill="#0d1e78">4.13%</text>
<text text-anchor="middle" x="404.5" y="-64" font-family="Arial" font-size="10.00" fill="#0d1e78">38079266×</text>
</g>
</g>
</svg>
