<?xml version="1.0" encoding="UTF-8" standalone="no"?>
<!DOCTYPE svg PUBLIC "-//W3C//DTD SVG 1.1//EN"
 "http://www.w3.org/Graphics/SVG/1.1/DTD/svg11.dtd">
<!-- Generated by graphviz version 2.38.0 (20140413.2041)
 -->
<!-- Title: %3 Pages: 1 -->
<svg width="473pt" height="1059pt"
 viewBox="0.00 0.00 473.00 1059.00" xmlns="http://www.w3.org/2000/svg" xmlns:xlink="http://www.w3.org/1999/xlink">
<g id="graph0" class="graph" transform="scale(1 1) rotate(0) translate(4 1055)">
<title>%3</title>
<polygon fill="white" stroke="none" points="-4,4 -4,-1055 469,-1055 469,4 -4,4"/>
<!-- 1 -->
<g id="node1" class="node"><title>1</title>
<polygon fill="#ff0000" stroke="#ff0000" points="383.5,-1051 328.5,-1051 328.5,-1010 383.5,-1010 383.5,-1051"/>
<text text-anchor="middle" x="356" y="-1039" font-family="Arial" font-size="10.00" fill="#ffffff">main</text>
<text text-anchor="middle" x="356" y="-1028" font-family="Arial" font-size="10.00" fill="#ffffff">100.00%</text>
<text text-anchor="middle" x="356" y="-1017" font-family="Arial" font-size="10.00" fill="#ffffff">(0.00%)</text>
</g>
<!-- 4 -->
<g id="node2" class="node"><title>4</title>
<polygon fill="#ec7803" stroke="#ec7803" points="356.5,-970 237.5,-970 237.5,-918 356.5,-918 356.5,-970"/>
<text text-anchor="middle" x="297" y="-958" font-family="Arial" font-size="10.00" fill="#ffffff">rt_sdl_fake_render_loop</text>
<text text-anchor="middle" x="297" y="-947" font-family="Arial" font-size="10.00" fill="#ffffff">87.50%</text>
<text text-anchor="middle" x="297" y="-936" font-family="Arial" font-size="10.00" fill="#ffffff">(0.00%)</text>
<text text-anchor="middle" x="297" y="-925" font-family="Arial" font-size="10.00" fill="#ffffff">1×</text>
</g>
<!-- 1&#45;&gt;4 -->
<g id="edge1" class="edge"><title>1&#45;&gt;4</title>
<path fill="none" stroke="#ec7803" stroke-width="3.5" d="M342.22,-1009.88C340.134,-1006.91 338.009,-1003.87 336,-1001 330.816,-993.584 325.253,-985.608 320,-978.068"/>
<polygon fill="#ec7803" stroke="#ec7803" stroke-width="3.5" points="322.525,-975.936 314.454,-970.102 317.125,-979.696 322.525,-975.936"/>
<text text-anchor="middle" x="353" y="-993" font-family="Arial" font-size="10.00" fill="#ec7803">87.50%</text>
<text text-anchor="middle" x="353" y="-982" font-family="Arial" font-size="10.00" fill="#ec7803">1×</text>
</g>
<!-- 12 -->
<g id="node3" class="node"><title>12</title>
<polygon fill="#0d4783" stroke="#0d4783" points="436,-970 366,-970 366,-918 436,-918 436,-970"/>
<text text-anchor="middle" x="401" y="-958" font-family="Arial" font-size="10.00" fill="#ffffff">rt_precalc_d</text>
<text text-anchor="middle" x="401" y="-947" font-family="Arial" font-size="10.00" fill="#ffffff">12.41%</text>
<text text-anchor="middle" x="401" y="-936" font-family="Arial" font-size="10.00" fill="#ffffff">(3.12%)</text>
<text text-anchor="middle" x="401" y="-925" font-family="Arial" font-size="10.00" fill="#ffffff">1×</text>
</g>
<!-- 1&#45;&gt;12 -->
<g id="edge2" class="edge"><title>1&#45;&gt;12</title>
<path fill="none" stroke="#0d4783" stroke-width="0.5" d="M366.437,-1009.9C372.18,-999.117 379.412,-985.537 385.775,-973.59"/>
<polygon fill="#0d4783" stroke="#0d4783" stroke-width="0.5" points="386.98,-973.932 387.544,-970.267 384.818,-972.78 386.98,-973.932"/>
<text text-anchor="middle" x="400" y="-993" font-family="Arial" font-size="10.00" fill="#0d4783">12.41%</text>
<text text-anchor="middle" x="400" y="-982" font-family="Arial" font-size="10.00" fill="#0d4783">1×</text>
</g>
<!-- 3 -->
<g id="node8" class="node"><title>3</title>
<polygon fill="#ec7803" stroke="#ec7803" points="331,-878 263,-878 263,-826 331,-826 331,-878"/>
<text text-anchor="middle" x="297" y="-866" font-family="Arial" font-size="10.00" fill="#ffffff">rt_rendering</text>
<text text-anchor="middle" x="297" y="-855" font-family="Arial" font-size="10.00" fill="#ffffff">87.50%</text>
<text text-anchor="middle" x="297" y="-844" font-family="Arial" font-size="10.00" fill="#ffffff">(0.00%)</text>
<text text-anchor="middle" x="297" y="-833" font-family="Arial" font-size="10.00" fill="#ffffff">1×</text>
</g>
<!-- 4&#45;&gt;3 -->
<g id="edge7" class="edge"><title>4&#45;&gt;3</title>
<path fill="none" stroke="#ec7803" stroke-width="3.5" d="M297,-917.93C297,-908.646 297,-897.943 297,-887.94"/>
<polygon fill="#ec7803" stroke="#ec7803" stroke-width="3.5" points="300.29,-887.648 297,-878.248 293.71,-887.648 300.29,-887.648"/>
<text text-anchor="middle" x="314" y="-901" font-family="Arial" font-size="10.00" fill="#ec7803">87.50%</text>
<text text-anchor="middle" x="314" y="-890" font-family="Arial" font-size="10.00" fill="#ec7803">1×</text>
</g>
<!-- 14 -->
<g id="node18" class="node"><title>14</title>
<polygon fill="#0d377f" stroke="#0d377f" points="435.5,-878 366.5,-878 366.5,-826 435.5,-826 435.5,-878"/>
<text text-anchor="middle" x="401" y="-866" font-family="Arial" font-size="10.00" fill="#ffffff">ft_memalloc</text>
<text text-anchor="middle" x="401" y="-855" font-family="Arial" font-size="10.00" fill="#ffffff">9.37%</text>
<text text-anchor="middle" x="401" y="-844" font-family="Arial" font-size="10.00" fill="#ffffff">(0.00%)</text>
<text text-anchor="middle" x="401" y="-833" font-family="Arial" font-size="10.00" fill="#ffffff">405×</text>
</g>
<!-- 12&#45;&gt;14 -->
<g id="edge20" class="edge"><title>12&#45;&gt;14</title>
<path fill="none" stroke="#0d377f" stroke-width="0.5" d="M401,-917.93C401,-906.712 401,-893.422 401,-881.798"/>
<polygon fill="#0d377f" stroke="#0d377f" stroke-width="0.5" points="402.225,-881.748 401,-878.248 399.775,-881.748 402.225,-881.748"/>
<text text-anchor="middle" x="415" y="-901" font-family="Arial" font-size="10.00" fill="#0d377f">9.28%</text>
<text text-anchor="middle" x="415" y="-890" font-family="Arial" font-size="10.00" fill="#0d377f">401×</text>
</g>
<!-- 2 -->
<g id="node4" class="node"><title>2</title>
<polygon fill="#ec7803" stroke="#ec7803" points="332.5,-786 261.5,-786 261.5,-734 332.5,-734 332.5,-786"/>
<text text-anchor="middle" x="297" y="-774" font-family="Arial" font-size="10.00" fill="#ffffff">rt_raytracing</text>
<text text-anchor="middle" x="297" y="-763" font-family="Arial" font-size="10.00" fill="#ffffff">87.50%</text>
<text text-anchor="middle" x="297" y="-752" font-family="Arial" font-size="10.00" fill="#ffffff">(3.12%)</text>
<text text-anchor="middle" x="297" y="-741" font-family="Arial" font-size="10.00" fill="#ffffff">320000×</text>
</g>
<!-- 5 -->
<g id="node5" class="node"><title>5</title>
<polygon fill="#61c608" stroke="#61c608" points="215.5,-602 132.5,-602 132.5,-550 215.5,-550 215.5,-602"/>
<text text-anchor="middle" x="174" y="-590" font-family="Arial" font-size="10.00" fill="#ffffff">rt_closest_inter</text>
<text text-anchor="middle" x="174" y="-579" font-family="Arial" font-size="10.00" fill="#ffffff">61.73%</text>
<text text-anchor="middle" x="174" y="-568" font-family="Arial" font-size="10.00" fill="#ffffff">(3.12%)</text>
<text text-anchor="middle" x="174" y="-557" font-family="Arial" font-size="10.00" fill="#ffffff">540778×</text>
</g>
<!-- 2&#45;&gt;5 -->
<g id="edge3" class="edge"><title>2&#45;&gt;5</title>
<path fill="none" stroke="#0ba35d" stroke-width="1.46" d="M261.287,-733.79C247.625,-722.785 232.757,-708.973 222,-694 203.143,-667.754 190.101,-633.008 182.422,-608.214"/>
<polygon fill="#0ba35d" stroke="#0ba35d" stroke-width="1.46" points="184.427,-607.587 180.679,-602.453 180.407,-608.804 184.427,-607.587"/>
<text text-anchor="middle" x="241" y="-671" font-family="Arial" font-size="10.00" fill="#0ba35d">36.53%</text>
<text text-anchor="middle" x="241" y="-660" font-family="Arial" font-size="10.00" fill="#0ba35d">320000×</text>
</g>
<!-- 7 -->
<g id="node6" class="node"><title>7</title>
<polygon fill="#0baa3f" stroke="#0baa3f" points="329,-694 265,-694 265,-642 329,-642 329,-694"/>
<text text-anchor="middle" x="297" y="-682" font-family="Arial" font-size="10.00" fill="#ffffff">rt_lightning</text>
<text text-anchor="middle" x="297" y="-671" font-family="Arial" font-size="10.00" fill="#ffffff">41.71%</text>
<text text-anchor="middle" x="297" y="-660" font-family="Arial" font-size="10.00" fill="#ffffff">(6.25%)</text>
<text text-anchor="middle" x="297" y="-649" font-family="Arial" font-size="10.00" fill="#ffffff">220778×</text>
</g>
<!-- 2&#45;&gt;7 -->
<g id="edge4" class="edge"><title>2&#45;&gt;7</title>
<path fill="none" stroke="#0baa3f" stroke-width="1.67" d="M297,-733.93C297,-723.679 297,-711.698 297,-700.839"/>
<polygon fill="#0baa3f" stroke="#0baa3f" stroke-width="1.67" points="299.275,-700.748 297,-694.248 294.725,-700.748 299.275,-700.748"/>
<text text-anchor="middle" x="316" y="-717" font-family="Arial" font-size="10.00" fill="#0baa3f">41.71%</text>
<text text-anchor="middle" x="316" y="-706" font-family="Arial" font-size="10.00" fill="#0baa3f">220778×</text>
</g>
<!-- 11 -->
<g id="node7" class="node"><title>11</title>
<polygon fill="#0c5285" stroke="#0c5285" points="457.5,-266 398.5,-266 398.5,-214 457.5,-214 457.5,-266"/>
<text text-anchor="middle" x="428" y="-254" font-family="Arial" font-size="10.00" fill="#ffffff">v_norm</text>
<text text-anchor="middle" x="428" y="-243" font-family="Arial" font-size="10.00" fill="#ffffff">14.31%</text>
<text text-anchor="middle" x="428" y="-232" font-family="Arial" font-size="10.00" fill="#ffffff">(6.25%)</text>
<text text-anchor="middle" x="428" y="-221" font-family="Arial" font-size="10.00" fill="#ffffff">1398384×</text>
</g>
<!-- 2&#45;&gt;11 -->
<g id="edge5" class="edge"><title>2&#45;&gt;11</title>
<path fill="none" stroke="#0d257a" stroke-width="0.5" d="M332.523,-742.581C371.014,-723.612 427,-692.058 427,-669 427,-669 427,-669 427,-361 427,-329.824 427.342,-294.093 427.626,-269.785"/>
<polygon fill="#0d257a" stroke="#0d257a" stroke-width="0.5" points="428.85,-269.797 427.667,-266.283 426.401,-269.768 428.85,-269.797"/>
<text text-anchor="middle" x="446" y="-533" font-family="Arial" font-size="10.00" fill="#0d257a">5.53%</text>
<text text-anchor="middle" x="446" y="-522" font-family="Arial" font-size="10.00" fill="#0d257a">540778×</text>
</g>
<!-- 6 -->
<g id="node9" class="node"><title>6</title>
<polygon fill="#34be09" stroke="#34be09" points="201.5,-510 124.5,-510 124.5,-458 201.5,-458 201.5,-510"/>
<text text-anchor="middle" x="163" y="-498" font-family="Arial" font-size="10.00" fill="#ffffff">s_intersection</text>
<text text-anchor="middle" x="163" y="-487" font-family="Arial" font-size="10.00" fill="#ffffff">55.98%</text>
<text text-anchor="middle" x="163" y="-476" font-family="Arial" font-size="10.00" fill="#ffffff">(15.62%)</text>
<text text-anchor="middle" x="163" y="-465" font-family="Arial" font-size="10.00" fill="#ffffff">1622334×</text>
</g>
<!-- 5&#45;&gt;6 -->
<g id="edge8" class="edge"><title>5&#45;&gt;6</title>
<path fill="none" stroke="#34be09" stroke-width="2.24" d="M170.936,-549.93C169.718,-539.969 168.301,-528.375 167.004,-517.763"/>
<polygon fill="#34be09" stroke="#34be09" stroke-width="2.24" points="169.601,-517.374 166.086,-510.248 164.39,-518.011 169.601,-517.374"/>
<text text-anchor="middle" x="191.5" y="-533" font-family="Arial" font-size="10.00" fill="#34be09">55.98%</text>
<text text-anchor="middle" x="191.5" y="-522" font-family="Arial" font-size="10.00" fill="#34be09">1622334×</text>
</g>
<!-- 19 -->
<g id="node10" class="node"><title>19</title>
<polygon fill="#0d1876" stroke="#0d1876" points="74,-449 0,-449 0,-397 74,-397 74,-449"/>
<text text-anchor="middle" x="37" y="-437" font-family="Arial" font-size="10.00" fill="#ffffff">s_plane_inter</text>
<text text-anchor="middle" x="37" y="-426" font-family="Arial" font-size="10.00" fill="#ffffff">2.62%</text>
<text text-anchor="middle" x="37" y="-415" font-family="Arial" font-size="10.00" fill="#ffffff">(0.00%)</text>
<text text-anchor="middle" x="37" y="-404" font-family="Arial" font-size="10.00" fill="#ffffff">540778×</text>
</g>
<!-- 5&#45;&gt;19 -->
<g id="edge9" class="edge"><title>5&#45;&gt;19</title>
<path fill="none" stroke="#0d1876" stroke-width="0.5" d="M138.044,-549.946C134.539,-547.059 131.127,-544.052 128,-541 99.8594,-513.542 72.8943,-477.183 55.7254,-452.329"/>
<polygon fill="#0d1876" stroke="#0d1876" stroke-width="0.5" points="56.6736,-451.546 53.6808,-449.356 54.655,-452.934 56.6736,-451.546"/>
<text text-anchor="middle" x="147" y="-533" font-family="Arial" font-size="10.00" fill="#0d1876">2.62%</text>
<text text-anchor="middle" x="147" y="-522" font-family="Arial" font-size="10.00" fill="#0d1876">540778×</text>
</g>
<!-- 7&#45;&gt;5 -->
<g id="edge13" class="edge"><title>7&#45;&gt;5</title>
<path fill="none" stroke="#0c9493" stroke-width="1.01" d="M264.683,-643.354C248.673,-631.639 229.227,-617.41 212.455,-605.138"/>
<polygon fill="#0c9493" stroke="#0c9493" stroke-width="1.01" points="213.321,-603.603 208.252,-602.063 211.254,-606.427 213.321,-603.603"/>
<text text-anchor="middle" x="270" y="-625" font-family="Arial" font-size="10.00" fill="#0c9493">25.20%</text>
<text text-anchor="middle" x="270" y="-614" font-family="Arial" font-size="10.00" fill="#0c9493">220778×</text>
</g>
<!-- 16 -->
<g id="node14" class="node"><title>16</title>
<polygon fill="#0d2c7c" stroke="#0d2c7c" points="403,-388 303,-388 303,-336 403,-336 403,-388"/>
<text text-anchor="middle" x="353" y="-376" font-family="Arial" font-size="10.00" fill="#ffffff">s_calc_light_intens</text>
<text text-anchor="middle" x="353" y="-365" font-family="Arial" font-size="10.00" fill="#ffffff">7.14%</text>
<text text-anchor="middle" x="353" y="-354" font-family="Arial" font-size="10.00" fill="#ffffff">(0.00%)</text>
<text text-anchor="middle" x="353" y="-343" font-family="Arial" font-size="10.00" fill="#ffffff">158412×</text>
</g>
<!-- 7&#45;&gt;16 -->
<g id="edge14" class="edge"><title>7&#45;&gt;16</title>
<path fill="none" stroke="#0d2c7c" stroke-width="0.5" d="M297.708,-641.748C298.665,-617.952 300.89,-581.368 306,-550 315.282,-493.028 333.384,-427.962 344.213,-391.555"/>
<polygon fill="#0d2c7c" stroke="#0d2c7c" stroke-width="0.5" points="345.41,-391.827 345.238,-388.123 343.063,-391.126 345.41,-391.827"/>
<text text-anchor="middle" x="331" y="-533" font-family="Arial" font-size="10.00" fill="#0d2c7c">7.14%</text>
<text text-anchor="middle" x="331" y="-522" font-family="Arial" font-size="10.00" fill="#0d2c7c">158412×</text>
</g>
<!-- 18 -->
<g id="node15" class="node"><title>18</title>
<polygon fill="#0d1a77" stroke="#0d1a77" points="373,-602 311,-602 311,-550 373,-550 373,-602"/>
<text text-anchor="middle" x="342" y="-590" font-family="Arial" font-size="10.00" fill="#ffffff">sdl_clr_div</text>
<text text-anchor="middle" x="342" y="-579" font-family="Arial" font-size="10.00" fill="#ffffff">3.12%</text>
<text text-anchor="middle" x="342" y="-568" font-family="Arial" font-size="10.00" fill="#ffffff">(3.12%)</text>
<text text-anchor="middle" x="342" y="-557" font-family="Arial" font-size="10.00" fill="#ffffff">220778×</text>
</g>
<!-- 7&#45;&gt;18 -->
<g id="edge15" class="edge"><title>7&#45;&gt;18</title>
<path fill="none" stroke="#0d1a77" stroke-width="0.5" d="M309.535,-641.93C315.193,-630.615 321.903,-617.193 327.751,-605.497"/>
<polygon fill="#0d1a77" stroke="#0d1a77" stroke-width="0.5" points="328.907,-605.926 329.376,-602.248 326.715,-604.83 328.907,-605.926"/>
<text text-anchor="middle" x="344" y="-625" font-family="Arial" font-size="10.00" fill="#0d1a77">3.12%</text>
<text text-anchor="middle" x="344" y="-614" font-family="Arial" font-size="10.00" fill="#0d1a77">220778×</text>
</g>
<!-- 13 -->
<g id="node17" class="node"><title>13</title>
<polygon fill="#0d3f81" stroke="#0d3f81" points="380.5,-144 321.5,-144 321.5,-92 380.5,-92 380.5,-144"/>
<text text-anchor="middle" x="351" y="-132" font-family="Arial" font-size="10.00" fill="#ffffff">v_len</text>
<text text-anchor="middle" x="351" y="-121" font-family="Arial" font-size="10.00" fill="#ffffff">10.80%</text>
<text text-anchor="middle" x="351" y="-110" font-family="Arial" font-size="10.00" fill="#ffffff">(6.25%)</text>
<text text-anchor="middle" x="351" y="-99" font-family="Arial" font-size="10.00" fill="#ffffff">1873620×</text>
</g>
<!-- 11&#45;&gt;13 -->
<g id="edge19" class="edge"><title>11&#45;&gt;13</title>
<path fill="none" stroke="#0d317d" stroke-width="0.5" d="M411.858,-213.844C399.435,-194.484 382.26,-167.716 369.322,-147.553"/>
<polygon fill="#0d317d" stroke="#0d317d" stroke-width="0.5" points="370.042,-146.407 367.12,-144.123 367.98,-147.73 370.042,-146.407"/>
<text text-anchor="middle" x="427.5" y="-182" font-family="Arial" font-size="10.00" fill="#0d317d">8.06%</text>
<text text-anchor="middle" x="427.5" y="-171" font-family="Arial" font-size="10.00" fill="#0d317d">1398384×</text>
</g>
<!-- 3&#45;&gt;2 -->
<g id="edge6" class="edge"><title>3&#45;&gt;2</title>
<path fill="none" stroke="#ec7803" stroke-width="3.5" d="M297,-825.93C297,-816.646 297,-805.943 297,-795.94"/>
<polygon fill="#ec7803" stroke="#ec7803" stroke-width="3.5" points="300.29,-795.648 297,-786.248 293.71,-795.648 300.29,-795.648"/>
<text text-anchor="middle" x="316" y="-809" font-family="Arial" font-size="10.00" fill="#ec7803">87.50%</text>
<text text-anchor="middle" x="316" y="-798" font-family="Arial" font-size="10.00" fill="#ec7803">320000×</text>
</g>
<!-- 9 -->
<g id="node11" class="node"><title>9</title>
<polygon fill="#0c7e8f" stroke="#0c7e8f" points="131.5,-327 58.5,-327 58.5,-275 131.5,-275 131.5,-327"/>
<text text-anchor="middle" x="95" y="-315" font-family="Arial" font-size="10.00" fill="#ffffff">rt_inter_cone</text>
<text text-anchor="middle" x="95" y="-304" font-family="Arial" font-size="10.00" fill="#ffffff">21.69%</text>
<text text-anchor="middle" x="95" y="-293" font-family="Arial" font-size="10.00" fill="#ffffff">(12.50%)</text>
<text text-anchor="middle" x="95" y="-282" font-family="Arial" font-size="10.00" fill="#ffffff">540778×</text>
</g>
<!-- 6&#45;&gt;9 -->
<g id="edge10" class="edge"><title>6&#45;&gt;9</title>
<path fill="none" stroke="#0c7e8f" stroke-width="0.87" d="M124.4,-459.472C121.182,-456.287 118.29,-452.793 116,-449 94.3074,-413.074 91.7117,-363.396 92.6973,-331.984"/>
<polygon fill="#0c7e8f" stroke="#0c7e8f" stroke-width="0.87" points="94.348,-331.863 92.8839,-327.104 91.0604,-331.737 94.348,-331.863"/>
<text text-anchor="middle" x="135" y="-426" font-family="Arial" font-size="10.00" fill="#0c7e8f">21.69%</text>
<text text-anchor="middle" x="135" y="-415" font-family="Arial" font-size="10.00" fill="#0c7e8f">540778×</text>
</g>
<!-- 10 -->
<g id="node12" class="node"><title>10</title>
<polygon fill="#0c5486" stroke="#0c5486" points="294,-388 208,-388 208,-336 294,-336 294,-388"/>
<text text-anchor="middle" x="251" y="-376" font-family="Arial" font-size="10.00" fill="#ffffff">rt_inter_cylinder</text>
<text text-anchor="middle" x="251" y="-365" font-family="Arial" font-size="10.00" fill="#ffffff">14.73%</text>
<text text-anchor="middle" x="251" y="-354" font-family="Arial" font-size="10.00" fill="#ffffff">(0.00%)</text>
<text text-anchor="middle" x="251" y="-343" font-family="Arial" font-size="10.00" fill="#ffffff">540778×</text>
</g>
<!-- 6&#45;&gt;10 -->
<g id="edge11" class="edge"><title>6&#45;&gt;10</title>
<path fill="none" stroke="#0c5486" stroke-width="0.59" d="M181.448,-457.844C195.645,-438.484 215.275,-411.716 230.061,-391.553"/>
<polygon fill="#0c5486" stroke="#0c5486" stroke-width="0.59" points="231.402,-391.974 232.577,-388.123 229.257,-390.401 231.402,-391.974"/>
<text text-anchor="middle" x="244" y="-426" font-family="Arial" font-size="10.00" fill="#0c5486">14.73%</text>
<text text-anchor="middle" x="244" y="-415" font-family="Arial" font-size="10.00" fill="#0c5486">540778×</text>
</g>
<!-- 17 -->
<g id="node13" class="node"><title>17</title>
<polygon fill="#0d1e78" stroke="#0d1e78" points="214.5,-205 133.5,-205 133.5,-153 214.5,-153 214.5,-205"/>
<text text-anchor="middle" x="174" y="-193" font-family="Arial" font-size="10.00" fill="#ffffff">rt_inter_sphere</text>
<text text-anchor="middle" x="174" y="-182" font-family="Arial" font-size="10.00" fill="#ffffff">3.94%</text>
<text text-anchor="middle" x="174" y="-171" font-family="Arial" font-size="10.00" fill="#ffffff">(0.00%)</text>
<text text-anchor="middle" x="174" y="-160" font-family="Arial" font-size="10.00" fill="#ffffff">540778×</text>
</g>
<!-- 6&#45;&gt;17 -->
<g id="edge12" class="edge"><title>6&#45;&gt;17</title>
<path fill="none" stroke="#0d1e78" stroke-width="0.5" d="M163.006,-457.76C163.091,-428.471 163.478,-378.724 165,-336 166.583,-291.581 169.826,-240.121 171.956,-208.826"/>
<polygon fill="#0d1e78" stroke="#0d1e78" stroke-width="0.5" points="173.193,-208.687 172.21,-205.112 170.749,-208.52 173.193,-208.687"/>
<text text-anchor="middle" x="184" y="-365" font-family="Arial" font-size="10.00" fill="#0d1e78">3.94%</text>
<text text-anchor="middle" x="184" y="-354" font-family="Arial" font-size="10.00" fill="#0d1e78">540778×</text>
</g>
<!-- 8 -->
<g id="node16" class="node"><title>8</title>
<polygon fill="#0c9c78" stroke="#0c9c78" points="232.5,-52 167.5,-52 167.5,-0 232.5,-0 232.5,-52"/>
<text text-anchor="middle" x="200" y="-40" font-family="Arial" font-size="10.00" fill="#ffffff">v_dot</text>
<text text-anchor="middle" x="200" y="-29" font-family="Arial" font-size="10.00" fill="#ffffff">31.25%</text>
<text text-anchor="middle" x="200" y="-18" font-family="Arial" font-size="10.00" fill="#ffffff">(31.25%)</text>
<text text-anchor="middle" x="200" y="-7" font-family="Arial" font-size="10.00" fill="#ffffff">12869987×</text>
</g>
<!-- 19&#45;&gt;8 -->
<g id="edge27" class="edge"><title>19&#45;&gt;8</title>
<path fill="none" stroke="#0d1876" stroke-width="0.5" d="M34.0031,-396.758C31.385,-372.503 28,-334.8 28,-302 28,-302 28,-302 28,-117 28,-56.2771 113.2,-36.4476 163.671,-30.0281"/>
<polygon fill="#0d1876" stroke="#0d1876" stroke-width="0.5" points="163.919,-31.2319 167.243,-29.5887 163.62,-28.8003 163.919,-31.2319"/>
<text text-anchor="middle" x="49.5" y="-243" font-family="Arial" font-size="10.00" fill="#0d1876">2.62%</text>
<text text-anchor="middle" x="49.5" y="-232" font-family="Arial" font-size="10.00" fill="#0d1876">1080757×</text>
</g>
<!-- 9&#45;&gt;8 -->
<g id="edge16" class="edge"><title>9&#45;&gt;8</title>
<path fill="none" stroke="#0d377f" stroke-width="0.5" d="M87.2755,-274.844C79.417,-244.773 70.4202,-193.442 86,-153 101.655,-112.364 137.162,-76.6953 164.421,-53.7778"/>
<polygon fill="#0d377f" stroke="#0d377f" stroke-width="0.5" points="165.462,-54.5054 167.367,-51.3238 163.893,-52.623 165.462,-54.5054"/>
<text text-anchor="middle" x="107.5" y="-182" font-family="Arial" font-size="10.00" fill="#0d377f">9.19%</text>
<text text-anchor="middle" x="107.5" y="-171" font-family="Arial" font-size="10.00" fill="#0d377f">3785446×</text>
</g>
<!-- 10&#45;&gt;11 -->
<g id="edge18" class="edge"><title>10&#45;&gt;11</title>
<path fill="none" stroke="#0d257a" stroke-width="0.5" d="M264.895,-335.813C277.356,-315.818 297.575,-288.978 323,-275 349.714,-260.313 362.5,-276.822 391,-266 392.386,-265.474 393.772,-264.886 395.149,-264.25"/>
<polygon fill="#0d257a" stroke="#0d257a" stroke-width="0.5" points="395.741,-265.324 398.344,-262.683 394.662,-263.125 395.741,-265.324"/>
<text text-anchor="middle" x="342" y="-304" font-family="Arial" font-size="10.00" fill="#0d257a">5.53%</text>
<text text-anchor="middle" x="342" y="-293" font-family="Arial" font-size="10.00" fill="#0d257a">540778×</text>
</g>
<!-- 10&#45;&gt;8 -->
<g id="edge17" class="edge"><title>10&#45;&gt;8</title>
<path fill="none" stroke="#0d377f" stroke-width="0.5" d="M247.821,-335.887C243.947,-305.071 237.268,-251.219 232,-205 226.28,-154.82 230.14,-141.476 220,-92 217.508,-79.8408 213.69,-66.7069 210.055,-55.4493"/>
<polygon fill="#0d377f" stroke="#0d377f" stroke-width="0.5" points="211.186,-54.9656 208.935,-52.0189 208.857,-55.7263 211.186,-54.9656"/>
<text text-anchor="middle" x="253.5" y="-182" font-family="Arial" font-size="10.00" fill="#0d377f">9.19%</text>
<text text-anchor="middle" x="253.5" y="-171" font-family="Arial" font-size="10.00" fill="#0d377f">3785446×</text>
</g>
<!-- 17&#45;&gt;8 -->
<g id="edge26" class="edge"><title>17&#45;&gt;8</title>
<path fill="none" stroke="#0d1e78" stroke-width="0.5" d="M173.784,-152.959C174.042,-135.691 175.198,-112.286 179,-92 181.277,-79.8522 185.18,-66.8225 189.009,-55.6423"/>
<polygon fill="#0d1e78" stroke="#0d1e78" stroke-width="0.5" points="190.201,-55.9432 190.192,-52.235 187.887,-55.1391 190.201,-55.9432"/>
<text text-anchor="middle" x="200.5" y="-121" font-family="Arial" font-size="10.00" fill="#0d1e78">3.94%</text>
<text text-anchor="middle" x="200.5" y="-110" font-family="Arial" font-size="10.00" fill="#0d1e78">1622334×</text>
</g>
<!-- 16&#45;&gt;11 -->
<g id="edge24" class="edge"><title>16&#45;&gt;11</title>
<path fill="none" stroke="#0d1b77" stroke-width="0.5" d="M359.74,-335.591C365.811,-313.935 374.854,-284.805 382,-275 384.262,-271.896 389.356,-267.565 395.364,-263.03"/>
<polygon fill="#0d1b77" stroke="#0d1b77" stroke-width="0.5" points="396.299,-263.862 398.379,-260.792 394.838,-261.895 396.299,-263.862"/>
<text text-anchor="middle" x="401" y="-304" font-family="Arial" font-size="10.00" fill="#0d1b77">3.24%</text>
<text text-anchor="middle" x="401" y="-293" font-family="Arial" font-size="10.00" fill="#0d1b77">316824×</text>
</g>
<!-- 16&#45;&gt;8 -->
<g id="edge23" class="edge"><title>16&#45;&gt;8</title>
<path fill="none" stroke="#0d1274" stroke-width="0.5" d="M302.986,-336.357C299.968,-333.523 297.25,-330.41 295,-327 252.075,-261.935 297.222,-227.09 273,-153 261.148,-116.747 237.912,-79.4635 220.826,-54.9547"/>
<polygon fill="#0d1274" stroke="#0d1274" stroke-width="0.5" points="221.787,-54.1916 218.774,-52.03 219.782,-55.5988 221.787,-54.1916"/>
<text text-anchor="middle" x="300" y="-182" font-family="Arial" font-size="10.00" fill="#0d1274">1.15%</text>
<text text-anchor="middle" x="300" y="-171" font-family="Arial" font-size="10.00" fill="#0d1274">475236×</text>
</g>
<!-- 16&#45;&gt;13 -->
<g id="edge25" class="edge"><title>16&#45;&gt;13</title>
<path fill="none" stroke="#0d1876" stroke-width="0.5" d="M352.79,-335.559C352.414,-290.143 351.632,-195.414 351.237,-147.729"/>
<polygon fill="#0d1876" stroke="#0d1876" stroke-width="0.5" points="352.461,-147.59 351.207,-144.1 350.011,-147.61 352.461,-147.59"/>
<text text-anchor="middle" x="372" y="-243" font-family="Arial" font-size="10.00" fill="#0d1876">2.74%</text>
<text text-anchor="middle" x="372" y="-232" font-family="Arial" font-size="10.00" fill="#0d1876">475236×</text>
</g>
<!-- 13&#45;&gt;8 -->
<g id="edge21" class="edge"><title>13&#45;&gt;8</title>
<path fill="none" stroke="#0d2079" stroke-width="0.5" d="M329.476,-91.9549C319.279,-81.2848 306.408,-69.3905 293,-61 275.513,-50.0564 253.985,-41.9018 236.048,-36.326"/>
<polygon fill="#0d2079" stroke="#0d2079" stroke-width="0.5" points="236.215,-35.0964 232.51,-35.2452 235.499,-37.4395 236.215,-35.0964"/>
<text text-anchor="middle" x="342.5" y="-75" font-family="Arial" font-size="10.00" fill="#0d2079">4.55%</text>
<text text-anchor="middle" x="342.5" y="-64" font-family="Arial" font-size="10.00" fill="#0d2079">1873620×</text>
</g>
<!-- 15 -->
<g id="node19" class="node"><title>15</title>
<polygon fill="#0d377f" stroke="#0d377f" points="432,-786 370,-786 370,-734 432,-734 432,-786"/>
<text text-anchor="middle" x="401" y="-774" font-family="Arial" font-size="10.00" fill="#ffffff">ft_memset</text>
<text text-anchor="middle" x="401" y="-763" font-family="Arial" font-size="10.00" fill="#ffffff">9.37%</text>
<text text-anchor="middle" x="401" y="-752" font-family="Arial" font-size="10.00" fill="#ffffff">(9.37%)</text>
<text text-anchor="middle" x="401" y="-741" font-family="Arial" font-size="10.00" fill="#ffffff">405×</text>
</g>
<!-- 14&#45;&gt;15 -->
<g id="edge22" class="edge"><title>14&#45;&gt;15</title>
<path fill="none" stroke="#0d377f" stroke-width="0.5" d="M401,-825.93C401,-814.712 401,-801.422 401,-789.798"/>
<polygon fill="#0d377f" stroke="#0d377f" stroke-width="0.5" points="402.225,-789.748 401,-786.248 399.775,-789.748 402.225,-789.748"/>
<text text-anchor="middle" x="415" y="-809" font-family="Arial" font-size="10.00" fill="#0d377f">9.37%</text>
<text text-anchor="middle" x="415" y="-798" font-family="Arial" font-size="10.00" fill="#0d377f">405×</text>
</g>
</g>
</svg>
