<?xml version="1.0" encoding="UTF-8" standalone="no"?>
<!DOCTYPE svg PUBLIC "-//W3C//DTD SVG 1.1//EN"
 "http://www.w3.org/Graphics/SVG/1.1/DTD/svg11.dtd">
<!-- Generated by graphviz version 2.38.0 (20140413.2041)
 -->
<!-- Title: %3 Pages: 1 -->
<svg width="499pt" height="1151pt"
 viewBox="0.00 0.00 499.43 1151.00" xmlns="http://www.w3.org/2000/svg" xmlns:xlink="http://www.w3.org/1999/xlink">
<g id="graph0" class="graph" transform="scale(1 1) rotate(0) translate(4 1147)">
<title>%3</title>
<polygon fill="white" stroke="none" points="-4,4 -4,-1147 495.432,-1147 495.432,4 -4,4"/>
<!-- 1 -->
<g id="node1" class="node"><title>1</title>
<polygon fill="#fe0500" stroke="#fe0500" points="295.432,-1143 245.432,-1143 245.432,-1102 295.432,-1102 295.432,-1143"/>
<text text-anchor="middle" x="270.432" y="-1131" font-family="Arial" font-size="10.00" fill="#ffffff">main</text>
<text text-anchor="middle" x="270.432" y="-1120" font-family="Arial" font-size="10.00" fill="#ffffff">99.56%</text>
<text text-anchor="middle" x="270.432" y="-1109" font-family="Arial" font-size="10.00" fill="#ffffff">(0.00%)</text>
</g>
<!-- 3 -->
<g id="node2" class="node"><title>3</title>
<polygon fill="#fe0800" stroke="#fe0800" points="318.432,-1062 222.432,-1062 222.432,-1010 318.432,-1010 318.432,-1062"/>
<text text-anchor="middle" x="270.432" y="-1050" font-family="Arial" font-size="10.00" fill="#ffffff">rt_sdl_render_loop</text>
<text text-anchor="middle" x="270.432" y="-1039" font-family="Arial" font-size="10.00" fill="#ffffff">99.21%</text>
<text text-anchor="middle" x="270.432" y="-1028" font-family="Arial" font-size="10.00" fill="#ffffff">(0.00%)</text>
<text text-anchor="middle" x="270.432" y="-1017" font-family="Arial" font-size="10.00" fill="#ffffff">1×</text>
</g>
<!-- 1&#45;&gt;3 -->
<g id="edge1" class="edge"><title>1&#45;&gt;3</title>
<path fill="none" stroke="#fe0800" stroke-width="3.97" d="M270.432,-1101.9C270.432,-1093.14 270.432,-1082.55 270.432,-1072.47"/>
<polygon fill="#fe0800" stroke="#fe0800" stroke-width="3.97" points="273.932,-1072.27 270.432,-1062.27 266.932,-1072.27 273.932,-1072.27"/>
<text text-anchor="middle" x="287.432" y="-1085" font-family="Arial" font-size="10.00" fill="#fe0800">99.21%</text>
<text text-anchor="middle" x="287.432" y="-1074" font-family="Arial" font-size="10.00" fill="#fe0800">1×</text>
</g>
<!-- 2 -->
<g id="node3" class="node"><title>2</title>
<polygon fill="#fe0800" stroke="#fe0800" points="304.432,-970 236.432,-970 236.432,-918 304.432,-918 304.432,-970"/>
<text text-anchor="middle" x="270.432" y="-958" font-family="Arial" font-size="10.00" fill="#ffffff">rt_rendering</text>
<text text-anchor="middle" x="270.432" y="-947" font-family="Arial" font-size="10.00" fill="#ffffff">99.21%</text>
<text text-anchor="middle" x="270.432" y="-936" font-family="Arial" font-size="10.00" fill="#ffffff">(0.09%)</text>
<text text-anchor="middle" x="270.432" y="-925" font-family="Arial" font-size="10.00" fill="#ffffff">5×</text>
</g>
<!-- 3&#45;&gt;2 -->
<g id="edge3" class="edge"><title>3&#45;&gt;2</title>
<path fill="none" stroke="#fe0800" stroke-width="3.97" d="M270.432,-1009.93C270.432,-1000.74 270.432,-990.166 270.432,-980.253"/>
<polygon fill="#fe0800" stroke="#fe0800" stroke-width="3.97" points="273.932,-980.248 270.432,-970.248 266.932,-980.248 273.932,-980.248"/>
<text text-anchor="middle" x="287.432" y="-993" font-family="Arial" font-size="10.00" fill="#fe0800">99.21%</text>
<text text-anchor="middle" x="287.432" y="-982" font-family="Arial" font-size="10.00" fill="#fe0800">5×</text>
</g>
<!-- 4 -->
<g id="node4" class="node"><title>4</title>
<polygon fill="#fe0900" stroke="#fe0900" points="311.432,-878 229.432,-878 229.432,-826 311.432,-826 311.432,-878"/>
<text text-anchor="middle" x="270.432" y="-866" font-family="Arial" font-size="10.00" fill="#ffffff">rt_anti_aliasing</text>
<text text-anchor="middle" x="270.432" y="-855" font-family="Arial" font-size="10.00" fill="#ffffff">99.11%</text>
<text text-anchor="middle" x="270.432" y="-844" font-family="Arial" font-size="10.00" fill="#ffffff">(1.60%)</text>
<text text-anchor="middle" x="270.432" y="-833" font-family="Arial" font-size="10.00" fill="#ffffff">1600000×</text>
</g>
<!-- 2&#45;&gt;4 -->
<g id="edge2" class="edge"><title>2&#45;&gt;4</title>
<path fill="none" stroke="#fe0900" stroke-width="3.96" d="M270.432,-917.93C270.432,-908.743 270.432,-898.166 270.432,-888.253"/>
<polygon fill="#fe0900" stroke="#fe0900" stroke-width="3.96" points="273.932,-888.248 270.432,-878.248 266.932,-888.248 273.932,-888.248"/>
<text text-anchor="middle" x="291.932" y="-901" font-family="Arial" font-size="10.00" fill="#fe0900">99.11%</text>
<text text-anchor="middle" x="291.932" y="-890" font-family="Arial" font-size="10.00" fill="#fe0900">1600000×</text>
</g>
<!-- 5 -->
<g id="node5" class="node"><title>5</title>
<polygon fill="#fb1a01" stroke="#fb1a01" points="305.932,-786 234.932,-786 234.932,-734 305.932,-734 305.932,-786"/>
<text text-anchor="middle" x="270.432" y="-774" font-family="Arial" font-size="10.00" fill="#ffffff">rt_raytracing</text>
<text text-anchor="middle" x="270.432" y="-763" font-family="Arial" font-size="10.00" fill="#ffffff">97.52%</text>
<text text-anchor="middle" x="270.432" y="-752" font-family="Arial" font-size="10.00" fill="#ffffff">(1.06%)</text>
<text text-anchor="middle" x="270.432" y="-741" font-family="Arial" font-size="10.00" fill="#ffffff">6400000×</text>
</g>
<!-- 4&#45;&gt;5 -->
<g id="edge4" class="edge"><title>4&#45;&gt;5</title>
<path fill="none" stroke="#fb1a01" stroke-width="3.9" d="M270.432,-825.93C270.432,-816.743 270.432,-806.166 270.432,-796.253"/>
<polygon fill="#fb1a01" stroke="#fb1a01" stroke-width="3.9" points="273.897,-796.148 270.432,-786.248 266.967,-796.148 273.897,-796.148"/>
<text text-anchor="middle" x="291.932" y="-809" font-family="Arial" font-size="10.00" fill="#fb1a01">97.52%</text>
<text text-anchor="middle" x="291.932" y="-798" font-family="Arial" font-size="10.00" fill="#fb1a01">6400000×</text>
</g>
<!-- 6 -->
<g id="node6" class="node"><title>6</title>
<polygon fill="#dbd005" stroke="#dbd005" points="353.932,-602 270.932,-602 270.932,-550 353.932,-550 353.932,-602"/>
<text text-anchor="middle" x="312.432" y="-590" font-family="Arial" font-size="10.00" fill="#ffffff">rt_closest_inter</text>
<text text-anchor="middle" x="312.432" y="-579" font-family="Arial" font-size="10.00" fill="#ffffff">76.31%</text>
<text text-anchor="middle" x="312.432" y="-568" font-family="Arial" font-size="10.00" fill="#ffffff">(14.55%)</text>
<text text-anchor="middle" x="312.432" y="-557" font-family="Arial" font-size="10.00" fill="#ffffff">19200000×</text>
</g>
<!-- 5&#45;&gt;6 -->
<g id="edge5" class="edge"><title>5&#45;&gt;6</title>
<path fill="none" stroke="#0c9492" stroke-width="1.02" d="M284.067,-733.72C285.326,-730.829 286.483,-727.884 287.432,-725 300.446,-685.456 306.953,-637.629 310.007,-607.258"/>
<polygon fill="#0c9492" stroke="#0c9492" stroke-width="1.02" points="311.759,-607.313 310.502,-602.167 308.276,-606.974 311.759,-607.313"/>
<text text-anchor="middle" x="327.932" y="-671" font-family="Arial" font-size="10.00" fill="#0c9492">25.44%</text>
<text text-anchor="middle" x="327.932" y="-660" font-family="Arial" font-size="10.00" fill="#0c9492">6400000×</text>
</g>
<!-- 7 -->
<g id="node7" class="node"><title>7</title>
<polygon fill="#91ce07" stroke="#91ce07" points="230.932,-694 161.932,-694 161.932,-642 230.932,-642 230.932,-694"/>
<text text-anchor="middle" x="196.432" y="-682" font-family="Arial" font-size="10.00" fill="#ffffff">rt_calc_light</text>
<text text-anchor="middle" x="196.432" y="-671" font-family="Arial" font-size="10.00" fill="#ffffff">67.26%</text>
<text text-anchor="middle" x="196.432" y="-660" font-family="Arial" font-size="10.00" fill="#ffffff">(1.24%)</text>
<text text-anchor="middle" x="196.432" y="-649" font-family="Arial" font-size="10.00" fill="#ffffff">6400000×</text>
</g>
<!-- 5&#45;&gt;7 -->
<g id="edge6" class="edge"><title>5&#45;&gt;7</title>
<path fill="none" stroke="#91ce07" stroke-width="2.69" d="M249.819,-733.93C241.39,-723.679 231.54,-711.698 222.611,-700.839"/>
<polygon fill="#91ce07" stroke="#91ce07" stroke-width="2.69" points="224.616,-698.759 217.191,-694.248 220.183,-702.404 224.616,-698.759"/>
<text text-anchor="middle" x="263.932" y="-717" font-family="Arial" font-size="10.00" fill="#91ce07">67.26%</text>
<text text-anchor="middle" x="263.932" y="-706" font-family="Arial" font-size="10.00" fill="#91ce07">6400000×</text>
</g>
<!-- 12 -->
<g id="node8" class="node"><title>12</title>
<polygon fill="#0d3b80" stroke="#0d3b80" points="103.932,-266 38.9322,-266 38.9322,-214 103.932,-214 103.932,-266"/>
<text text-anchor="middle" x="71.4322" y="-254" font-family="Arial" font-size="10.00" fill="#ffffff">v_norm</text>
<text text-anchor="middle" x="71.4322" y="-243" font-family="Arial" font-size="10.00" fill="#ffffff">10.00%</text>
<text text-anchor="middle" x="71.4322" y="-232" font-family="Arial" font-size="10.00" fill="#ffffff">(3.64%)</text>
<text text-anchor="middle" x="71.4322" y="-221" font-family="Arial" font-size="10.00" fill="#ffffff">68825439×</text>
</g>
<!-- 5&#45;&gt;12 -->
<g id="edge7" class="edge"><title>5&#45;&gt;12</title>
<path fill="none" stroke="#0d1575" stroke-width="0.5" d="M234.837,-754.094C164.495,-743.398 14.4322,-715.169 14.4322,-669 14.4322,-669 14.4322,-669 14.4322,-361 14.4322,-322.344 7.8412,-308.324 27.4322,-275 29.7256,-271.099 32.6543,-267.487 35.9089,-264.188"/>
<polygon fill="#0d1575" stroke="#0d1575" stroke-width="0.5" points="37.039,-264.801 38.7125,-261.491 35.3407,-263.035 37.039,-264.801"/>
<text text-anchor="middle" x="38.9322" y="-533" font-family="Arial" font-size="10.00" fill="#0d1575">1.86%</text>
<text text-anchor="middle" x="38.9322" y="-522" font-family="Arial" font-size="10.00" fill="#0d1575">12800000×</text>
</g>
<!-- 19 -->
<g id="node9" class="node"><title>19</title>
<polygon fill="#0d0f74" stroke="#0d0f74" points="454.432,-694 364.432,-694 364.432,-642 454.432,-642 454.432,-694"/>
<text text-anchor="middle" x="409.432" y="-682" font-family="Arial" font-size="10.00" fill="#ffffff">rt_camera_rotate</text>
<text text-anchor="middle" x="409.432" y="-671" font-family="Arial" font-size="10.00" fill="#ffffff">0.62%</text>
<text text-anchor="middle" x="409.432" y="-660" font-family="Arial" font-size="10.00" fill="#ffffff">(0.62%)</text>
<text text-anchor="middle" x="409.432" y="-649" font-family="Arial" font-size="10.00" fill="#ffffff">6400000×</text>
</g>
<!-- 5&#45;&gt;19 -->
<g id="edge8" class="edge"><title>5&#45;&gt;19</title>
<path fill="none" stroke="#0d0f74" stroke-width="0.5" d="M306.228,-735.823C324.782,-723.81 347.564,-709.059 366.999,-696.475"/>
<polygon fill="#0d0f74" stroke="#0d0f74" stroke-width="0.5" points="368.065,-697.244 370.337,-694.313 366.734,-695.187 368.065,-697.244"/>
<text text-anchor="middle" x="378.932" y="-717" font-family="Arial" font-size="10.00" fill="#0d0f74">0.62%</text>
<text text-anchor="middle" x="378.932" y="-706" font-family="Arial" font-size="10.00" fill="#0d0f74">6400000×</text>
</g>
<!-- 8 -->
<g id="node10" class="node"><title>8</title>
<polygon fill="#0baa41" stroke="#0baa41" points="344.932,-510 267.932,-510 267.932,-458 344.932,-458 344.932,-510"/>
<text text-anchor="middle" x="306.432" y="-498" font-family="Arial" font-size="10.00" fill="#ffffff">s_intersection</text>
<text text-anchor="middle" x="306.432" y="-487" font-family="Arial" font-size="10.00" fill="#ffffff">41.43%</text>
<text text-anchor="middle" x="306.432" y="-476" font-family="Arial" font-size="10.00" fill="#ffffff">(8.43%)</text>
<text text-anchor="middle" x="306.432" y="-465" font-family="Arial" font-size="10.00" fill="#ffffff">76800000×</text>
</g>
<!-- 6&#45;&gt;8 -->
<g id="edge9" class="edge"><title>6&#45;&gt;8</title>
<path fill="none" stroke="#0baa41" stroke-width="1.66" d="M310.761,-549.93C310.077,-539.679 309.279,-527.698 308.555,-516.839"/>
<polygon fill="#0baa41" stroke="#0baa41" stroke-width="1.66" points="310.776,-516.485 308.115,-510.248 306.306,-516.783 310.776,-516.485"/>
<text text-anchor="middle" x="334.932" y="-533" font-family="Arial" font-size="10.00" fill="#0baa41">41.43%</text>
<text text-anchor="middle" x="334.932" y="-522" font-family="Arial" font-size="10.00" fill="#0baa41">76800000×</text>
</g>
<!-- 11 -->
<g id="node11" class="node"><title>11</title>
<polygon fill="#0c758d" stroke="#0c758d" points="456.432,-449 382.432,-449 382.432,-397 456.432,-397 456.432,-449"/>
<text text-anchor="middle" x="419.432" y="-437" font-family="Arial" font-size="10.00" fill="#ffffff">s_plane_inter</text>
<text text-anchor="middle" x="419.432" y="-426" font-family="Arial" font-size="10.00" fill="#ffffff">20.33%</text>
<text text-anchor="middle" x="419.432" y="-415" font-family="Arial" font-size="10.00" fill="#ffffff">(12.42%)</text>
<text text-anchor="middle" x="419.432" y="-404" font-family="Arial" font-size="10.00" fill="#ffffff">96000000×</text>
</g>
<!-- 6&#45;&gt;11 -->
<g id="edge10" class="edge"><title>6&#45;&gt;11</title>
<path fill="none" stroke="#0c758d" stroke-width="0.81" d="M352.437,-549.926C355.669,-547.12 358.726,-544.135 361.432,-541 383.841,-515.045 400.017,-478.918 409.502,-453.699"/>
<polygon fill="#0c758d" stroke="#0c758d" stroke-width="0.81" points="410.995,-454.203 411.081,-449.436 408.041,-453.109 410.995,-454.203"/>
<text text-anchor="middle" x="401.932" y="-533" font-family="Arial" font-size="10.00" fill="#0c758d">20.33%</text>
<text text-anchor="middle" x="401.932" y="-522" font-family="Arial" font-size="10.00" fill="#0c758d">96000000×</text>
</g>
<!-- 7&#45;&gt;6 -->
<g id="edge11" class="edge"><title>7&#45;&gt;6</title>
<path fill="none" stroke="#10b709" stroke-width="2.04" d="M230.891,-641.937C234.231,-639.051 237.473,-636.047 240.432,-633 248.856,-624.327 247.535,-619.186 256.432,-611 259.016,-608.622 261.792,-606.323 264.675,-604.119"/>
<polygon fill="#10b709" stroke="#10b709" stroke-width="2.04" points="266.431,-605.915 270.716,-599.732 263.511,-601.893 266.431,-605.915"/>
<text text-anchor="middle" x="280.932" y="-625" font-family="Arial" font-size="10.00" fill="#10b709">50.88%</text>
<text text-anchor="middle" x="280.932" y="-614" font-family="Arial" font-size="10.00" fill="#10b709">12800000×</text>
</g>
<!-- 15 -->
<g id="node12" class="node"><title>15</title>
<polygon fill="#0d327d" stroke="#0d327d" points="128.432,-388 28.4322,-388 28.4322,-336 128.432,-336 128.432,-388"/>
<text text-anchor="middle" x="78.4322" y="-376" font-family="Arial" font-size="10.00" fill="#ffffff">s_calc_light_intens</text>
<text text-anchor="middle" x="78.4322" y="-365" font-family="Arial" font-size="10.00" fill="#ffffff">8.22%</text>
<text text-anchor="middle" x="78.4322" y="-354" font-family="Arial" font-size="10.00" fill="#ffffff">(2.13%)</text>
<text text-anchor="middle" x="78.4322" y="-343" font-family="Arial" font-size="10.00" fill="#ffffff">8812715×</text>
</g>
<!-- 7&#45;&gt;15 -->
<g id="edge12" class="edge"><title>7&#45;&gt;15</title>
<path fill="none" stroke="#0d327d" stroke-width="0.5" d="M161.713,-656.554C136.219,-646.866 103.367,-629.69 87.4322,-602 67.3191,-567.048 72.5459,-447.548 76.2387,-391.92"/>
<polygon fill="#0d327d" stroke="#0d327d" stroke-width="0.5" points="77.4661,-391.924 76.4795,-388.35 75.0217,-391.759 77.4661,-391.924"/>
<text text-anchor="middle" x="95.9322" y="-533" font-family="Arial" font-size="10.00" fill="#0d327d">8.22%</text>
<text text-anchor="middle" x="95.9322" y="-522" font-family="Arial" font-size="10.00" fill="#0d327d">8812715×</text>
</g>
<!-- 16 -->
<g id="node13" class="node"><title>16</title>
<polygon fill="#0d2079" stroke="#0d2079" points="154.432,-602 92.4322,-602 92.4322,-550 154.432,-550 154.432,-602"/>
<text text-anchor="middle" x="123.432" y="-590" font-family="Arial" font-size="10.00" fill="#ffffff">sdl_clr_div</text>
<text text-anchor="middle" x="123.432" y="-579" font-family="Arial" font-size="10.00" fill="#ffffff">4.53%</text>
<text text-anchor="middle" x="123.432" y="-568" font-family="Arial" font-size="10.00" fill="#ffffff">(4.53%)</text>
<text text-anchor="middle" x="123.432" y="-557" font-family="Arial" font-size="10.00" fill="#ffffff">6400000×</text>
</g>
<!-- 7&#45;&gt;16 -->
<g id="edge13" class="edge"><title>7&#45;&gt;16</title>
<path fill="none" stroke="#0d2079" stroke-width="0.5" d="M161.927,-642.782C158.521,-639.692 155.277,-636.41 152.432,-633 145.623,-624.839 139.808,-614.815 135.212,-605.514"/>
<polygon fill="#0d2079" stroke="#0d2079" stroke-width="0.5" points="136.2,-604.743 133.574,-602.125 133.994,-605.809 136.2,-604.743"/>
<text text-anchor="middle" x="173.932" y="-625" font-family="Arial" font-size="10.00" fill="#0d2079">4.53%</text>
<text text-anchor="middle" x="173.932" y="-614" font-family="Arial" font-size="10.00" fill="#0d2079">6400000×</text>
</g>
<!-- 18 -->
<g id="node14" class="node"><title>18</title>
<polygon fill="#0d1776" stroke="#0d1776" points="261.432,-602 163.432,-602 163.432,-550 261.432,-550 261.432,-602"/>
<text text-anchor="middle" x="212.432" y="-590" font-family="Arial" font-size="10.00" fill="#ffffff">sdl_clrs_bright_inc</text>
<text text-anchor="middle" x="212.432" y="-579" font-family="Arial" font-size="10.00" fill="#ffffff">2.40%</text>
<text text-anchor="middle" x="212.432" y="-568" font-family="Arial" font-size="10.00" fill="#ffffff">(2.40%)</text>
<text text-anchor="middle" x="212.432" y="-557" font-family="Arial" font-size="10.00" fill="#ffffff">6225450×</text>
</g>
<!-- 7&#45;&gt;18 -->
<g id="edge14" class="edge"><title>7&#45;&gt;18</title>
<path fill="none" stroke="#0d1776" stroke-width="0.5" d="M196.115,-641.972C196.421,-632.217 197.308,-621 199.432,-611 199.791,-609.312 200.221,-607.597 200.703,-605.88"/>
<polygon fill="#0d1776" stroke="#0d1776" stroke-width="0.5" points="201.927,-606.065 201.76,-602.361 199.58,-605.361 201.927,-606.065"/>
<text text-anchor="middle" x="220.932" y="-625" font-family="Arial" font-size="10.00" fill="#0d1776">2.40%</text>
<text text-anchor="middle" x="220.932" y="-614" font-family="Arial" font-size="10.00" fill="#0d1776">6225450×</text>
</g>
<!-- 13 -->
<g id="node19" class="node"><title>13</title>
<polygon fill="#0d357e" stroke="#0d357e" points="187.932,-144 122.932,-144 122.932,-92 187.932,-92 187.932,-144"/>
<text text-anchor="middle" x="155.432" y="-132" font-family="Arial" font-size="10.00" fill="#ffffff">v_len</text>
<text text-anchor="middle" x="155.432" y="-121" font-family="Arial" font-size="10.00" fill="#ffffff">8.81%</text>
<text text-anchor="middle" x="155.432" y="-110" font-family="Arial" font-size="10.00" fill="#ffffff">(4.88%)</text>
<text text-anchor="middle" x="155.432" y="-99" font-family="Arial" font-size="10.00" fill="#ffffff">95263584×</text>
</g>
<!-- 12&#45;&gt;13 -->
<g id="edge21" class="edge"><title>12&#45;&gt;13</title>
<path fill="none" stroke="#0d297b" stroke-width="0.5" d="M74.8328,-213.812C78.3868,-195.372 85.4896,-170.6 99.4322,-153 104.87,-146.135 112.103,-140.324 119.56,-135.554"/>
<polygon fill="#0d297b" stroke="#0d297b" stroke-width="0.5" points="120.431,-136.455 122.764,-133.573 119.143,-134.371 120.431,-136.455"/>
<text text-anchor="middle" x="123.932" y="-182" font-family="Arial" font-size="10.00" fill="#0d297b">6.36%</text>
<text text-anchor="middle" x="123.932" y="-171" font-family="Arial" font-size="10.00" fill="#0d297b">68825439×</text>
</g>
<!-- 10 -->
<g id="node15" class="node"><title>10</title>
<polygon fill="#0c778e" stroke="#0c778e" points="261.432,-388 175.432,-388 175.432,-336 261.432,-336 261.432,-388"/>
<text text-anchor="middle" x="218.432" y="-376" font-family="Arial" font-size="10.00" fill="#ffffff">rt_inter_cylinder</text>
<text text-anchor="middle" x="218.432" y="-365" font-family="Arial" font-size="10.00" fill="#ffffff">20.65%</text>
<text text-anchor="middle" x="218.432" y="-354" font-family="Arial" font-size="10.00" fill="#ffffff">(3.99%)</text>
<text text-anchor="middle" x="218.432" y="-343" font-family="Arial" font-size="10.00" fill="#ffffff">38400000×</text>
</g>
<!-- 8&#45;&gt;10 -->
<g id="edge15" class="edge"><title>8&#45;&gt;10</title>
<path fill="none" stroke="#0c778e" stroke-width="0.83" d="M267.619,-472.874C254.934,-467.713 241.935,-460.098 233.432,-449 221.299,-433.165 217.677,-410.878 217.022,-392.961"/>
<polygon fill="#0c778e" stroke="#0c778e" stroke-width="0.83" points="218.587,-392.495 216.911,-388.032 215.438,-392.566 218.587,-392.495"/>
<text text-anchor="middle" x="257.932" y="-426" font-family="Arial" font-size="10.00" fill="#0c778e">20.65%</text>
<text text-anchor="middle" x="257.932" y="-415" font-family="Arial" font-size="10.00" fill="#0c778e">38400000×</text>
</g>
<!-- 14 -->
<g id="node16" class="node"><title>14</title>
<polygon fill="#0d347e" stroke="#0d347e" points="325.932,-327 252.932,-327 252.932,-275 325.932,-275 325.932,-327"/>
<text text-anchor="middle" x="289.432" y="-315" font-family="Arial" font-size="10.00" fill="#ffffff">rt_inter_cone</text>
<text text-anchor="middle" x="289.432" y="-304" font-family="Arial" font-size="10.00" fill="#ffffff">8.64%</text>
<text text-anchor="middle" x="289.432" y="-293" font-family="Arial" font-size="10.00" fill="#ffffff">(3.11%)</text>
<text text-anchor="middle" x="289.432" y="-282" font-family="Arial" font-size="10.00" fill="#ffffff">19200000×</text>
</g>
<!-- 8&#45;&gt;14 -->
<g id="edge16" class="edge"><title>8&#45;&gt;14</title>
<path fill="none" stroke="#0d347e" stroke-width="0.5" d="M304.068,-457.833C300.944,-424.562 295.449,-366.065 292.154,-330.984"/>
<polygon fill="#0d347e" stroke="#0d347e" stroke-width="0.5" points="293.35,-330.615 291.803,-327.245 290.911,-330.844 293.35,-330.615"/>
<text text-anchor="middle" x="327.932" y="-426" font-family="Arial" font-size="10.00" fill="#0d347e">8.64%</text>
<text text-anchor="middle" x="327.932" y="-415" font-family="Arial" font-size="10.00" fill="#0d347e">19200000×</text>
</g>
<!-- 17 -->
<g id="node17" class="node"><title>17</title>
<polygon fill="#0d1d77" stroke="#0d1d77" points="426.932,-205 345.932,-205 345.932,-153 426.932,-153 426.932,-205"/>
<text text-anchor="middle" x="386.432" y="-193" font-family="Arial" font-size="10.00" fill="#ffffff">rt_inter_sphere</text>
<text text-anchor="middle" x="386.432" y="-182" font-family="Arial" font-size="10.00" fill="#ffffff">3.70%</text>
<text text-anchor="middle" x="386.432" y="-171" font-family="Arial" font-size="10.00" fill="#ffffff">(1.33%)</text>
<text text-anchor="middle" x="386.432" y="-160" font-family="Arial" font-size="10.00" fill="#ffffff">19200000×</text>
</g>
<!-- 8&#45;&gt;17 -->
<g id="edge17" class="edge"><title>8&#45;&gt;17</title>
<path fill="none" stroke="#0d1d77" stroke-width="0.5" d="M345.041,-460.482C348.674,-457.042 351.927,-453.213 354.432,-449 378.235,-408.969 384.361,-269.872 385.915,-208.954"/>
<polygon fill="#0d1d77" stroke="#0d1d77" stroke-width="0.5" points="387.14,-208.937 386.002,-205.408 384.691,-208.876 387.14,-208.937"/>
<text text-anchor="middle" x="402.932" y="-365" font-family="Arial" font-size="10.00" fill="#0d1d77">3.70%</text>
<text text-anchor="middle" x="402.932" y="-354" font-family="Arial" font-size="10.00" fill="#0d1d77">19200000×</text>
</g>
<!-- 9 -->
<g id="node18" class="node"><title>9</title>
<polygon fill="#0b9d73" stroke="#0b9d73" points="287.432,-52 217.432,-52 217.432,-0 287.432,-0 287.432,-52"/>
<text text-anchor="middle" x="252.432" y="-40" font-family="Arial" font-size="10.00" fill="#ffffff">v_dot</text>
<text text-anchor="middle" x="252.432" y="-29" font-family="Arial" font-size="10.00" fill="#ffffff">32.30%</text>
<text text-anchor="middle" x="252.432" y="-18" font-family="Arial" font-size="10.00" fill="#ffffff">(32.30%)</text>
<text text-anchor="middle" x="252.432" y="-7" font-family="Arial" font-size="10.00" fill="#ffffff">783740569×</text>
</g>
<!-- 11&#45;&gt;9 -->
<g id="edge20" class="edge"><title>11&#45;&gt;9</title>
<path fill="none" stroke="#0d307d" stroke-width="0.5" d="M426.554,-396.847C427.256,-393.88 427.903,-390.883 428.432,-388 435.37,-350.2 437.432,-340.431 437.432,-302 437.432,-302 437.432,-302 437.432,-117 437.432,-52.5178 345.425,-34.2237 291.182,-29.0414"/>
<polygon fill="#0d307d" stroke="#0d307d" stroke-width="0.5" points="291.262,-27.8187 287.665,-28.7187 291.038,-30.2585 291.262,-27.8187"/>
<text text-anchor="middle" x="464.432" y="-243" font-family="Arial" font-size="10.00" fill="#0d307d">7.91%</text>
<text text-anchor="middle" x="464.432" y="-232" font-family="Arial" font-size="10.00" fill="#0d307d">191960040×</text>
</g>
<!-- 15&#45;&gt;12 -->
<g id="edge25" class="edge"><title>15&#45;&gt;12</title>
<path fill="none" stroke="#0d1876" stroke-width="0.5" d="M41.9123,-335.582C39.7622,-332.911 37.8864,-330.048 36.4322,-327 26.481,-306.141 27.4335,-296.287 36.4322,-275 37.2981,-272.952 38.3544,-270.966 39.5529,-269.052"/>
<polygon fill="#0d1876" stroke="#0d1876" stroke-width="0.5" points="40.6009,-269.689 41.5466,-266.103 38.5713,-268.316 40.6009,-269.689"/>
<text text-anchor="middle" x="60.9322" y="-304" font-family="Arial" font-size="10.00" fill="#0d1876">2.56%</text>
<text text-anchor="middle" x="60.9322" y="-293" font-family="Arial" font-size="10.00" fill="#0d1876">17625430×</text>
</g>
<!-- 15&#45;&gt;9 -->
<g id="edge24" class="edge"><title>15&#45;&gt;9</title>
<path fill="none" stroke="#0d1174" stroke-width="0.5" d="M33.7731,-335.821C31.3154,-333.12 29.1525,-330.183 27.4322,-327 -9.33784,-258.966 -8.59551,-221.947 26.4322,-153 62.9666,-81.0874 159.433,-48.0667 213.786,-34.7585"/>
<polygon fill="#0d1174" stroke="#0d1174" stroke-width="0.5" points="214.189,-35.9216 217.304,-33.9102 213.615,-33.5398 214.189,-35.9216"/>
<text text-anchor="middle" x="50.9322" y="-182" font-family="Arial" font-size="10.00" fill="#0d1174">1.09%</text>
<text text-anchor="middle" x="50.9322" y="-171" font-family="Arial" font-size="10.00" fill="#0d1174">26438145×</text>
</g>
<!-- 15&#45;&gt;13 -->
<g id="edge26" class="edge"><title>15&#45;&gt;13</title>
<path fill="none" stroke="#0d1776" stroke-width="0.5" d="M128.729,-343.847C135.697,-339.401 141.98,-333.867 146.432,-327 165.106,-298.197 161.024,-197.631 157.674,-147.648"/>
<polygon fill="#0d1776" stroke="#0d1776" stroke-width="0.5" points="158.895,-147.547 157.434,-144.138 156.451,-147.714 158.895,-147.547"/>
<text text-anchor="middle" x="185.932" y="-243" font-family="Arial" font-size="10.00" fill="#0d1776">2.44%</text>
<text text-anchor="middle" x="185.932" y="-232" font-family="Arial" font-size="10.00" fill="#0d1776">26438145×</text>
</g>
<!-- 10&#45;&gt;12 -->
<g id="edge19" class="edge"><title>10&#45;&gt;12</title>
<path fill="none" stroke="#0d257a" stroke-width="0.5" d="M175.31,-336.107C170.872,-333.166 166.502,-330.103 162.432,-327 139.201,-309.288 115.283,-286.472 97.8005,-268.792"/>
<polygon fill="#0d257a" stroke="#0d257a" stroke-width="0.5" points="98.5977,-267.855 95.2688,-266.222 96.8523,-269.575 98.5977,-267.855"/>
<text text-anchor="middle" x="186.932" y="-304" font-family="Arial" font-size="10.00" fill="#0d257a">5.58%</text>
<text text-anchor="middle" x="186.932" y="-293" font-family="Arial" font-size="10.00" fill="#0d257a">38400000×</text>
</g>
<!-- 10&#45;&gt;9 -->
<g id="edge18" class="edge"><title>10&#45;&gt;9</title>
<path fill="none" stroke="#0d4081" stroke-width="0.5" d="M216.057,-335.879C212.853,-296.632 208.507,-218.479 217.432,-153 222.098,-118.769 233.583,-80.7144 242.132,-55.4758"/>
<polygon fill="#0d4081" stroke="#0d4081" stroke-width="0.5" points="243.294,-55.8635 243.265,-52.1554 240.976,-55.0723 243.294,-55.8635"/>
<text text-anchor="middle" x="244.432" y="-182" font-family="Arial" font-size="10.00" fill="#0d4081">11.08%</text>
<text text-anchor="middle" x="244.432" y="-171" font-family="Arial" font-size="10.00" fill="#0d4081">268800000×</text>
</g>
<!-- 14&#45;&gt;9 -->
<g id="edge23" class="edge"><title>14&#45;&gt;9</title>
<path fill="none" stroke="#0d257a" stroke-width="0.5" d="M287.145,-274.977C284.366,-245.681 279.313,-195.725 273.432,-153 268.821,-119.496 262.251,-81.1965 257.693,-55.7039"/>
<polygon fill="#0d257a" stroke="#0d257a" stroke-width="0.5" points="258.859,-55.2665 257.036,-52.0377 256.448,-55.699 258.859,-55.2665"/>
<text text-anchor="middle" x="307.432" y="-182" font-family="Arial" font-size="10.00" fill="#0d257a">5.54%</text>
<text text-anchor="middle" x="307.432" y="-171" font-family="Arial" font-size="10.00" fill="#0d257a">134400000×</text>
</g>
<!-- 17&#45;&gt;9 -->
<g id="edge27" class="edge"><title>17&#45;&gt;9</title>
<path fill="none" stroke="#0d1776" stroke-width="0.5" d="M368.593,-152.566C350.822,-127.992 322.12,-90.2885 293.432,-61 291.386,-58.9108 289.219,-56.8189 286.994,-54.7569"/>
<polygon fill="#0d1776" stroke="#0d1776" stroke-width="0.5" points="287.769,-53.8058 284.358,-52.3519 286.118,-55.6158 287.769,-53.8058"/>
<text text-anchor="middle" x="386.932" y="-121" font-family="Arial" font-size="10.00" fill="#0d1776">2.37%</text>
<text text-anchor="middle" x="386.932" y="-110" font-family="Arial" font-size="10.00" fill="#0d1776">57600000×</text>
</g>
<!-- 13&#45;&gt;9 -->
<g id="edge22" class="edge"><title>13&#45;&gt;9</title>
<path fill="none" stroke="#0d1e78" stroke-width="0.5" d="M153.141,-91.9615C153.455,-81.4184 155.644,-69.622 162.432,-61 174.831,-45.252 195.382,-36.797 213.717,-32.2582"/>
<polygon fill="#0d1e78" stroke="#0d1e78" stroke-width="0.5" points="214.226,-33.3969 217.351,-31.4016 213.664,-31.0122 214.226,-33.3969"/>
<text text-anchor="middle" x="186.932" y="-75" font-family="Arial" font-size="10.00" fill="#0d1e78">3.93%</text>
<text text-anchor="middle" x="186.932" y="-64" font-family="Arial" font-size="10.00" fill="#0d1e78">95263584×</text>
</g>
</g>
</svg>
